<svg width="716" height="404" viewBox="0 0 716 404" fill="none" xmlns="http://www.w3.org/2000/svg">
<path d="M48.472 49H44.664V35.084L38.952 49H35.732L30.02 35.196V49H26.324V29.148H31.42L37.384 43.484L43.208 29.148H48.472V49ZM55.3394 40.544H61.4994C61.4434 39.172 60.5474 37.828 58.4194 37.828C56.4874 37.828 55.4234 39.284 55.3394 40.544ZM61.8634 44.128L64.9714 45.052C64.2714 47.432 62.0874 49.42 58.6994 49.42C54.9194 49.42 51.5874 46.704 51.5874 42.056C51.5874 37.66 54.8354 34.804 58.3634 34.804C62.6194 34.804 65.1674 37.52 65.1674 41.944C65.1674 42.476 65.1114 43.036 65.1114 43.092H55.2554C55.3394 44.912 56.8794 46.228 58.7274 46.228C60.4634 46.228 61.4154 45.36 61.8634 44.128ZM72.8574 31.108V35.224H75.6294V38.528H72.8574V44.296C72.8574 45.5 73.4174 45.892 74.4814 45.892C74.9294 45.892 75.4334 45.836 75.6294 45.78V48.86C75.2934 49 74.6214 49.196 73.5294 49.196C70.8414 49.196 69.1614 47.6 69.1614 44.94V38.528H66.6694V35.224H67.3694C68.8254 35.224 69.4974 34.272 69.4974 33.04V31.108H72.8574ZM82.3468 40.908V49H78.6228V28.728H82.3468V36.372C83.2428 35.308 84.7548 34.86 86.0708 34.86C89.5708 34.86 91.1948 37.296 91.1948 40.32V49H87.4708V40.964C87.4708 39.424 86.7148 38.22 84.9228 38.22C83.3548 38.22 82.4308 39.396 82.3468 40.908ZM101.249 46.032C103.069 46.032 104.749 44.716 104.749 42.112C104.749 39.508 103.069 38.192 101.249 38.192C99.4289 38.192 97.7489 39.508 97.7489 42.112C97.7489 44.688 99.4289 46.032 101.249 46.032ZM101.249 34.804C105.365 34.804 108.473 37.856 108.473 42.112C108.473 46.34 105.365 49.42 101.249 49.42C97.1329 49.42 94.0249 46.34 94.0249 42.112C94.0249 37.856 97.1329 34.804 101.249 34.804ZM124.763 28.728V46.508C124.763 47.432 124.819 48.44 124.875 49H121.319C121.263 48.72 121.179 48.048 121.179 47.404C120.563 48.496 119.163 49.336 117.315 49.336C113.395 49.336 110.595 46.256 110.595 42.084C110.595 38.052 113.311 34.888 117.203 34.888C119.583 34.888 120.703 35.868 121.095 36.596V28.728H124.763ZM114.347 42.084C114.347 44.548 115.803 46.004 117.763 46.004C119.667 46.004 121.151 44.548 121.151 42.056C121.151 39.592 119.667 38.22 117.763 38.22C115.859 38.22 114.347 39.62 114.347 42.084ZM127.656 45.164L130.848 44.464C130.932 45.556 131.744 46.564 133.368 46.564C134.6 46.564 135.188 45.92 135.188 45.192C135.188 44.576 134.768 44.072 133.704 43.848L131.884 43.428C129.224 42.84 128.02 41.244 128.02 39.312C128.02 36.848 130.204 34.804 133.172 34.804C137.092 34.804 138.408 37.296 138.576 38.78L135.468 39.48C135.356 38.668 134.768 37.632 133.2 37.632C132.22 37.632 131.436 38.22 131.436 39.004C131.436 39.676 131.94 40.096 132.696 40.236L134.656 40.656C137.372 41.216 138.744 42.868 138.744 44.884C138.744 47.124 137.008 49.42 133.396 49.42C129.252 49.42 127.824 46.732 127.656 45.164ZM156.272 49.448C152.044 49.448 148.656 46.844 148.656 41.972V29.148H152.52V41.692C152.52 44.296 153.976 45.668 156.272 45.668C158.624 45.668 160.052 44.296 160.052 41.692V29.148H163.916V41.972C163.916 46.844 160.528 49.448 156.272 49.448ZM166.757 45.164L169.949 44.464C170.033 45.556 170.845 46.564 172.469 46.564C173.701 46.564 174.289 45.92 174.289 45.192C174.289 44.576 173.869 44.072 172.805 43.848L170.985 43.428C168.325 42.84 167.121 41.244 167.121 39.312C167.121 36.848 169.305 34.804 172.273 34.804C176.193 34.804 177.509 37.296 177.677 38.78L174.569 39.48C174.457 38.668 173.869 37.632 172.301 37.632C171.321 37.632 170.537 38.22 170.537 39.004C170.537 39.676 171.041 40.096 171.797 40.236L173.757 40.656C176.473 41.216 177.845 42.868 177.845 44.884C177.845 47.124 176.109 49.42 172.497 49.42C168.353 49.42 166.925 46.732 166.757 45.164ZM183.773 40.544H189.933C189.877 39.172 188.981 37.828 186.853 37.828C184.921 37.828 183.857 39.284 183.773 40.544ZM190.297 44.128L193.405 45.052C192.705 47.432 190.521 49.42 187.133 49.42C183.353 49.42 180.021 46.704 180.021 42.056C180.021 37.66 183.269 34.804 186.797 34.804C191.053 34.804 193.601 37.52 193.601 41.944C193.601 42.476 193.545 43.036 193.545 43.092H183.689C183.773 44.912 185.313 46.228 187.161 46.228C188.897 46.228 189.849 45.36 190.297 44.128ZM209.912 28.728V46.508C209.912 47.432 209.968 48.44 210.024 49H206.468C206.412 48.72 206.328 48.048 206.328 47.404C205.712 48.496 204.312 49.336 202.464 49.336C198.544 49.336 195.744 46.256 195.744 42.084C195.744 38.052 198.46 34.888 202.352 34.888C204.732 34.888 205.852 35.868 206.244 36.596V28.728H209.912ZM199.496 42.084C199.496 44.548 200.952 46.004 202.912 46.004C204.816 46.004 206.3 44.548 206.3 42.056C206.3 39.592 204.816 38.22 202.912 38.22C201.008 38.22 199.496 39.62 199.496 42.084ZM227.289 31.808C226.449 31.808 225.357 32.172 225.357 33.712V35.224H228.465V38.416H225.357V49H221.605V38.416H219.309V35.224H221.605V33.656C221.605 30.548 223.565 28.532 226.617 28.532C227.401 28.532 228.157 28.672 228.465 28.812V31.948C228.269 31.892 227.905 31.808 227.289 31.808ZM237.065 46.032C238.885 46.032 240.565 44.716 240.565 42.112C240.565 39.508 238.885 38.192 237.065 38.192C235.245 38.192 233.565 39.508 233.565 42.112C233.565 44.688 235.245 46.032 237.065 46.032ZM237.065 34.804C241.181 34.804 244.289 37.856 244.289 42.112C244.289 46.34 241.181 49.42 237.065 49.42C232.949 49.42 229.841 46.34 229.841 42.112C229.841 37.856 232.949 34.804 237.065 34.804ZM255.652 35.168V38.92C255.232 38.836 254.868 38.808 254.532 38.808C252.628 38.808 250.976 39.732 250.976 42.7V49H247.252V35.224H250.864V37.268C251.704 35.448 253.608 35.112 254.784 35.112C255.092 35.112 255.372 35.14 255.652 35.168ZM277.981 33.88L274.509 34.944C274.313 33.852 273.417 32.144 270.897 32.144C269.021 32.144 267.789 33.348 267.789 34.664C267.789 35.756 268.489 36.624 269.945 36.904L272.717 37.436C276.329 38.136 278.261 40.488 278.261 43.288C278.261 46.34 275.713 49.42 271.093 49.42C265.829 49.42 263.505 46.032 263.197 43.204L266.781 42.252C266.949 44.212 268.321 45.976 271.121 45.976C273.193 45.976 274.341 44.94 274.341 43.54C274.341 42.392 273.473 41.496 271.933 41.188L269.161 40.628C265.997 39.984 263.953 37.94 263.953 34.944C263.953 31.416 267.117 28.728 270.869 28.728C275.685 28.728 277.533 31.64 277.981 33.88ZM284.207 40.544H290.367C290.311 39.172 289.415 37.828 287.287 37.828C285.355 37.828 284.291 39.284 284.207 40.544ZM290.731 44.128L293.839 45.052C293.139 47.432 290.955 49.42 287.567 49.42C283.787 49.42 280.455 46.704 280.455 42.056C280.455 37.66 283.703 34.804 287.231 34.804C291.487 34.804 294.035 37.52 294.035 41.944C294.035 42.476 293.979 43.036 293.979 43.092H284.123C284.207 44.912 285.747 46.228 287.595 46.228C289.331 46.228 290.283 45.36 290.731 44.128ZM300.741 41.076V49H297.017V35.224H300.629V36.932C301.469 35.504 303.121 34.86 304.605 34.86C308.021 34.86 309.589 37.296 309.589 40.32V49H305.865V40.964C305.865 39.424 305.109 38.22 303.317 38.22C301.693 38.22 300.741 39.48 300.741 41.076ZM326.587 28.728V46.508C326.587 47.432 326.643 48.44 326.699 49H323.143C323.087 48.72 323.003 48.048 323.003 47.404C322.387 48.496 320.987 49.336 319.139 49.336C315.219 49.336 312.419 46.256 312.419 42.084C312.419 38.052 315.135 34.888 319.027 34.888C321.407 34.888 322.527 35.868 322.919 36.596V28.728H326.587ZM316.171 42.084C316.171 44.548 317.627 46.004 319.587 46.004C321.491 46.004 322.975 44.548 322.975 42.056C322.975 39.592 321.491 38.22 319.587 38.22C317.683 38.22 316.171 39.62 316.171 42.084ZM334.128 49H330.404V35.224H334.128V49ZM329.956 30.716C329.956 29.428 330.992 28.392 332.252 28.392C333.54 28.392 334.548 29.428 334.548 30.716C334.548 31.948 333.54 32.984 332.252 32.984C330.992 32.984 329.956 31.948 329.956 30.716ZM341.648 41.076V49H337.924V35.224H341.536V36.932C342.376 35.504 344.028 34.86 345.512 34.86C348.928 34.86 350.496 37.296 350.496 40.32V49H346.772V40.964C346.772 39.424 346.016 38.22 344.224 38.22C342.6 38.22 341.648 39.48 341.648 41.076ZM353.354 49.756L356.714 48.86C356.966 50.372 358.17 51.464 359.934 51.464C362.286 51.464 363.602 50.288 363.602 47.628V46.62C363.042 47.516 361.754 48.384 359.766 48.384C356.098 48.384 353.354 45.556 353.354 41.692C353.354 38.052 355.986 34.972 359.766 34.972C361.95 34.972 363.21 35.924 363.686 36.848V35.224H367.27V47.516C367.27 51.296 365.226 54.74 360.046 54.74C356.266 54.74 353.746 52.388 353.354 49.756ZM360.41 45.192C362.314 45.192 363.658 43.82 363.658 41.692C363.658 39.564 362.202 38.22 360.41 38.22C358.562 38.22 357.106 39.564 357.106 41.692C357.106 43.848 358.478 45.192 360.41 45.192ZM382.049 49H378.129V29.148H382.049V49ZM389.991 41.076V49H386.267V35.224H389.879V36.932C390.719 35.504 392.371 34.86 393.855 34.86C397.271 34.86 398.839 37.296 398.839 40.32V49H395.115V40.964C395.115 39.424 394.359 38.22 392.567 38.22C390.943 38.22 389.991 39.48 389.991 41.076ZM415.313 35.224L409.965 49H406.241L400.613 35.224H404.701L408.117 44.464L411.393 35.224H415.313ZM421.409 49H417.685V35.224H421.409V49ZM417.237 30.716C417.237 29.428 418.273 28.392 419.533 28.392C420.821 28.392 421.829 29.428 421.829 30.716C421.829 31.948 420.821 32.984 419.533 32.984C418.273 32.984 417.237 31.948 417.237 30.716ZM430.049 31.108V35.224H432.821V38.528H430.049V44.296C430.049 45.5 430.609 45.892 431.673 45.892C432.121 45.892 432.625 45.836 432.821 45.78V48.86C432.485 49 431.813 49.196 430.721 49.196C428.033 49.196 426.353 47.6 426.353 44.94V38.528H423.861V35.224H424.561C426.017 35.224 426.689 34.272 426.689 33.04V31.108H430.049ZM435.002 45.248C435.002 42.784 436.822 41.412 439.118 41.076L442.506 40.572C443.29 40.46 443.542 40.068 443.542 39.592C443.542 38.612 442.786 37.8 441.218 37.8C439.594 37.8 438.698 38.836 438.586 40.04L435.282 39.34C435.506 37.184 437.494 34.804 441.19 34.804C445.558 34.804 447.182 37.268 447.182 40.04V46.816C447.182 47.544 447.266 48.524 447.35 49H443.934C443.85 48.636 443.794 47.88 443.794 47.348C443.094 48.44 441.778 49.392 439.734 49.392C436.794 49.392 435.002 47.404 435.002 45.248ZM440.518 46.62C442.086 46.62 443.542 45.864 443.542 43.428V42.812L440.434 43.288C439.482 43.428 438.726 43.96 438.726 45.024C438.726 45.836 439.314 46.62 440.518 46.62ZM455.615 31.108V35.224H458.387V38.528H455.615V44.296C455.615 45.5 456.175 45.892 457.239 45.892C457.687 45.892 458.191 45.836 458.387 45.78V48.86C458.051 49 457.379 49.196 456.287 49.196C453.599 49.196 451.919 47.6 451.919 44.94V38.528H449.427V35.224H450.127C451.583 35.224 452.255 34.272 452.255 33.04V31.108H455.615ZM465.105 49H461.381V35.224H465.105V49ZM460.933 30.716C460.933 29.428 461.969 28.392 463.229 28.392C464.517 28.392 465.525 29.428 465.525 30.716C465.525 31.948 464.517 32.984 463.229 32.984C461.969 32.984 460.933 31.948 460.933 30.716ZM475.284 46.032C477.104 46.032 478.784 44.716 478.784 42.112C478.784 39.508 477.104 38.192 475.284 38.192C473.464 38.192 471.784 39.508 471.784 42.112C471.784 44.688 473.464 46.032 475.284 46.032ZM475.284 34.804C479.4 34.804 482.508 37.856 482.508 42.112C482.508 46.34 479.4 49.42 475.284 49.42C471.168 49.42 468.06 46.34 468.06 42.112C468.06 37.856 471.168 34.804 475.284 34.804ZM489.194 41.076V49H485.47V35.224H489.082V36.932C489.922 35.504 491.574 34.86 493.058 34.86C496.474 34.86 498.042 37.296 498.042 40.32V49H494.318V40.964C494.318 39.424 493.562 38.22 491.77 38.22C490.146 38.22 489.194 39.48 489.194 41.076ZM500.789 45.164L503.981 44.464C504.065 45.556 504.877 46.564 506.501 46.564C507.733 46.564 508.321 45.92 508.321 45.192C508.321 44.576 507.901 44.072 506.837 43.848L505.017 43.428C502.357 42.84 501.153 41.244 501.153 39.312C501.153 36.848 503.337 34.804 506.305 34.804C510.225 34.804 511.541 37.296 511.709 38.78L508.601 39.48C508.489 38.668 507.901 37.632 506.333 37.632C505.353 37.632 504.569 38.22 504.569 39.004C504.569 39.676 505.073 40.096 505.829 40.236L507.789 40.656C510.505 41.216 511.877 42.868 511.877 44.884C511.877 47.124 510.141 49.42 506.529 49.42C502.385 49.42 500.957 46.732 500.789 45.164Z" fill="#121212"/>
<path d="M25.6472 120V108.727H33.03V110.672H28.0066V113.695H32.5925V115.562H28.0066V120H25.6472ZM34.6631 120V111.398H36.9444V112.734H37.085C37.3584 111.805 38.1397 111.258 39.2569 111.258C39.5616 111.258 39.8819 111.305 40.1084 111.367V113.359C39.7647 113.281 39.4131 113.227 39.0616 113.227C37.7647 113.227 36.9444 113.969 36.9444 115.188V120H34.6631ZM44.89 120.18C42.2728 120.18 40.6869 118.469 40.6869 115.711V115.703C40.6869 112.969 42.2884 111.211 44.7962 111.211C47.3041 111.211 48.8666 112.93 48.8666 115.531V116.242H42.9447C42.9681 117.656 43.7259 118.477 44.9369 118.477C45.9369 118.477 46.4916 117.945 46.6478 117.617L46.6712 117.57H48.7962L48.7806 117.648C48.515 118.727 47.4056 120.18 44.89 120.18ZM44.8353 112.922C43.8431 112.922 43.1087 113.594 42.9681 114.812H46.6791C46.5384 113.562 45.8275 112.922 44.8353 112.922ZM56.2184 122.852V118.688H56.0778C55.6559 119.594 54.7184 120.133 53.4841 120.133C51.3356 120.133 50.0075 118.453 50.0075 115.703V115.688C50.0075 112.922 51.32 111.258 53.5231 111.258C54.6872 111.258 55.6403 111.836 56.1169 112.812H56.2184V111.398H58.4997V122.852H56.2184ZM54.2809 118.242C55.4841 118.242 56.2497 117.281 56.2497 115.711V115.695C56.2497 114.117 55.4762 113.148 54.2809 113.148C53.0778 113.148 52.3278 114.117 52.3278 115.688V115.703C52.3278 117.289 53.07 118.242 54.2809 118.242ZM63.2969 120.18C61.3672 120.18 60.375 119.008 60.375 116.961V111.398H62.6562V116.438C62.6562 117.656 63.1172 118.289 64.1953 118.289C65.3203 118.289 65.9297 117.531 65.9297 116.367V111.398H68.2109V120H65.9297V118.672H65.7891C65.3984 119.609 64.5234 120.18 63.2969 120.18ZM73.9613 120.18C71.3441 120.18 69.7581 118.469 69.7581 115.711V115.703C69.7581 112.969 71.3597 111.211 73.8675 111.211C76.3753 111.211 77.9378 112.93 77.9378 115.531V116.242H72.0159C72.0394 117.656 72.7972 118.477 74.0081 118.477C75.0081 118.477 75.5628 117.945 75.7191 117.617L75.7425 117.57H77.8675L77.8519 117.648C77.5863 118.727 76.4769 120.18 73.9613 120.18ZM73.9066 112.922C72.9144 112.922 72.18 113.594 72.0394 114.812H75.7503C75.6097 113.562 74.8988 112.922 73.9066 112.922ZM79.485 120V111.398H81.7663V112.727H81.9069C82.2975 111.797 83.1491 111.211 84.3756 111.211C86.2897 111.211 87.3209 112.383 87.3209 114.438V120H85.0397V114.953C85.0397 113.742 84.5397 113.102 83.4616 113.102C82.4069 113.102 81.7663 113.859 81.7663 115.023V120H79.485ZM93.0009 120.18C90.3134 120.18 88.79 118.547 88.79 115.688V115.672C88.79 112.844 90.3056 111.211 93.0009 111.211C95.2822 111.211 96.6337 112.453 96.8369 114.375V114.398H94.7119L94.7041 114.383C94.5556 113.547 93.9853 113 93.0087 113C91.7822 113 91.1103 113.953 91.1103 115.672V115.688C91.1103 117.43 91.79 118.391 93.0087 118.391C93.9462 118.391 94.5009 117.945 94.7041 117.086L94.7197 117.055H96.8291L96.8212 117.102C96.5869 118.977 95.2431 120.18 93.0009 120.18ZM99.3216 123.031C99.0559 123.031 98.7669 123.023 98.5013 123.008V121.289C98.6575 121.305 98.8841 121.312 99.095 121.312C99.9075 121.312 100.376 121 100.54 120.328L100.618 120L97.595 111.398H100.103L101.908 117.914H102.064L103.868 111.398H106.275L103.345 119.992C102.579 122.266 101.447 123.031 99.3216 123.031Z" fill="#2E2E2E"/>
<path d="M89 301H687" stroke="#2E2E2E"/>
<path d="M148.8 307V301" stroke="#2E2E2E"/>
<path d="M134.937 327.52V318.793H140.408V319.926H136.253V322.585H140.123V323.715H136.253V326.386H140.459V327.52H134.937ZM142.065 327.52V320.975H143.288V322.04H143.369C143.505 321.679 143.728 321.398 144.038 321.196C144.347 320.992 144.718 320.889 145.15 320.889C145.587 320.889 145.954 320.992 146.249 321.196C146.548 321.401 146.768 321.682 146.91 322.04H146.978C147.134 321.69 147.383 321.412 147.724 321.205C148.065 320.994 148.471 320.889 148.943 320.889C149.536 320.889 150.021 321.075 150.396 321.448C150.774 321.82 150.962 322.381 150.962 323.131V327.52H149.688V323.25C149.688 322.807 149.568 322.486 149.326 322.287C149.085 322.088 148.796 321.989 148.461 321.989C148.046 321.989 147.724 322.117 147.494 322.372C147.264 322.625 147.149 322.95 147.149 323.348V327.52H145.879V323.169C145.879 322.814 145.768 322.529 145.546 322.313C145.325 322.097 145.036 321.989 144.681 321.989C144.44 321.989 144.217 322.053 144.012 322.181C143.81 322.306 143.647 322.48 143.522 322.705C143.4 322.929 143.339 323.189 143.339 323.485V327.52H142.065ZM154.575 327.665C154.16 327.665 153.785 327.588 153.45 327.435C153.115 327.279 152.849 327.053 152.653 326.757C152.46 326.462 152.363 326.1 152.363 325.671C152.363 325.301 152.434 324.997 152.576 324.759C152.718 324.52 152.91 324.331 153.152 324.192C153.393 324.053 153.663 323.948 153.961 323.877C154.26 323.806 154.564 323.752 154.873 323.715C155.265 323.669 155.584 323.632 155.828 323.604C156.072 323.573 156.25 323.523 156.361 323.455C156.471 323.386 156.527 323.276 156.527 323.122V323.092C156.527 322.72 156.422 322.432 156.211 322.227C156.004 322.023 155.694 321.921 155.282 321.921C154.853 321.921 154.515 322.016 154.268 322.206C154.024 322.394 153.855 322.602 153.761 322.833L152.564 322.56C152.706 322.162 152.913 321.841 153.186 321.597C153.461 321.35 153.778 321.171 154.136 321.06C154.494 320.946 154.87 320.889 155.265 320.889C155.527 320.889 155.804 320.921 156.096 320.983C156.392 321.043 156.667 321.154 156.923 321.315C157.182 321.477 157.393 321.709 157.558 322.01C157.723 322.308 157.805 322.696 157.805 323.173V327.52H156.561V326.625H156.51C156.427 326.79 156.304 326.952 156.139 327.111C155.974 327.27 155.763 327.402 155.504 327.507C155.245 327.612 154.936 327.665 154.575 327.665ZM154.852 326.642C155.204 326.642 155.505 326.573 155.755 326.433C156.008 326.294 156.2 326.112 156.331 325.888C156.464 325.661 156.531 325.418 156.531 325.159V324.315C156.486 324.361 156.397 324.404 156.267 324.443C156.139 324.48 155.993 324.513 155.828 324.541C155.663 324.567 155.503 324.591 155.346 324.614C155.19 324.634 155.059 324.651 154.954 324.665C154.707 324.696 154.481 324.749 154.277 324.823C154.075 324.896 153.913 325.003 153.791 325.142C153.672 325.279 153.612 325.46 153.612 325.688C153.612 326.003 153.728 326.242 153.961 326.404C154.194 326.563 154.491 326.642 154.852 326.642ZM159.502 327.52V320.975H160.776V327.52H159.502ZM160.146 319.965C159.924 319.965 159.734 319.891 159.575 319.743C159.418 319.592 159.34 319.413 159.34 319.206C159.34 318.996 159.418 318.817 159.575 318.669C159.734 318.519 159.924 318.443 160.146 318.443C160.367 318.443 160.556 318.519 160.712 318.669C160.872 318.817 160.951 318.996 160.951 319.206C160.951 319.413 160.872 319.592 160.712 319.743C160.556 319.891 160.367 319.965 160.146 319.965ZM163.765 318.793V327.52H162.491V318.793H163.765Z" fill="#2E2E2E"/>
<path d="M268.4 307V301" stroke="#2E2E2E"/>
<path d="M238.173 321.085C238.128 320.682 237.94 320.369 237.611 320.148C237.281 319.923 236.867 319.811 236.367 319.811C236.009 319.811 235.699 319.868 235.438 319.982C235.176 320.092 234.973 320.246 234.828 320.442C234.686 320.635 234.615 320.855 234.615 321.102C234.615 321.31 234.663 321.489 234.76 321.639C234.859 321.79 234.989 321.916 235.148 322.019C235.31 322.118 235.483 322.202 235.668 322.27C235.852 322.335 236.03 322.389 236.2 322.432L237.053 322.654C237.331 322.722 237.617 322.814 237.909 322.931C238.202 323.047 238.473 323.2 238.723 323.391C238.973 323.581 239.175 323.817 239.328 324.098C239.484 324.379 239.563 324.716 239.563 325.108C239.563 325.602 239.435 326.041 239.179 326.425C238.926 326.808 238.558 327.111 238.075 327.333C237.595 327.554 237.014 327.665 236.333 327.665C235.679 327.665 235.114 327.561 234.636 327.354C234.159 327.146 233.786 326.852 233.516 326.472C233.246 326.088 233.097 325.634 233.068 325.108H234.389C234.415 325.423 234.517 325.686 234.696 325.896C234.878 326.104 235.109 326.259 235.391 326.361C235.675 326.46 235.986 326.51 236.324 326.51C236.696 326.51 237.027 326.452 237.317 326.335C237.609 326.216 237.84 326.051 238.007 325.841C238.175 325.628 238.259 325.379 238.259 325.095C238.259 324.837 238.185 324.625 238.037 324.46C237.892 324.296 237.695 324.159 237.445 324.051C237.198 323.943 236.918 323.848 236.605 323.766L235.574 323.485C234.875 323.294 234.321 323.014 233.912 322.645C233.506 322.276 233.303 321.787 233.303 321.179C233.303 320.676 233.439 320.237 233.712 319.862C233.984 319.487 234.354 319.196 234.82 318.989C235.286 318.779 235.811 318.673 236.396 318.673C236.987 318.673 237.509 318.777 237.96 318.985C238.415 319.192 238.773 319.477 239.034 319.841C239.296 320.202 239.432 320.617 239.443 321.085H238.173ZM243.791 327.652C243.177 327.652 242.642 327.511 242.184 327.23C241.727 326.949 241.372 326.556 241.119 326.05C240.866 325.544 240.74 324.953 240.74 324.277C240.74 323.598 240.866 323.004 241.119 322.496C241.372 321.987 241.727 321.592 242.184 321.311C242.642 321.03 243.177 320.889 243.791 320.889C244.405 320.889 244.94 321.03 245.397 321.311C245.855 321.592 246.21 321.987 246.463 322.496C246.716 323.004 246.842 323.598 246.842 324.277C246.842 324.953 246.716 325.544 246.463 326.05C246.21 326.556 245.855 326.949 245.397 327.23C244.94 327.511 244.405 327.652 243.791 327.652ZM243.795 326.583C244.193 326.583 244.522 326.477 244.784 326.267C245.045 326.057 245.238 325.777 245.363 325.428C245.491 325.078 245.555 324.693 245.555 324.273C245.555 323.855 245.491 323.472 245.363 323.122C245.238 322.77 245.045 322.487 244.784 322.274C244.522 322.061 244.193 321.955 243.795 321.955C243.395 321.955 243.062 322.061 242.798 322.274C242.537 322.487 242.342 322.77 242.214 323.122C242.089 323.472 242.027 323.855 242.027 324.273C242.027 324.693 242.089 325.078 242.214 325.428C242.342 325.777 242.537 326.057 242.798 326.267C243.062 326.477 243.395 326.583 243.795 326.583ZM251.021 327.652C250.388 327.652 249.842 327.509 249.385 327.222C248.931 326.932 248.581 326.533 248.337 326.024C248.092 325.516 247.97 324.933 247.97 324.277C247.97 323.612 248.095 323.026 248.345 322.517C248.595 322.006 248.948 321.607 249.402 321.32C249.857 321.033 250.392 320.889 251.009 320.889C251.506 320.889 251.949 320.982 252.338 321.166C252.727 321.348 253.041 321.604 253.28 321.933C253.521 322.263 253.665 322.648 253.71 323.088H252.47C252.402 322.781 252.246 322.517 252.002 322.296C251.76 322.074 251.436 321.963 251.03 321.963C250.675 321.963 250.364 322.057 250.097 322.244C249.833 322.429 249.627 322.693 249.479 323.037C249.331 323.378 249.257 323.781 249.257 324.247C249.257 324.725 249.33 325.136 249.475 325.483C249.619 325.83 249.824 326.098 250.088 326.288C250.355 326.479 250.669 326.574 251.03 326.574C251.271 326.574 251.49 326.53 251.686 326.442C251.885 326.351 252.051 326.222 252.185 326.054C252.321 325.886 252.416 325.685 252.47 325.449H253.71C253.665 325.872 253.527 326.25 253.297 326.583C253.067 326.915 252.759 327.176 252.372 327.367C251.989 327.557 251.538 327.652 251.021 327.652ZM255.073 327.52V320.975H256.347V327.52H255.073ZM255.716 319.965C255.495 319.965 255.304 319.891 255.145 319.743C254.989 319.592 254.911 319.413 254.911 319.206C254.911 318.996 254.989 318.817 255.145 318.669C255.304 318.519 255.495 318.443 255.716 318.443C255.938 318.443 256.127 318.519 256.283 318.669C256.442 318.817 256.522 318.996 256.522 319.206C256.522 319.413 256.442 319.592 256.283 319.743C256.127 319.891 255.938 319.965 255.716 319.965ZM259.966 327.665C259.551 327.665 259.176 327.588 258.841 327.435C258.506 327.279 258.24 327.053 258.044 326.757C257.851 326.462 257.754 326.1 257.754 325.671C257.754 325.301 257.825 324.997 257.967 324.759C258.109 324.52 258.301 324.331 258.543 324.192C258.784 324.053 259.054 323.948 259.352 323.877C259.651 323.806 259.955 323.752 260.264 323.715C260.656 323.669 260.975 323.632 261.219 323.604C261.463 323.573 261.641 323.523 261.752 323.455C261.862 323.386 261.918 323.276 261.918 323.122V323.092C261.918 322.72 261.813 322.432 261.602 322.227C261.395 322.023 261.085 321.921 260.673 321.921C260.244 321.921 259.906 322.016 259.659 322.206C259.415 322.394 259.246 322.602 259.152 322.833L257.955 322.56C258.097 322.162 258.304 321.841 258.577 321.597C258.852 321.35 259.169 321.171 259.527 321.06C259.885 320.946 260.261 320.889 260.656 320.889C260.918 320.889 261.195 320.921 261.487 320.983C261.783 321.043 262.058 321.154 262.314 321.315C262.573 321.477 262.784 321.709 262.949 322.01C263.114 322.308 263.196 322.696 263.196 323.173V327.52H261.952V326.625H261.901C261.818 326.79 261.695 326.952 261.53 327.111C261.365 327.27 261.154 327.402 260.895 327.507C260.636 327.612 260.327 327.665 259.966 327.665ZM260.243 326.642C260.595 326.642 260.896 326.573 261.146 326.433C261.399 326.294 261.591 326.112 261.722 325.888C261.855 325.661 261.922 325.418 261.922 325.159V324.315C261.877 324.361 261.788 324.404 261.658 324.443C261.53 324.48 261.384 324.513 261.219 324.541C261.054 324.567 260.894 324.591 260.737 324.614C260.581 324.634 260.45 324.651 260.345 324.665C260.098 324.696 259.872 324.749 259.668 324.823C259.466 324.896 259.304 325.003 259.182 325.142C259.063 325.279 259.003 325.46 259.003 325.688C259.003 326.003 259.119 326.242 259.352 326.404C259.585 326.563 259.882 326.642 260.243 326.642ZM266.167 318.793V327.52H264.893V318.793H266.167ZM271.16 318.793H272.758L275.536 325.577H275.638L278.417 318.793H280.015V327.52H278.762V321.205H278.681L276.107 327.507H275.067L272.493 321.2H272.412V327.52H271.16V318.793ZM284.648 327.652C284.003 327.652 283.448 327.514 282.982 327.239C282.519 326.96 282.161 326.57 281.908 326.067C281.658 325.561 281.533 324.969 281.533 324.29C281.533 323.619 281.658 323.029 281.908 322.517C282.161 322.006 282.513 321.607 282.965 321.32C283.419 321.033 283.95 320.889 284.558 320.889C284.928 320.889 285.286 320.95 285.632 321.073C285.979 321.195 286.29 321.386 286.565 321.648C286.841 321.909 287.058 322.249 287.217 322.666C287.377 323.081 287.456 323.585 287.456 324.179V324.631H282.253V323.676H286.208C286.208 323.341 286.139 323.044 286.003 322.786C285.867 322.524 285.675 322.318 285.428 322.168C285.183 322.017 284.896 321.942 284.567 321.942C284.209 321.942 283.896 322.03 283.629 322.206C283.365 322.379 283.161 322.607 283.016 322.888C282.874 323.166 282.803 323.469 282.803 323.796V324.541C282.803 324.979 282.879 325.351 283.033 325.658C283.189 325.965 283.406 326.199 283.685 326.361C283.963 326.52 284.288 326.6 284.661 326.6C284.902 326.6 285.122 326.565 285.321 326.497C285.52 326.426 285.692 326.321 285.837 326.182C285.982 326.043 286.092 325.871 286.169 325.666L287.375 325.884C287.279 326.239 287.105 326.55 286.855 326.817C286.608 327.081 286.297 327.287 285.922 327.435C285.55 327.58 285.125 327.652 284.648 327.652ZM291.32 327.648C290.792 327.648 290.32 327.513 289.905 327.243C289.493 326.97 289.17 326.583 288.934 326.08C288.701 325.574 288.584 324.967 288.584 324.26C288.584 323.553 288.702 322.948 288.938 322.445C289.177 321.942 289.503 321.557 289.918 321.29C290.333 321.023 290.803 320.889 291.329 320.889C291.735 320.889 292.062 320.958 292.309 321.094C292.559 321.227 292.752 321.384 292.888 321.563C293.027 321.742 293.135 321.899 293.212 322.036H293.289V318.793H294.563V327.52H293.319V326.502H293.212C293.135 326.641 293.025 326.8 292.88 326.979C292.738 327.158 292.542 327.314 292.292 327.448C292.042 327.581 291.718 327.648 291.32 327.648ZM291.601 326.561C291.968 326.561 292.277 326.465 292.53 326.271C292.786 326.075 292.979 325.804 293.11 325.458C293.243 325.111 293.31 324.708 293.31 324.247C293.31 323.793 293.245 323.395 293.114 323.054C292.983 322.713 292.792 322.448 292.539 322.257C292.286 322.067 291.973 321.972 291.601 321.972C291.218 321.972 290.898 322.071 290.643 322.27C290.387 322.469 290.194 322.74 290.063 323.084C289.935 323.428 289.871 323.815 289.871 324.247C289.871 324.685 289.937 325.078 290.067 325.428C290.198 325.777 290.391 326.054 290.647 326.259C290.905 326.46 291.223 326.561 291.601 326.561ZM296.382 327.52V320.975H297.656V327.52H296.382ZM297.025 319.965C296.803 319.965 296.613 319.891 296.454 319.743C296.298 319.592 296.22 319.413 296.22 319.206C296.22 318.996 296.298 318.817 296.454 318.669C296.613 318.519 296.803 318.443 297.025 318.443C297.247 318.443 297.435 318.519 297.592 318.669C297.751 318.817 297.83 318.996 297.83 319.206C297.83 319.413 297.751 319.592 297.592 319.743C297.435 319.891 297.247 319.965 297.025 319.965ZM301.275 327.665C300.86 327.665 300.485 327.588 300.15 327.435C299.814 327.279 299.549 327.053 299.353 326.757C299.16 326.462 299.063 326.1 299.063 325.671C299.063 325.301 299.134 324.997 299.276 324.759C299.418 324.52 299.61 324.331 299.851 324.192C300.093 324.053 300.363 323.948 300.661 323.877C300.959 323.806 301.263 323.752 301.573 323.715C301.965 323.669 302.283 323.632 302.527 323.604C302.772 323.573 302.949 323.523 303.06 323.455C303.171 323.386 303.226 323.276 303.226 323.122V323.092C303.226 322.72 303.121 322.432 302.911 322.227C302.704 322.023 302.394 321.921 301.982 321.921C301.553 321.921 301.215 322.016 300.968 322.206C300.723 322.394 300.554 322.602 300.461 322.833L299.263 322.56C299.405 322.162 299.613 321.841 299.885 321.597C300.161 321.35 300.478 321.171 300.836 321.06C301.194 320.946 301.57 320.889 301.965 320.889C302.226 320.889 302.503 320.921 302.796 320.983C303.091 321.043 303.367 321.154 303.623 321.315C303.881 321.477 304.093 321.709 304.258 322.01C304.422 322.308 304.505 322.696 304.505 323.173V327.52H303.26V326.625H303.209C303.127 326.79 303.003 326.952 302.839 327.111C302.674 327.27 302.462 327.402 302.204 327.507C301.945 327.612 301.635 327.665 301.275 327.665ZM301.552 326.642C301.904 326.642 302.205 326.573 302.455 326.433C302.708 326.294 302.9 326.112 303.03 325.888C303.164 325.661 303.231 325.418 303.231 325.159V324.315C303.185 324.361 303.097 324.404 302.966 324.443C302.839 324.48 302.692 324.513 302.527 324.541C302.363 324.567 302.202 324.591 302.046 324.614C301.89 324.634 301.759 324.651 301.654 324.665C301.407 324.696 301.181 324.749 300.976 324.823C300.775 324.896 300.613 325.003 300.491 325.142C300.371 325.279 300.312 325.46 300.312 325.688C300.312 326.003 300.428 326.242 300.661 326.404C300.894 326.563 301.191 326.642 301.552 326.642Z" fill="#2E2E2E"/>
<path d="M388 307V301" stroke="#2E2E2E"/>
<path d="M345.021 318.793H346.619L349.398 325.577H349.5L352.278 318.793H353.876V327.52H352.624V321.205H352.543L349.969 327.507H348.929L346.355 321.2H346.274V327.52H345.021V318.793ZM358.51 327.652C357.865 327.652 357.309 327.514 356.843 327.239C356.38 326.96 356.022 326.57 355.77 326.067C355.52 325.561 355.395 324.969 355.395 324.29C355.395 323.619 355.52 323.029 355.77 322.517C356.022 322.006 356.375 321.607 356.826 321.32C357.281 321.033 357.812 320.889 358.42 320.889C358.789 320.889 359.147 320.95 359.494 321.073C359.841 321.195 360.152 321.386 360.427 321.648C360.703 321.909 360.92 322.249 361.079 322.666C361.238 323.081 361.318 323.585 361.318 324.179V324.631H356.115V323.676H360.069C360.069 323.341 360.001 323.044 359.865 322.786C359.728 322.524 359.537 322.318 359.289 322.168C359.045 322.017 358.758 321.942 358.429 321.942C358.071 321.942 357.758 322.03 357.491 322.206C357.227 322.379 357.022 322.607 356.877 322.888C356.735 323.166 356.664 323.469 356.664 323.796V324.541C356.664 324.979 356.741 325.351 356.895 325.658C357.051 325.965 357.268 326.199 357.547 326.361C357.825 326.52 358.15 326.6 358.522 326.6C358.764 326.6 358.984 326.565 359.183 326.497C359.382 326.426 359.554 326.321 359.698 326.182C359.843 326.043 359.954 325.871 360.031 325.666L361.237 325.884C361.14 326.239 360.967 326.55 360.717 326.817C360.47 327.081 360.159 327.287 359.784 327.435C359.412 327.58 358.987 327.652 358.51 327.652ZM367.636 322.573L366.482 322.777C366.433 322.629 366.357 322.489 366.251 322.355C366.149 322.222 366.01 322.112 365.834 322.027C365.658 321.942 365.437 321.899 365.173 321.899C364.812 321.899 364.511 321.98 364.27 322.142C364.028 322.301 363.908 322.507 363.908 322.76C363.908 322.979 363.989 323.155 364.151 323.288C364.312 323.422 364.574 323.531 364.935 323.617L365.974 323.855C366.577 323.994 367.026 324.209 367.321 324.499C367.616 324.788 367.764 325.165 367.764 325.628C367.764 326.02 367.651 326.369 367.423 326.676C367.199 326.98 366.885 327.219 366.482 327.392C366.081 327.565 365.616 327.652 365.088 327.652C364.355 327.652 363.757 327.496 363.294 327.183C362.831 326.868 362.547 326.421 362.442 325.841L363.673 325.654C363.75 325.975 363.908 326.217 364.146 326.382C364.385 326.544 364.696 326.625 365.08 326.625C365.497 326.625 365.831 326.538 366.081 326.365C366.331 326.189 366.456 325.975 366.456 325.722C366.456 325.517 366.379 325.345 366.226 325.206C366.075 325.067 365.844 324.962 365.531 324.891L364.423 324.648C363.812 324.509 363.361 324.287 363.068 323.983C362.778 323.679 362.634 323.294 362.634 322.828C362.634 322.442 362.741 322.104 362.957 321.814C363.173 321.524 363.472 321.298 363.852 321.136C364.233 320.972 364.669 320.889 365.16 320.889C365.868 320.889 366.425 321.043 366.831 321.35C367.237 321.654 367.506 322.061 367.636 322.573ZM374.07 322.573L372.915 322.777C372.867 322.629 372.79 322.489 372.685 322.355C372.583 322.222 372.444 322.112 372.267 322.027C372.091 321.942 371.871 321.899 371.607 321.899C371.246 321.899 370.945 321.98 370.703 322.142C370.462 322.301 370.341 322.507 370.341 322.76C370.341 322.979 370.422 323.155 370.584 323.288C370.746 323.422 371.007 323.531 371.368 323.617L372.408 323.855C373.01 323.994 373.459 324.209 373.755 324.499C374.05 324.788 374.198 325.165 374.198 325.628C374.198 326.02 374.084 326.369 373.857 326.676C373.632 326.98 373.319 327.219 372.915 327.392C372.515 327.565 372.05 327.652 371.522 327.652C370.789 327.652 370.191 327.496 369.728 327.183C369.265 326.868 368.98 326.421 368.875 325.841L370.107 325.654C370.184 325.975 370.341 326.217 370.58 326.382C370.819 326.544 371.13 326.625 371.513 326.625C371.931 326.625 372.265 326.538 372.515 326.365C372.765 326.189 372.89 325.975 372.89 325.722C372.89 325.517 372.813 325.345 372.659 325.206C372.509 325.067 372.277 324.962 371.965 324.891L370.857 324.648C370.246 324.509 369.794 324.287 369.502 323.983C369.212 323.679 369.067 323.294 369.067 322.828C369.067 322.442 369.175 322.104 369.391 321.814C369.607 321.524 369.905 321.298 370.286 321.136C370.667 320.972 371.103 320.889 371.594 320.889C372.301 320.889 372.858 321.043 373.265 321.35C373.671 321.654 373.939 322.061 374.07 322.573ZM377.504 327.665C377.089 327.665 376.714 327.588 376.379 327.435C376.043 327.279 375.778 327.053 375.582 326.757C375.388 326.462 375.292 326.1 375.292 325.671C375.292 325.301 375.363 324.997 375.505 324.759C375.647 324.52 375.839 324.331 376.08 324.192C376.322 324.053 376.592 323.948 376.89 323.877C377.188 323.806 377.492 323.752 377.802 323.715C378.194 323.669 378.512 323.632 378.756 323.604C379.001 323.573 379.178 323.523 379.289 323.455C379.4 323.386 379.455 323.276 379.455 323.122V323.092C379.455 322.72 379.35 322.432 379.14 322.227C378.933 322.023 378.623 321.921 378.211 321.921C377.782 321.921 377.444 322.016 377.197 322.206C376.952 322.394 376.783 322.602 376.69 322.833L375.492 322.56C375.634 322.162 375.842 321.841 376.114 321.597C376.39 321.35 376.707 321.171 377.065 321.06C377.423 320.946 377.799 320.889 378.194 320.889C378.455 320.889 378.732 320.921 379.025 320.983C379.32 321.043 379.596 321.154 379.852 321.315C380.11 321.477 380.322 321.709 380.486 322.01C380.651 322.308 380.734 322.696 380.734 323.173V327.52H379.489V326.625H379.438C379.356 326.79 379.232 326.952 379.067 327.111C378.903 327.27 378.691 327.402 378.433 327.507C378.174 327.612 377.864 327.665 377.504 327.665ZM377.781 326.642C378.133 326.642 378.434 326.573 378.684 326.433C378.937 326.294 379.129 326.112 379.259 325.888C379.393 325.661 379.46 325.418 379.46 325.159V324.315C379.414 324.361 379.326 324.404 379.195 324.443C379.067 324.48 378.921 324.513 378.756 324.541C378.592 324.567 378.431 324.591 378.275 324.614C378.119 324.634 377.988 324.651 377.883 324.665C377.636 324.696 377.41 324.749 377.205 324.823C377.004 324.896 376.842 325.003 376.719 325.142C376.6 325.279 376.54 325.46 376.54 325.688C376.54 326.003 376.657 326.242 376.89 326.404C377.123 326.563 377.42 326.642 377.781 326.642ZM385.175 330.111C384.655 330.111 384.208 330.043 383.833 329.906C383.461 329.77 383.157 329.59 382.921 329.365C382.685 329.141 382.509 328.895 382.392 328.628L383.488 328.176C383.564 328.301 383.667 328.433 383.794 328.573C383.925 328.715 384.101 328.835 384.323 328.935C384.547 329.034 384.836 329.084 385.188 329.084C385.671 329.084 386.07 328.966 386.385 328.73C386.701 328.497 386.858 328.125 386.858 327.614V326.327H386.777C386.701 326.466 386.59 326.621 386.445 326.791C386.303 326.962 386.107 327.11 385.857 327.235C385.607 327.36 385.282 327.422 384.881 327.422C384.364 327.422 383.898 327.301 383.483 327.06C383.071 326.815 382.745 326.456 382.503 325.982C382.265 325.504 382.145 324.918 382.145 324.222C382.145 323.526 382.263 322.929 382.499 322.432C382.738 321.935 383.064 321.554 383.479 321.29C383.894 321.023 384.364 320.889 384.89 320.889C385.296 320.889 385.624 320.958 385.874 321.094C386.124 321.227 386.319 321.384 386.458 321.563C386.6 321.742 386.709 321.899 386.786 322.036H386.88V320.975H388.128V327.665C388.128 328.227 387.997 328.689 387.736 329.05C387.475 329.411 387.121 329.678 386.675 329.851C386.232 330.024 385.732 330.111 385.175 330.111ZM385.162 326.365C385.529 326.365 385.838 326.28 386.091 326.11C386.347 325.936 386.54 325.689 386.671 325.368C386.804 325.044 386.871 324.656 386.871 324.205C386.871 323.764 386.806 323.377 386.675 323.041C386.544 322.706 386.353 322.445 386.1 322.257C385.847 322.067 385.534 321.972 385.162 321.972C384.779 321.972 384.459 322.071 384.203 322.27C383.948 322.466 383.755 322.733 383.624 323.071C383.496 323.409 383.432 323.787 383.432 324.205C383.432 324.634 383.497 325.01 383.628 325.334C383.759 325.658 383.952 325.911 384.208 326.092C384.466 326.274 384.784 326.365 385.162 326.365ZM389.837 327.52V320.975H391.111V327.52H389.837ZM390.48 319.965C390.259 319.965 390.069 319.891 389.909 319.743C389.753 319.592 389.675 319.413 389.675 319.206C389.675 318.996 389.753 318.817 389.909 318.669C390.069 318.519 390.259 318.443 390.48 318.443C390.702 318.443 390.891 318.519 391.047 318.669C391.206 318.817 391.286 318.996 391.286 319.206C391.286 319.413 391.206 319.592 391.047 319.743C390.891 319.891 390.702 319.965 390.48 319.965ZM394.099 323.634V327.52H392.825V320.975H394.048V322.04H394.129C394.28 321.693 394.516 321.415 394.837 321.205C395.16 320.994 395.568 320.889 396.06 320.889C396.506 320.889 396.896 320.983 397.232 321.171C397.567 321.355 397.827 321.631 398.011 321.997C398.196 322.364 398.288 322.817 398.288 323.357V327.52H397.014V323.51C397.014 323.036 396.891 322.665 396.643 322.398C396.396 322.128 396.057 321.993 395.625 321.993C395.33 321.993 395.067 322.057 394.837 322.185C394.609 322.313 394.429 322.5 394.295 322.747C394.165 322.992 394.099 323.287 394.099 323.634ZM402.741 330.111C402.222 330.111 401.774 330.043 401.399 329.906C401.027 329.77 400.723 329.59 400.487 329.365C400.251 329.141 400.075 328.895 399.959 328.628L401.054 328.176C401.131 328.301 401.233 328.433 401.361 328.573C401.491 328.715 401.668 328.835 401.889 328.935C402.114 329.034 402.402 329.084 402.754 329.084C403.237 329.084 403.636 328.966 403.952 328.73C404.267 328.497 404.425 328.125 404.425 327.614V326.327H404.344C404.267 326.466 404.156 326.621 404.011 326.791C403.869 326.962 403.673 327.11 403.423 327.235C403.173 327.36 402.848 327.422 402.447 327.422C401.93 327.422 401.464 327.301 401.05 327.06C400.638 326.815 400.311 326.456 400.07 325.982C399.831 325.504 399.712 324.918 399.712 324.222C399.712 323.526 399.83 322.929 400.065 322.432C400.304 321.935 400.631 321.554 401.045 321.29C401.46 321.023 401.93 320.889 402.456 320.889C402.862 320.889 403.19 320.958 403.44 321.094C403.69 321.227 403.885 321.384 404.024 321.563C404.166 321.742 404.276 321.899 404.352 322.036H404.446V320.975H405.695V327.665C405.695 328.227 405.564 328.689 405.303 329.05C405.041 329.411 404.687 329.678 404.241 329.851C403.798 330.024 403.298 330.111 402.741 330.111ZM402.729 326.365C403.095 326.365 403.405 326.28 403.658 326.11C403.913 325.936 404.107 325.689 404.237 325.368C404.371 325.044 404.437 324.656 404.437 324.205C404.437 323.764 404.372 323.377 404.241 323.041C404.111 322.706 403.919 322.445 403.666 322.257C403.413 322.067 403.101 321.972 402.729 321.972C402.345 321.972 402.026 322.071 401.77 322.27C401.514 322.466 401.321 322.733 401.19 323.071C401.062 323.409 400.999 323.787 400.999 324.205C400.999 324.634 401.064 325.01 401.195 325.334C401.325 325.658 401.518 325.911 401.774 326.092C402.033 326.274 402.351 326.365 402.729 326.365ZM411.419 327.52H410.021L413.162 318.793H414.683L417.823 327.52H416.426L413.958 320.378H413.89L411.419 327.52ZM411.653 324.102H416.187V325.21H411.653V324.102ZM418.982 329.975V320.975H420.226V322.036H420.332C420.406 321.899 420.513 321.742 420.652 321.563C420.791 321.384 420.984 321.227 421.232 321.094C421.479 320.958 421.805 320.889 422.212 320.889C422.74 320.889 423.212 321.023 423.626 321.29C424.041 321.557 424.366 321.942 424.602 322.445C424.841 322.948 424.96 323.553 424.96 324.26C424.96 324.967 424.842 325.574 424.607 326.08C424.371 326.583 424.047 326.97 423.635 327.243C423.223 327.513 422.753 327.648 422.224 327.648C421.827 327.648 421.501 327.581 421.249 327.448C420.999 327.314 420.803 327.158 420.66 326.979C420.518 326.8 420.409 326.641 420.332 326.502H420.256V329.975H418.982ZM420.23 324.247C420.23 324.708 420.297 325.111 420.43 325.458C420.564 325.804 420.757 326.075 421.01 326.271C421.263 326.465 421.572 326.561 421.939 326.561C422.32 326.561 422.638 326.46 422.893 326.259C423.149 326.054 423.342 325.777 423.473 325.428C423.607 325.078 423.673 324.685 423.673 324.247C423.673 323.815 423.608 323.428 423.477 323.084C423.349 322.74 423.156 322.469 422.898 322.27C422.642 322.071 422.322 321.972 421.939 321.972C421.57 321.972 421.257 322.067 421.001 322.257C420.749 322.448 420.557 322.713 420.426 323.054C420.295 323.395 420.23 323.793 420.23 324.247ZM426.388 329.975V320.975H427.632V322.036H427.739C427.812 321.899 427.919 321.742 428.058 321.563C428.197 321.384 428.391 321.227 428.638 321.094C428.885 320.958 429.212 320.889 429.618 320.889C430.146 320.889 430.618 321.023 431.033 321.29C431.447 321.557 431.773 321.942 432.009 322.445C432.247 322.948 432.366 323.553 432.366 324.26C432.366 324.967 432.249 325.574 432.013 326.08C431.777 326.583 431.453 326.97 431.041 327.243C430.629 327.513 430.159 327.648 429.631 327.648C429.233 327.648 428.908 327.581 428.655 327.448C428.405 327.314 428.209 327.158 428.067 326.979C427.925 326.8 427.815 326.641 427.739 326.502H427.662V329.975H426.388ZM427.636 324.247C427.636 324.708 427.703 325.111 427.837 325.458C427.97 325.804 428.163 326.075 428.416 326.271C428.669 326.465 428.979 326.561 429.345 326.561C429.726 326.561 430.044 326.46 430.3 326.259C430.555 326.054 430.749 325.777 430.879 325.428C431.013 325.078 431.08 324.685 431.08 324.247C431.08 323.815 431.014 323.428 430.884 323.084C430.756 322.74 430.562 322.469 430.304 322.27C430.048 322.071 429.729 321.972 429.345 321.972C428.976 321.972 428.663 322.067 428.408 322.257C428.155 322.448 427.963 322.713 427.832 323.054C427.702 323.395 427.636 323.793 427.636 324.247Z" fill="#2E2E2E"/>
<path d="M507.6 307V301" stroke="#2E2E2E"/>
<path d="M463.664 327.52V318.793H466.775C467.454 318.793 468.017 318.916 468.463 319.163C468.909 319.411 469.242 319.749 469.464 320.178C469.686 320.604 469.796 321.084 469.796 321.618C469.796 322.155 469.684 322.638 469.46 323.067C469.238 323.493 468.903 323.831 468.454 324.081C468.008 324.328 467.447 324.452 466.771 324.452H464.632V323.335H466.651C467.08 323.335 467.428 323.261 467.696 323.114C467.963 322.963 468.159 322.759 468.284 322.5C468.409 322.242 468.471 321.948 468.471 321.618C468.471 321.288 468.409 320.996 468.284 320.74C468.159 320.485 467.961 320.284 467.691 320.139C467.424 319.994 467.072 319.922 466.634 319.922H464.981V327.52H463.664ZM473.084 327.665C472.669 327.665 472.294 327.588 471.959 327.435C471.624 327.279 471.358 327.053 471.162 326.757C470.969 326.462 470.872 326.1 470.872 325.671C470.872 325.301 470.943 324.997 471.085 324.759C471.227 324.52 471.419 324.331 471.661 324.192C471.902 324.053 472.172 323.948 472.47 323.877C472.769 323.806 473.073 323.752 473.382 323.715C473.774 323.669 474.093 323.632 474.337 323.604C474.581 323.573 474.759 323.523 474.87 323.455C474.98 323.386 475.036 323.276 475.036 323.122V323.092C475.036 322.72 474.931 322.432 474.72 322.227C474.513 322.023 474.203 321.921 473.791 321.921C473.362 321.921 473.024 322.016 472.777 322.206C472.533 322.394 472.364 322.602 472.27 322.833L471.073 322.56C471.215 322.162 471.422 321.841 471.695 321.597C471.97 321.35 472.287 321.171 472.645 321.06C473.003 320.946 473.379 320.889 473.774 320.889C474.036 320.889 474.313 320.921 474.605 320.983C474.901 321.043 475.176 321.154 475.432 321.315C475.691 321.477 475.902 321.709 476.067 322.01C476.232 322.308 476.314 322.696 476.314 323.173V327.52H475.07V326.625H475.019C474.936 326.79 474.813 326.952 474.648 327.111C474.483 327.27 474.271 327.402 474.013 327.507C473.754 327.612 473.445 327.665 473.084 327.665ZM473.361 326.642C473.713 326.642 474.014 326.573 474.264 326.433C474.517 326.294 474.709 326.112 474.84 325.888C474.973 325.661 475.04 325.418 475.04 325.159V324.315C474.995 324.361 474.906 324.404 474.776 324.443C474.648 324.48 474.502 324.513 474.337 324.541C474.172 324.567 474.012 324.591 473.855 324.614C473.699 324.634 473.568 324.651 473.463 324.665C473.216 324.696 472.99 324.749 472.786 324.823C472.584 324.896 472.422 325.003 472.3 325.142C472.181 325.279 472.121 325.46 472.121 325.688C472.121 326.003 472.237 326.242 472.47 326.404C472.703 326.563 473 326.642 473.361 326.642ZM478.011 329.975V320.975H479.256V322.036H479.362C479.436 321.899 479.542 321.742 479.682 321.563C479.821 321.384 480.014 321.227 480.261 321.094C480.508 320.958 480.835 320.889 481.241 320.889C481.77 320.889 482.241 321.023 482.656 321.29C483.071 321.557 483.396 321.942 483.632 322.445C483.871 322.948 483.99 323.553 483.99 324.26C483.99 324.967 483.872 325.574 483.636 326.08C483.4 326.583 483.077 326.97 482.665 327.243C482.253 327.513 481.783 327.648 481.254 327.648C480.856 327.648 480.531 327.581 480.278 327.448C480.028 327.314 479.832 327.158 479.69 326.979C479.548 326.8 479.439 326.641 479.362 326.502H479.285V329.975H478.011ZM479.26 324.247C479.26 324.708 479.327 325.111 479.46 325.458C479.594 325.804 479.787 326.075 480.04 326.271C480.292 326.465 480.602 326.561 480.969 326.561C481.349 326.561 481.667 326.46 481.923 326.259C482.179 326.054 482.372 325.777 482.503 325.428C482.636 325.078 482.703 324.685 482.703 324.247C482.703 323.815 482.638 323.428 482.507 323.084C482.379 322.74 482.186 322.469 481.927 322.27C481.672 322.071 481.352 321.972 480.969 321.972C480.599 321.972 480.287 322.067 480.031 322.257C479.778 322.448 479.586 322.713 479.456 323.054C479.325 323.395 479.26 323.793 479.26 324.247ZM488.238 327.652C487.594 327.652 487.038 327.514 486.572 327.239C486.109 326.96 485.751 326.57 485.498 326.067C485.248 325.561 485.123 324.969 485.123 324.29C485.123 323.619 485.248 323.029 485.498 322.517C485.751 322.006 486.104 321.607 486.555 321.32C487.01 321.033 487.541 320.889 488.149 320.889C488.518 320.889 488.876 320.95 489.223 321.073C489.569 321.195 489.881 321.386 490.156 321.648C490.432 321.909 490.649 322.249 490.808 322.666C490.967 323.081 491.047 323.585 491.047 324.179V324.631H485.844V323.676H489.798C489.798 323.341 489.73 323.044 489.594 322.786C489.457 322.524 489.265 322.318 489.018 322.168C488.774 322.017 488.487 321.942 488.158 321.942C487.8 321.942 487.487 322.03 487.22 322.206C486.956 322.379 486.751 322.607 486.606 322.888C486.464 323.166 486.393 323.469 486.393 323.796V324.541C486.393 324.979 486.47 325.351 486.623 325.658C486.78 325.965 486.997 326.199 487.275 326.361C487.554 326.52 487.879 326.6 488.251 326.6C488.493 326.6 488.713 326.565 488.912 326.497C489.111 326.426 489.283 326.321 489.427 326.182C489.572 326.043 489.683 325.871 489.76 325.666L490.966 325.884C490.869 326.239 490.696 326.55 490.446 326.817C490.199 327.081 489.888 327.287 489.513 327.435C489.14 327.58 488.716 327.652 488.238 327.652ZM492.46 327.52V320.975H493.692V322.014H493.76C493.879 321.662 494.09 321.385 494.391 321.183C494.695 320.979 495.039 320.877 495.422 320.877C495.502 320.877 495.595 320.879 495.703 320.885C495.814 320.891 495.901 320.898 495.963 320.906V322.125C495.912 322.111 495.821 322.095 495.691 322.078C495.56 322.058 495.429 322.048 495.298 322.048C494.997 322.048 494.729 322.112 494.493 322.24C494.26 322.365 494.075 322.54 493.939 322.764C493.803 322.986 493.735 323.239 493.735 323.523V327.52H492.46ZM501.661 318.793V327.52H500.344V318.793H501.661ZM504.75 323.634V327.52H503.476V320.975H504.699V322.04H504.78C504.931 321.693 505.166 321.415 505.487 321.205C505.811 320.994 506.219 320.889 506.71 320.889C507.156 320.889 507.547 320.983 507.882 321.171C508.218 321.355 508.477 321.631 508.662 321.997C508.847 322.364 508.939 322.817 508.939 323.357V327.52H507.665V323.51C507.665 323.036 507.541 322.665 507.294 322.398C507.047 322.128 506.708 321.993 506.276 321.993C505.98 321.993 505.718 322.057 505.487 322.185C505.26 322.313 505.08 322.5 504.946 322.747C504.816 322.992 504.75 323.287 504.75 323.634ZM516.013 320.975L513.639 327.52H512.276L509.898 320.975H511.266L512.923 326.011H512.992L514.645 320.975H516.013ZM517.21 327.52V320.975H518.485V327.52H517.21ZM517.854 319.965C517.632 319.965 517.442 319.891 517.283 319.743C517.127 319.592 517.048 319.413 517.048 319.206C517.048 318.996 517.127 318.817 517.283 318.669C517.442 318.519 517.632 318.443 517.854 318.443C518.075 318.443 518.264 318.519 518.421 318.669C518.58 318.817 518.659 318.996 518.659 319.206C518.659 319.413 518.58 319.592 518.421 319.743C518.264 319.891 518.075 319.965 517.854 319.965ZM523.254 320.975V321.997H519.679V320.975H523.254ZM520.638 319.406H521.912V325.598C521.912 325.845 521.949 326.031 522.023 326.156C522.096 326.279 522.192 326.362 522.308 326.408C522.427 326.45 522.557 326.472 522.696 326.472C522.798 326.472 522.888 326.465 522.964 326.45C523.041 326.436 523.101 326.425 523.143 326.416L523.373 327.469C523.3 327.497 523.194 327.526 523.058 327.554C522.922 327.585 522.751 327.602 522.547 327.605C522.211 327.611 521.899 327.551 521.609 327.426C521.319 327.301 521.085 327.108 520.906 326.847C520.727 326.585 520.638 326.257 520.638 325.862V319.406ZM526.568 327.665C526.154 327.665 525.779 327.588 525.443 327.435C525.108 327.279 524.843 327.053 524.646 326.757C524.453 326.462 524.357 326.1 524.357 325.671C524.357 325.301 524.428 324.997 524.57 324.759C524.712 324.52 524.904 324.331 525.145 324.192C525.387 324.053 525.656 323.948 525.955 323.877C526.253 323.806 526.557 323.752 526.867 323.715C527.259 323.669 527.577 323.632 527.821 323.604C528.066 323.573 528.243 323.523 528.354 323.455C528.465 323.386 528.52 323.276 528.52 323.122V323.092C528.52 322.72 528.415 322.432 528.205 322.227C527.997 322.023 527.688 321.921 527.276 321.921C526.847 321.921 526.509 322.016 526.262 322.206C526.017 322.394 525.848 322.602 525.754 322.833L524.557 322.56C524.699 322.162 524.906 321.841 525.179 321.597C525.455 321.35 525.771 321.171 526.129 321.06C526.487 320.946 526.864 320.889 527.259 320.889C527.52 320.889 527.797 320.921 528.09 320.983C528.385 321.043 528.661 321.154 528.916 321.315C529.175 321.477 529.387 321.709 529.551 322.01C529.716 322.308 529.798 322.696 529.798 323.173V327.52H528.554V326.625H528.503C528.421 326.79 528.297 326.952 528.132 327.111C527.968 327.27 527.756 327.402 527.497 327.507C527.239 327.612 526.929 327.665 526.568 327.665ZM526.845 326.642C527.198 326.642 527.499 326.573 527.749 326.433C528.002 326.294 528.193 326.112 528.324 325.888C528.458 325.661 528.524 325.418 528.524 325.159V324.315C528.479 324.361 528.391 324.404 528.26 324.443C528.132 324.48 527.986 324.513 527.821 324.541C527.656 324.567 527.496 324.591 527.34 324.614C527.183 324.634 527.053 324.651 526.948 324.665C526.7 324.696 526.475 324.749 526.27 324.823C526.068 324.896 525.906 325.003 525.784 325.142C525.665 325.279 525.605 325.46 525.605 325.688C525.605 326.003 525.722 326.242 525.955 326.404C526.188 326.563 526.485 326.642 526.845 326.642ZM534.551 320.975V321.997H530.976V320.975H534.551ZM531.934 319.406H533.209V325.598C533.209 325.845 533.246 326.031 533.319 326.156C533.393 326.279 533.488 326.362 533.605 326.408C533.724 326.45 533.854 326.472 533.993 326.472C534.095 326.472 534.184 326.465 534.261 326.45C534.338 326.436 534.398 326.425 534.44 326.416L534.67 327.469C534.596 327.497 534.491 327.526 534.355 327.554C534.219 327.585 534.048 327.602 533.844 327.605C533.508 327.611 533.196 327.551 532.906 327.426C532.616 327.301 532.382 327.108 532.203 326.847C532.024 326.585 531.934 326.257 531.934 325.862V319.406ZM535.96 327.52V320.975H537.235V327.52H535.96ZM536.604 319.965C536.382 319.965 536.192 319.891 536.033 319.743C535.877 319.592 535.798 319.413 535.798 319.206C535.798 318.996 535.877 318.817 536.033 318.669C536.192 318.519 536.382 318.443 536.604 318.443C536.825 318.443 537.014 318.519 537.171 318.669C537.33 318.817 537.409 318.996 537.409 319.206C537.409 319.413 537.33 319.592 537.171 319.743C537.014 319.891 536.825 319.965 536.604 319.965ZM541.706 327.652C541.092 327.652 540.557 327.511 540.099 327.23C539.642 326.949 539.287 326.556 539.034 326.05C538.781 325.544 538.655 324.953 538.655 324.277C538.655 323.598 538.781 323.004 539.034 322.496C539.287 321.987 539.642 321.592 540.099 321.311C540.557 321.03 541.092 320.889 541.706 320.889C542.319 320.889 542.855 321.03 543.312 321.311C543.77 321.592 544.125 321.987 544.378 322.496C544.631 323.004 544.757 323.598 544.757 324.277C544.757 324.953 544.631 325.544 544.378 326.05C544.125 326.556 543.77 326.949 543.312 327.23C542.855 327.511 542.319 327.652 541.706 327.652ZM541.71 326.583C542.108 326.583 542.437 326.477 542.699 326.267C542.96 326.057 543.153 325.777 543.278 325.428C543.406 325.078 543.47 324.693 543.47 324.273C543.47 323.855 543.406 323.472 543.278 323.122C543.153 322.77 542.96 322.487 542.699 322.274C542.437 322.061 542.108 321.955 541.71 321.955C541.309 321.955 540.977 322.061 540.713 322.274C540.452 322.487 540.257 322.77 540.129 323.122C540.004 323.472 539.942 323.855 539.942 324.273C539.942 324.693 540.004 325.078 540.129 325.428C540.257 325.777 540.452 326.057 540.713 326.267C540.977 326.477 541.309 326.583 541.71 326.583ZM547.453 323.634V327.52H546.179V320.975H547.402V322.04H547.483C547.634 321.693 547.87 321.415 548.191 321.205C548.514 320.994 548.922 320.889 549.414 320.889C549.86 320.889 550.25 320.983 550.585 321.171C550.921 321.355 551.181 321.631 551.365 321.997C551.55 322.364 551.642 322.817 551.642 323.357V327.52H550.368V323.51C550.368 323.036 550.245 322.665 549.997 322.398C549.75 322.128 549.411 321.993 548.979 321.993C548.683 321.993 548.421 322.057 548.191 322.185C547.963 322.313 547.783 322.5 547.649 322.747C547.519 322.992 547.453 323.287 547.453 323.634Z" fill="#2E2E2E"/>
<path d="M627.2 307V301" stroke="#2E2E2E"/>
<path d="M567.794 323.156C567.794 324.088 567.624 324.889 567.283 325.56C566.942 326.227 566.475 326.742 565.881 327.102C565.29 327.46 564.618 327.639 563.865 327.639C563.11 327.639 562.435 327.46 561.841 327.102C561.25 326.742 560.785 326.226 560.444 325.556C560.103 324.885 559.932 324.085 559.932 323.156C559.932 322.225 560.103 321.425 560.444 320.757C560.785 320.087 561.25 319.573 561.841 319.215C562.435 318.854 563.11 318.673 563.865 318.673C564.618 318.673 565.29 318.854 565.881 319.215C566.475 319.573 566.942 320.087 567.283 320.757C567.624 321.425 567.794 322.225 567.794 323.156ZM566.49 323.156C566.49 322.446 566.375 321.848 566.145 321.362C565.918 320.874 565.606 320.504 565.208 320.254C564.813 320.002 564.365 319.875 563.865 319.875C563.363 319.875 562.914 320.002 562.519 320.254C562.124 320.504 561.812 320.874 561.581 321.362C561.354 321.848 561.24 322.446 561.24 323.156C561.24 323.867 561.354 324.466 561.581 324.955C561.812 325.44 562.124 325.81 562.519 326.063C562.914 326.313 563.363 326.438 563.865 326.438C564.365 326.438 564.813 326.313 565.208 326.063C565.606 325.81 565.918 325.44 566.145 324.955C566.375 324.466 566.49 323.867 566.49 323.156ZM572.389 320.975V321.997H568.814V320.975H572.389ZM569.773 319.406H571.047V325.598C571.047 325.845 571.084 326.031 571.158 326.156C571.232 326.279 571.327 326.362 571.443 326.408C571.563 326.45 571.692 326.472 571.831 326.472C571.933 326.472 572.023 326.465 572.1 326.45C572.176 326.436 572.236 326.425 572.278 326.416L572.509 327.469C572.435 327.497 572.33 327.526 572.193 327.554C572.057 327.585 571.886 327.602 571.682 327.605C571.347 327.611 571.034 327.551 570.744 327.426C570.455 327.301 570.22 327.108 570.041 326.847C569.862 326.585 569.773 326.257 569.773 325.862V319.406ZM575.214 323.634V327.52H573.939V318.793H575.196V322.04H575.277C575.431 321.688 575.665 321.408 575.981 321.2C576.296 320.993 576.708 320.889 577.216 320.889C577.665 320.889 578.057 320.982 578.392 321.166C578.731 321.351 578.992 321.627 579.177 321.993C579.364 322.357 579.458 322.811 579.458 323.357V327.52H578.184V323.51C578.184 323.03 578.06 322.658 577.813 322.394C577.566 322.127 577.222 321.993 576.782 321.993C576.481 321.993 576.211 322.057 575.972 322.185C575.736 322.313 575.55 322.5 575.414 322.747C575.28 322.992 575.214 323.287 575.214 323.634ZM583.979 327.652C583.334 327.652 582.779 327.514 582.313 327.239C581.85 326.96 581.492 326.57 581.239 326.067C580.989 325.561 580.864 324.969 580.864 324.29C580.864 323.619 580.989 323.029 581.239 322.517C581.492 322.006 581.844 321.607 582.296 321.32C582.75 321.033 583.282 320.889 583.89 320.889C584.259 320.889 584.617 320.95 584.964 321.073C585.31 321.195 585.621 321.386 585.897 321.648C586.172 321.909 586.39 322.249 586.549 322.666C586.708 323.081 586.787 323.585 586.787 324.179V324.631H581.584V323.676H585.539C585.539 323.341 585.471 323.044 585.334 322.786C585.198 322.524 585.006 322.318 584.759 322.168C584.515 322.017 584.228 321.942 583.898 321.942C583.54 321.942 583.228 322.03 582.961 322.206C582.696 322.379 582.492 322.607 582.347 322.888C582.205 323.166 582.134 323.469 582.134 323.796V324.541C582.134 324.979 582.211 325.351 582.364 325.658C582.52 325.965 582.738 326.199 583.016 326.361C583.294 326.52 583.62 326.6 583.992 326.6C584.233 326.6 584.454 326.565 584.652 326.497C584.851 326.426 585.023 326.321 585.168 326.182C585.313 326.043 585.424 325.871 585.5 325.666L586.706 325.884C586.61 326.239 586.437 326.55 586.187 326.817C585.939 327.081 585.628 327.287 585.253 327.435C584.881 327.58 584.456 327.652 583.979 327.652ZM588.201 327.52V320.975H589.433V322.014H589.501C589.62 321.662 589.83 321.385 590.131 321.183C590.435 320.979 590.779 320.877 591.163 320.877C591.242 320.877 591.336 320.879 591.444 320.885C591.555 320.891 591.641 320.898 591.704 320.906V322.125C591.653 322.111 591.562 322.095 591.431 322.078C591.301 322.058 591.17 322.048 591.039 322.048C590.738 322.048 590.47 322.112 590.234 322.24C590.001 322.365 589.816 322.54 589.68 322.764C589.543 322.986 589.475 323.239 589.475 323.523V327.52H588.201ZM596.353 323.156C596.353 322.088 596.494 321.105 596.775 320.208C597.056 319.31 597.467 318.482 598.006 317.723H599.174C598.964 318.004 598.768 318.35 598.586 318.759C598.404 319.168 598.245 319.617 598.109 320.105C597.972 320.591 597.866 321.095 597.789 321.618C597.712 322.138 597.674 322.651 597.674 323.156C597.674 323.833 597.741 324.517 597.874 325.21C598.008 325.904 598.188 326.547 598.416 327.141C598.643 327.735 598.896 328.219 599.174 328.594H598.006C597.467 327.835 597.056 327.007 596.775 326.11C596.494 325.212 596.353 324.227 596.353 323.156ZM600.62 318.793H602.218L604.996 325.577H605.098L607.877 318.793H609.475V327.52H608.222V321.205H608.141L605.567 327.507H604.527L601.954 321.2H601.873V327.52H600.62V318.793ZM611.287 327.52V320.975H612.561V327.52H611.287ZM611.93 319.965C611.709 319.965 611.519 319.891 611.359 319.743C611.203 319.592 611.125 319.413 611.125 319.206C611.125 318.996 611.203 318.817 611.359 318.669C611.519 318.519 611.709 318.443 611.93 318.443C612.152 318.443 612.341 318.519 612.497 318.669C612.656 318.817 612.736 318.996 612.736 319.206C612.736 319.413 612.656 319.592 612.497 319.743C612.341 319.891 612.152 319.965 611.93 319.965ZM617.032 327.652C616.399 327.652 615.853 327.509 615.396 327.222C614.941 326.932 614.592 326.533 614.348 326.024C614.103 325.516 613.981 324.933 613.981 324.277C613.981 323.612 614.106 323.026 614.356 322.517C614.606 322.006 614.959 321.607 615.413 321.32C615.868 321.033 616.403 320.889 617.02 320.889C617.517 320.889 617.96 320.982 618.349 321.166C618.738 321.348 619.052 321.604 619.291 321.933C619.532 322.263 619.676 322.648 619.721 323.088H618.481C618.413 322.781 618.257 322.517 618.013 322.296C617.771 322.074 617.447 321.963 617.041 321.963C616.686 321.963 616.375 322.057 616.108 322.244C615.843 322.429 615.638 322.693 615.49 323.037C615.342 323.378 615.268 323.781 615.268 324.247C615.268 324.725 615.341 325.136 615.486 325.483C615.63 325.83 615.835 326.098 616.099 326.288C616.366 326.479 616.68 326.574 617.041 326.574C617.282 326.574 617.501 326.53 617.697 326.442C617.896 326.351 618.062 326.222 618.196 326.054C618.332 325.886 618.427 325.685 618.481 325.449H619.721C619.676 325.872 619.538 326.25 619.308 326.583C619.078 326.915 618.77 327.176 618.383 327.367C618 327.557 617.549 327.652 617.032 327.652ZM621.084 327.52V320.975H622.315V322.014H622.384C622.503 321.662 622.713 321.385 623.014 321.183C623.318 320.979 623.662 320.877 624.046 320.877C624.125 320.877 624.219 320.879 624.327 320.885C624.438 320.891 624.524 320.898 624.587 320.906V322.125C624.536 322.111 624.445 322.095 624.314 322.078C624.183 322.058 624.053 322.048 623.922 322.048C623.621 322.048 623.352 322.112 623.117 322.24C622.884 322.365 622.699 322.54 622.563 322.764C622.426 322.986 622.358 323.239 622.358 323.523V327.52H621.084ZM628.212 327.652C627.598 327.652 627.063 327.511 626.606 327.23C626.148 326.949 625.793 326.556 625.54 326.05C625.287 325.544 625.161 324.953 625.161 324.277C625.161 323.598 625.287 323.004 625.54 322.496C625.793 321.987 626.148 321.592 626.606 321.311C627.063 321.03 627.598 320.889 628.212 320.889C628.826 320.889 629.361 321.03 629.819 321.311C630.276 321.592 630.631 321.987 630.884 322.496C631.137 323.004 631.263 323.598 631.263 324.277C631.263 324.953 631.137 325.544 630.884 326.05C630.631 326.556 630.276 326.949 629.819 327.23C629.361 327.511 628.826 327.652 628.212 327.652ZM628.216 326.583C628.614 326.583 628.944 326.477 629.205 326.267C629.466 326.057 629.66 325.777 629.785 325.428C629.912 325.078 629.976 324.693 629.976 324.273C629.976 323.855 629.912 323.472 629.785 323.122C629.66 322.77 629.466 322.487 629.205 322.274C628.944 322.061 628.614 321.955 628.216 321.955C627.816 321.955 627.483 322.061 627.219 322.274C626.958 322.487 626.763 322.77 626.635 323.122C626.51 323.472 626.448 323.855 626.448 324.273C626.448 324.693 626.51 325.078 626.635 325.428C626.763 325.777 626.958 326.057 627.219 326.267C627.483 326.477 627.816 326.583 628.216 326.583ZM637.59 322.573L636.435 322.777C636.387 322.629 636.31 322.489 636.205 322.355C636.103 322.222 635.964 322.112 635.788 322.027C635.612 321.942 635.391 321.899 635.127 321.899C634.766 321.899 634.465 321.98 634.224 322.142C633.982 322.301 633.862 322.507 633.862 322.76C633.862 322.979 633.943 323.155 634.104 323.288C634.266 323.422 634.528 323.531 634.889 323.617L635.928 323.855C636.531 323.994 636.979 324.209 637.275 324.499C637.57 324.788 637.718 325.165 637.718 325.628C637.718 326.02 637.604 326.369 637.377 326.676C637.153 326.98 636.839 327.219 636.435 327.392C636.035 327.565 635.57 327.652 635.042 327.652C634.309 327.652 633.711 327.496 633.248 327.183C632.785 326.868 632.501 326.421 632.396 325.841L633.627 325.654C633.704 325.975 633.862 326.217 634.1 326.382C634.339 326.544 634.65 326.625 635.033 326.625C635.451 326.625 635.785 326.538 636.035 326.365C636.285 326.189 636.41 325.975 636.41 325.722C636.41 325.517 636.333 325.345 636.18 325.206C636.029 325.067 635.798 324.962 635.485 324.891L634.377 324.648C633.766 324.509 633.315 324.287 633.022 323.983C632.732 323.679 632.587 323.294 632.587 322.828C632.587 322.442 632.695 322.104 632.911 321.814C633.127 321.524 633.426 321.298 633.806 321.136C634.187 320.972 634.623 320.889 635.114 320.889C635.822 320.889 636.379 321.043 636.785 321.35C637.191 321.654 637.46 322.061 637.59 322.573ZM641.876 327.652C641.263 327.652 640.727 327.511 640.27 327.23C639.812 326.949 639.457 326.556 639.204 326.05C638.951 325.544 638.825 324.953 638.825 324.277C638.825 323.598 638.951 323.004 639.204 322.496C639.457 321.987 639.812 321.592 640.27 321.311C640.727 321.03 641.263 320.889 641.876 320.889C642.49 320.889 643.025 321.03 643.483 321.311C643.94 321.592 644.295 321.987 644.548 322.496C644.801 323.004 644.927 323.598 644.927 324.277C644.927 324.953 644.801 325.544 644.548 326.05C644.295 326.556 643.94 326.949 643.483 327.23C643.025 327.511 642.49 327.652 641.876 327.652ZM641.88 326.583C642.278 326.583 642.608 326.477 642.869 326.267C643.13 326.057 643.324 325.777 643.449 325.428C643.576 325.078 643.64 324.693 643.64 324.273C643.64 323.855 643.576 323.472 643.449 323.122C643.324 322.77 643.13 322.487 642.869 322.274C642.608 322.061 642.278 321.955 641.88 321.955C641.48 321.955 641.147 322.061 640.883 322.274C640.622 322.487 640.427 322.77 640.299 323.122C640.174 323.472 640.112 323.855 640.112 324.273C640.112 324.693 640.174 325.078 640.299 325.428C640.427 325.777 640.622 326.057 640.883 326.267C641.147 326.477 641.48 326.583 641.88 326.583ZM649.465 320.975V321.997H645.766V320.975H649.465ZM646.78 327.52V320.216C646.78 319.807 646.869 319.467 647.048 319.198C647.227 318.925 647.465 318.722 647.76 318.588C648.055 318.452 648.377 318.384 648.723 318.384C648.979 318.384 649.198 318.405 649.379 318.448C649.561 318.487 649.696 318.524 649.784 318.558L649.486 319.59C649.426 319.573 649.35 319.553 649.256 319.53C649.162 319.504 649.048 319.492 648.915 319.492C648.605 319.492 648.384 319.568 648.25 319.722C648.119 319.875 648.054 320.097 648.054 320.386V327.52H646.78ZM653.835 320.975V321.997H650.259V320.975H653.835ZM651.218 319.406H652.492V325.598C652.492 325.845 652.529 326.031 652.603 326.156C652.677 326.279 652.772 326.362 652.889 326.408C653.008 326.45 653.137 326.472 653.276 326.472C653.379 326.472 653.468 326.465 653.545 326.45C653.622 326.436 653.681 326.425 653.724 326.416L653.954 327.469C653.88 327.497 653.775 327.526 653.639 327.554C653.502 327.585 653.332 327.602 653.127 327.605C652.792 327.611 652.479 327.551 652.19 327.426C651.9 327.301 651.666 327.108 651.487 326.847C651.308 326.585 651.218 326.257 651.218 325.862V319.406ZM661.535 320.975V321.997H657.836V320.975H661.535ZM658.85 327.52V320.216C658.85 319.807 658.94 319.467 659.119 319.198C659.298 318.925 659.535 318.722 659.83 318.588C660.126 318.452 660.447 318.384 660.793 318.384C661.049 318.384 661.268 318.405 661.45 318.448C661.631 318.487 661.766 318.524 661.854 318.558L661.556 319.59C661.497 319.573 661.42 319.553 661.326 319.53C661.232 319.504 661.119 319.492 660.985 319.492C660.676 319.492 660.454 319.568 660.32 319.722C660.19 319.875 660.124 320.097 660.124 320.386V327.52H658.85ZM665.349 327.652C664.735 327.652 664.2 327.511 663.742 327.23C663.285 326.949 662.93 326.556 662.677 326.05C662.424 325.544 662.298 324.953 662.298 324.277C662.298 323.598 662.424 323.004 662.677 322.496C662.93 321.987 663.285 321.592 663.742 321.311C664.2 321.03 664.735 320.889 665.349 320.889C665.962 320.889 666.498 321.03 666.955 321.311C667.413 321.592 667.768 321.987 668.021 322.496C668.274 323.004 668.4 323.598 668.4 324.277C668.4 324.953 668.274 325.544 668.021 326.05C667.768 326.556 667.413 326.949 666.955 327.23C666.498 327.511 665.962 327.652 665.349 327.652ZM665.353 326.583C665.751 326.583 666.08 326.477 666.342 326.267C666.603 326.057 666.796 325.777 666.921 325.428C667.049 325.078 667.113 324.693 667.113 324.273C667.113 323.855 667.049 323.472 666.921 323.122C666.796 322.77 666.603 322.487 666.342 322.274C666.08 322.061 665.751 321.955 665.353 321.955C664.952 321.955 664.62 322.061 664.356 322.274C664.095 322.487 663.9 322.77 663.772 323.122C663.647 323.472 663.585 323.855 663.585 324.273C663.585 324.693 663.647 325.078 663.772 325.428C663.9 325.777 664.095 326.057 664.356 326.267C664.62 326.477 664.952 326.583 665.353 326.583ZM669.822 327.52V320.975H671.054V322.014H671.122C671.241 321.662 671.451 321.385 671.753 321.183C672.057 320.979 672.4 320.877 672.784 320.877C672.863 320.877 672.957 320.879 673.065 320.885C673.176 320.891 673.263 320.898 673.325 320.906V322.125C673.274 322.111 673.183 322.095 673.052 322.078C672.922 322.058 672.791 322.048 672.66 322.048C672.359 322.048 672.091 322.112 671.855 322.24C671.622 322.365 671.437 322.54 671.301 322.764C671.165 322.986 671.096 323.239 671.096 323.523V327.52H669.822ZM674.428 327.52V320.975H675.651V322.04H675.732C675.868 321.679 676.091 321.398 676.401 321.196C676.71 320.992 677.081 320.889 677.513 320.889C677.95 320.889 678.317 320.992 678.612 321.196C678.911 321.401 679.131 321.682 679.273 322.04H679.341C679.497 321.69 679.746 321.412 680.087 321.205C680.428 320.994 680.834 320.889 681.305 320.889C681.899 320.889 682.384 321.075 682.759 321.448C683.136 321.82 683.325 322.381 683.325 323.131V327.52H682.051V323.25C682.051 322.807 681.93 322.486 681.689 322.287C681.448 322.088 681.159 321.989 680.824 321.989C680.409 321.989 680.087 322.117 679.857 322.372C679.627 322.625 679.511 322.95 679.511 323.348V327.52H678.242V323.169C678.242 322.814 678.131 322.529 677.909 322.313C677.688 322.097 677.399 321.989 677.044 321.989C676.803 321.989 676.58 322.053 676.375 322.181C676.173 322.306 676.01 322.48 675.885 322.705C675.763 322.929 675.702 323.189 675.702 323.485V327.52H674.428ZM689.938 322.573L688.783 322.777C688.735 322.629 688.658 322.489 688.553 322.355C688.451 322.222 688.312 322.112 688.135 322.027C687.959 321.942 687.739 321.899 687.475 321.899C687.114 321.899 686.813 321.98 686.571 322.142C686.33 322.301 686.209 322.507 686.209 322.76C686.209 322.979 686.29 323.155 686.452 323.288C686.614 323.422 686.875 323.531 687.236 323.617L688.276 323.855C688.878 323.994 689.327 324.209 689.623 324.499C689.918 324.788 690.066 325.165 690.066 325.628C690.066 326.02 689.952 326.369 689.725 326.676C689.5 326.98 689.187 327.219 688.783 327.392C688.383 327.565 687.918 327.652 687.39 327.652C686.657 327.652 686.059 327.496 685.596 327.183C685.133 326.868 684.848 326.421 684.743 325.841L685.975 325.654C686.052 325.975 686.209 326.217 686.448 326.382C686.687 326.544 686.998 326.625 687.381 326.625C687.799 326.625 688.133 326.538 688.383 326.365C688.633 326.189 688.758 325.975 688.758 325.722C688.758 325.517 688.681 325.345 688.527 325.206C688.377 325.067 688.145 324.962 687.833 324.891L686.725 324.648C686.114 324.509 685.662 324.287 685.37 323.983C685.08 323.679 684.935 323.294 684.935 322.828C684.935 322.442 685.043 322.104 685.259 321.814C685.475 321.524 685.773 321.298 686.154 321.136C686.535 320.972 686.971 320.889 687.462 320.889C688.169 320.889 688.726 321.043 689.133 321.35C689.539 321.654 689.807 322.061 689.938 322.573ZM693.917 323.898C693.917 324.969 693.776 325.953 693.495 326.851C693.214 327.749 692.803 328.577 692.264 329.335H691.096C691.306 329.054 691.502 328.709 691.684 328.3C691.866 327.891 692.025 327.443 692.161 326.958C692.298 326.469 692.404 325.963 692.481 325.44C692.558 324.918 692.596 324.404 692.596 323.898C692.596 323.225 692.529 322.541 692.396 321.848C692.262 321.155 692.082 320.511 691.854 319.918C691.627 319.324 691.374 318.84 691.096 318.465H692.264C692.803 319.223 693.214 320.051 693.495 320.949C693.776 321.847 693.917 322.83 693.917 323.898Z" fill="#2E2E2E"/>
<path d="M89 141V301" stroke="#2E2E2E"/>
<path d="M83 301H89" stroke="#2E2E2E"/>
<path d="M74.25 305.379C73.608 305.379 73.0611 305.204 72.6094 304.855C72.1577 304.503 71.8125 303.993 71.5739 303.325C71.3352 302.655 71.2159 301.845 71.2159 300.896C71.2159 299.953 71.3352 299.148 71.5739 298.48C71.8153 297.809 72.1619 297.298 72.6136 296.946C73.0682 296.591 73.6136 296.413 74.25 296.413C74.8864 296.413 75.4304 296.591 75.8821 296.946C76.3366 297.298 76.6832 297.809 76.9219 298.48C77.1634 299.148 77.2841 299.953 77.2841 300.896C77.2841 301.845 77.1648 302.655 76.9261 303.325C76.6875 303.993 76.3423 304.503 75.8906 304.855C75.4389 305.204 74.892 305.379 74.25 305.379ZM74.25 304.442C74.8864 304.442 75.3807 304.135 75.733 303.521C76.0852 302.907 76.2614 302.032 76.2614 300.896C76.2614 300.14 76.1804 299.497 76.0185 298.966C75.8594 298.434 75.6293 298.03 75.3281 297.751C75.0298 297.473 74.6705 297.334 74.25 297.334C73.6193 297.334 73.1264 297.645 72.7713 298.267C72.4162 298.886 72.2386 299.763 72.2386 300.896C72.2386 301.652 72.3182 302.294 72.4773 302.822C72.6364 303.351 72.8651 303.753 73.1634 304.028C73.4645 304.304 73.8267 304.442 74.25 304.442Z" fill="#2E2E2E"/>
<path d="M83 261H89" stroke="#2E2E2E"/>
<path d="M68.8935 256.532V265.26H67.8366V257.64H67.7855L65.6548 259.055V257.981L67.8366 256.532H68.8935ZM74.25 265.379C73.608 265.379 73.0611 265.204 72.6094 264.855C72.1577 264.503 71.8125 263.993 71.5739 263.325C71.3352 262.655 71.2159 261.845 71.2159 260.896C71.2159 259.953 71.3352 259.148 71.5739 258.48C71.8153 257.809 72.1619 257.298 72.6136 256.946C73.0682 256.591 73.6136 256.413 74.25 256.413C74.8864 256.413 75.4304 256.591 75.8821 256.946C76.3366 257.298 76.6832 257.809 76.9219 258.48C77.1634 259.148 77.2841 259.953 77.2841 260.896C77.2841 261.845 77.1648 262.655 76.9261 263.325C76.6875 263.993 76.3423 264.503 75.8906 264.855C75.4389 265.204 74.892 265.379 74.25 265.379ZM74.25 264.442C74.8864 264.442 75.3807 264.135 75.733 263.521C76.0852 262.907 76.2614 262.032 76.2614 260.896C76.2614 260.14 76.1804 259.497 76.0185 258.966C75.8594 258.434 75.6293 258.03 75.3281 257.751C75.0298 257.473 74.6705 257.334 74.25 257.334C73.6193 257.334 73.1264 257.645 72.7713 258.267C72.4162 258.886 72.2386 259.763 72.2386 260.896C72.2386 261.652 72.3182 262.294 72.4773 262.822C72.6364 263.351 72.8651 263.753 73.1634 264.028C73.4645 264.304 73.8267 264.442 74.25 264.442Z" fill="#2E2E2E"/>
<path d="M83 221H89" stroke="#2E2E2E"/>
<path d="M64.1378 225.26V224.493L67.0185 221.339C67.3565 220.97 67.6349 220.649 67.8537 220.376C68.0724 220.101 68.2344 219.842 68.3395 219.601C68.4474 219.356 68.5014 219.101 68.5014 218.834C68.5014 218.527 68.4276 218.261 68.2798 218.037C68.1349 217.812 67.9361 217.639 67.6832 217.517C67.4304 217.395 67.1463 217.334 66.831 217.334C66.4957 217.334 66.2031 217.403 65.9531 217.542C65.706 217.679 65.5142 217.871 65.3778 218.118C65.2443 218.365 65.1776 218.655 65.1776 218.987H64.1719C64.1719 218.476 64.2898 218.027 64.5256 217.64C64.7614 217.254 65.0824 216.953 65.4886 216.737C65.8977 216.521 66.3565 216.413 66.8651 216.413C67.3764 216.413 67.8295 216.521 68.2244 216.737C68.6193 216.953 68.929 217.244 69.1534 217.611C69.3778 217.977 69.4901 218.385 69.4901 218.834C69.4901 219.155 69.4318 219.469 69.3153 219.775C69.2017 220.079 69.0028 220.419 68.7188 220.794C68.4375 221.166 68.0469 221.621 67.5469 222.157L65.5866 224.254V224.322H69.6435V225.26H64.1378ZM74.25 225.379C73.608 225.379 73.0611 225.204 72.6094 224.855C72.1577 224.503 71.8125 223.993 71.5739 223.325C71.3352 222.655 71.2159 221.845 71.2159 220.896C71.2159 219.953 71.3352 219.148 71.5739 218.48C71.8153 217.809 72.1619 217.298 72.6136 216.946C73.0682 216.591 73.6136 216.413 74.25 216.413C74.8864 216.413 75.4304 216.591 75.8821 216.946C76.3366 217.298 76.6832 217.809 76.9219 218.48C77.1634 219.148 77.2841 219.953 77.2841 220.896C77.2841 221.845 77.1648 222.655 76.9261 223.325C76.6875 223.993 76.3423 224.503 75.8906 224.855C75.4389 225.204 74.892 225.379 74.25 225.379ZM74.25 224.442C74.8864 224.442 75.3807 224.135 75.733 223.521C76.0852 222.907 76.2614 222.032 76.2614 220.896C76.2614 220.14 76.1804 219.497 76.0185 218.966C75.8594 218.434 75.6293 218.03 75.3281 217.751C75.0298 217.473 74.6705 217.334 74.25 217.334C73.6193 217.334 73.1264 217.645 72.7713 218.267C72.4162 218.886 72.2386 219.763 72.2386 220.896C72.2386 221.652 72.3182 222.294 72.4773 222.822C72.6364 223.351 72.8651 223.753 73.1634 224.028C73.4645 224.304 73.8267 224.442 74.25 224.442Z" fill="#2E2E2E"/>
<path d="M83 181H89" stroke="#2E2E2E"/>
<path d="M66.7116 185.379C66.1491 185.379 65.6477 185.282 65.2074 185.089C64.7699 184.896 64.4219 184.628 64.1634 184.284C63.9077 183.937 63.7685 183.535 63.7457 183.078H64.8196C64.8423 183.359 64.9389 183.602 65.1094 183.807C65.2798 184.008 65.5028 184.165 65.7784 184.275C66.054 184.386 66.3594 184.442 66.6946 184.442C67.0696 184.442 67.402 184.376 67.6918 184.246C67.9815 184.115 68.2088 183.933 68.3736 183.7C68.5384 183.467 68.6207 183.197 68.6207 182.89C68.6207 182.569 68.5412 182.287 68.3821 182.042C68.223 181.795 67.9901 181.602 67.6832 181.463C67.3764 181.324 67.0014 181.254 66.5582 181.254H65.8594V180.317H66.5582C66.9048 180.317 67.2088 180.254 67.4702 180.129C67.7344 180.004 67.9403 179.828 68.0881 179.601C68.2386 179.373 68.3139 179.106 68.3139 178.8C68.3139 178.504 68.2486 178.247 68.1179 178.028C67.9872 177.809 67.8026 177.639 67.5639 177.517C67.3281 177.395 67.0497 177.334 66.7287 177.334C66.4276 177.334 66.1435 177.389 65.8764 177.5C65.6122 177.608 65.3963 177.765 65.2287 177.973C65.0611 178.177 64.9702 178.425 64.956 178.714H63.9332C63.9503 178.257 64.0881 177.856 64.3466 177.513C64.6051 177.166 64.9432 176.896 65.3608 176.703C65.7813 176.51 66.2429 176.413 66.7457 176.413C67.2855 176.413 67.7486 176.523 68.1349 176.741C68.5213 176.957 68.8182 177.243 69.0256 177.598C69.233 177.953 69.3366 178.336 69.3366 178.748C69.3366 179.24 69.2074 179.659 68.9489 180.006C68.6932 180.352 68.3452 180.592 67.9048 180.726V180.794C68.456 180.885 68.8864 181.119 69.196 181.497C69.5057 181.872 69.6605 182.336 69.6605 182.89C69.6605 183.365 69.5313 183.791 69.2727 184.169C69.017 184.544 68.6676 184.839 68.2244 185.055C67.7813 185.271 67.277 185.379 66.7116 185.379ZM74.25 185.379C73.608 185.379 73.0611 185.204 72.6094 184.855C72.1577 184.503 71.8125 183.993 71.5739 183.325C71.3352 182.655 71.2159 181.845 71.2159 180.896C71.2159 179.953 71.3352 179.148 71.5739 178.48C71.8153 177.809 72.1619 177.298 72.6136 176.946C73.0682 176.591 73.6136 176.413 74.25 176.413C74.8864 176.413 75.4304 176.591 75.8821 176.946C76.3366 177.298 76.6832 177.809 76.9219 178.48C77.1634 179.148 77.2841 179.953 77.2841 180.896C77.2841 181.845 77.1648 182.655 76.9261 183.325C76.6875 183.993 76.3423 184.503 75.8906 184.855C75.4389 185.204 74.892 185.379 74.25 185.379ZM74.25 184.442C74.8864 184.442 75.3807 184.135 75.733 183.521C76.0852 182.907 76.2614 182.032 76.2614 180.896C76.2614 180.14 76.1804 179.497 76.0185 178.966C75.8594 178.434 75.6293 178.03 75.3281 177.751C75.0298 177.473 74.6705 177.334 74.25 177.334C73.6193 177.334 73.1264 177.645 72.7713 178.267C72.4162 178.886 72.2386 179.763 72.2386 180.896C72.2386 181.652 72.3182 182.294 72.4773 182.822C72.6364 183.351 72.8651 183.753 73.1634 184.028C73.4645 184.304 73.8267 184.442 74.25 184.442Z" fill="#2E2E2E"/>
<path d="M83 141H89" stroke="#2E2E2E"/>
<path d="M63.4996 147.669V146.8L67.3349 140.732H67.9656V142.078H67.5394L64.6417 146.664V146.732H69.8065V147.669H63.4996ZM67.6076 149.459V147.405V147V140.732H68.6133V149.459H67.6076ZM74.25 149.578C73.608 149.578 73.0611 149.404 72.6094 149.054C72.1577 148.702 71.8125 148.192 71.5739 147.524C71.3352 146.854 71.2159 146.044 71.2159 145.095C71.2159 144.152 71.3352 143.347 71.5739 142.679C71.8153 142.009 72.1619 141.497 72.6136 141.145C73.0682 140.79 73.6136 140.612 74.25 140.612C74.8864 140.612 75.4304 140.79 75.8821 141.145C76.3366 141.497 76.6832 142.009 76.9219 142.679C77.1634 143.347 77.2841 144.152 77.2841 145.095C77.2841 146.044 77.1648 146.854 76.9261 147.524C76.6875 148.192 76.3423 148.702 75.8906 149.054C75.4389 149.404 74.892 149.578 74.25 149.578ZM74.25 148.641C74.8864 148.641 75.3807 148.334 75.733 147.72C76.0852 147.107 76.2614 146.232 76.2614 145.095C76.2614 144.34 76.1804 143.696 76.0185 143.165C75.8594 142.634 75.6293 142.229 75.3281 141.95C75.0298 141.672 74.6705 141.533 74.25 141.533C73.6193 141.533 73.1264 141.844 72.7713 142.466C72.4162 143.085 72.2386 143.962 72.2386 145.095C72.2386 145.851 72.3182 146.493 72.4773 147.021C72.6364 147.55 72.8651 147.952 73.1634 148.227C73.4645 148.503 73.8267 148.641 74.25 148.641Z" fill="#2E2E2E"/>
<path d="M89 301H687" stroke="#CCCCCC"/>
<path d="M89 261H687" stroke="#CCCCCC"/>
<path d="M89 221H687" stroke="#CCCCCC"/>
<path d="M89 181H687" stroke="#CCCCCC"/>
<path d="M89 141H687" stroke="#CCCCCC"/>
<path d="M148.8 141V301" stroke="#CCCCCC"/>
<path d="M268.4 141V301" stroke="#CCCCCC"/>
<path d="M388 141V301" stroke="#CCCCCC"/>
<path d="M507.6 141V301" stroke="#CCCCCC"/>
<path d="M627.2 141V301" stroke="#CCCCCC"/>
<path d="M89 141V301" stroke="#CCCCCC"/>
<path d="M687 141V301" stroke="#CCCCCC"/>
<path d="M100.96 280H195.96V301H100.96V280Z" fill="#E57BA1"/>
<path d="M220.56 167H315.56V301H220.56V167Z" fill="#E57BA1"/>
<path d="M340.16 205H435.16V301H340.16V205Z" fill="#E57BA1"/>
<path d="M459.76 268H554.76V301H459.76V268Z" fill="#E57BA1"/>
<path d="M579.36 297H674.36V301H579.36V297Z" fill="#E57BA1"/>
<path d="M633.367 364V352.727H636.07L639.188 360.977H639.328L642.438 352.727H645.141V364H643.039V356.328H642.883L639.992 364H638.516L635.625 356.328H635.469V364H633.367ZM651.118 364.18C648.5 364.18 646.914 362.469 646.914 359.711V359.703C646.914 356.969 648.516 355.211 651.024 355.211C653.532 355.211 655.094 356.93 655.094 359.531V360.242H649.172C649.196 361.656 649.953 362.477 651.164 362.477C652.164 362.477 652.719 361.945 652.875 361.617L652.899 361.57H655.024L655.008 361.648C654.743 362.727 653.633 364.18 651.118 364.18ZM651.063 356.922C650.071 356.922 649.336 357.594 649.196 358.812H652.907C652.766 357.562 652.055 356.922 651.063 356.922ZM660.212 364.031C658.118 364.031 657.274 363.352 657.274 361.68V357.117H655.946V355.398H657.274V353.344H659.579V355.398H661.352V357.117H659.579V361.156C659.579 361.93 659.907 362.273 660.68 362.273C660.977 362.273 661.133 362.258 661.352 362.234V363.93C661.071 363.984 660.649 364.031 660.212 364.031ZM663.009 364V352.109H665.29V356.727H665.431C665.821 355.797 666.673 355.211 667.899 355.211C669.813 355.211 670.845 356.383 670.845 358.438V364H668.563V358.953C668.563 357.742 668.063 357.102 666.985 357.102C665.931 357.102 665.29 357.859 665.29 359.023V364H663.009ZM676.556 364.18C673.908 364.18 672.314 362.5 672.314 359.703V359.688C672.314 356.914 673.931 355.211 676.556 355.211C679.181 355.211 680.798 356.906 680.798 359.688V359.703C680.798 362.508 679.204 364.18 676.556 364.18ZM676.556 362.391C677.767 362.391 678.462 361.398 678.462 359.703V359.688C678.462 358.008 677.759 357 676.556 357C675.345 357 674.65 358.008 674.65 359.688V359.703C674.65 361.398 675.337 362.391 676.556 362.391ZM685.408 364.133C683.259 364.133 681.916 362.453 681.916 359.703V359.688C681.916 356.922 683.228 355.258 685.408 355.258C686.588 355.258 687.548 355.836 687.978 356.773H688.119V352.109H690.4V364H688.119V362.664H687.978C687.533 363.594 686.619 364.133 685.408 364.133ZM686.181 362.242C687.392 362.242 688.142 361.289 688.142 359.711V359.695C688.142 358.117 687.384 357.148 686.181 357.148C684.978 357.148 684.236 358.117 684.236 359.688V359.703C684.236 361.289 684.978 362.242 686.181 362.242Z" fill="#2E2E2E"/>
</svg>
