<svg width="716" height="440" viewBox="0 0 716 440" fill="none" xmlns="http://www.w3.org/2000/svg">
<path d="M29.352 49H25.992V31.984H29.352V49ZM38.7084 34.264C37.9884 34.264 37.0524 34.576 37.0524 35.896V37.192H39.7164V39.928H37.0524V49H33.8364V39.928H31.8684V37.192H33.8364V35.848C33.8364 33.184 35.5164 31.456 38.1324 31.456C38.8044 31.456 39.4524 31.576 39.7164 31.696V34.384C39.5484 34.336 39.2364 34.264 38.7084 34.264ZM50.6696 53.656H47.2856L50.0696 47.512L45.0536 37.192H48.6296L51.7736 44.104L54.6776 37.192H58.0856L50.6696 53.656ZM61.9952 41.752H67.2752C67.2272 40.576 66.4592 39.424 64.6352 39.424C62.9792 39.424 62.0672 40.672 61.9952 41.752ZM67.5872 44.824L70.2512 45.616C69.6512 47.656 67.7792 49.36 64.8752 49.36C61.6352 49.36 58.7792 47.032 58.7792 43.048C58.7792 39.28 61.5632 36.832 64.5872 36.832C68.2352 36.832 70.4192 39.16 70.4192 42.952C70.4192 43.408 70.3712 43.888 70.3712 43.936H61.9232C61.9952 45.496 63.3152 46.624 64.8992 46.624C66.3872 46.624 67.2032 45.88 67.5872 44.824ZM72.1838 45.712L74.9198 45.112C74.9918 46.048 75.6878 46.912 77.0798 46.912C78.1358 46.912 78.6398 46.36 78.6398 45.736C78.6398 45.208 78.2798 44.776 77.3678 44.584L75.8078 44.224C73.5278 43.72 72.4958 42.352 72.4958 40.696C72.4958 38.584 74.3678 36.832 76.9118 36.832C80.2718 36.832 81.3998 38.968 81.5438 40.24L78.8798 40.84C78.7838 40.144 78.2798 39.256 76.9358 39.256C76.0958 39.256 75.4238 39.76 75.4238 40.432C75.4238 41.008 75.8558 41.368 76.5038 41.488L78.1838 41.848C80.5118 42.328 81.6878 43.744 81.6878 45.472C81.6878 47.392 80.1998 49.36 77.1038 49.36C73.5518 49.36 72.3278 47.056 72.1838 45.712ZM95.4399 46.456C96.9999 46.456 98.4399 45.328 98.4399 43.096C98.4399 40.864 96.9999 39.736 95.4399 39.736C93.8799 39.736 92.4399 40.864 92.4399 43.096C92.4399 45.304 93.8799 46.456 95.4399 46.456ZM95.4399 36.832C98.9679 36.832 101.632 39.448 101.632 43.096C101.632 46.72 98.9679 49.36 95.4399 49.36C91.9119 49.36 89.2479 46.72 89.2479 43.096C89.2479 39.448 91.9119 36.832 95.4399 36.832ZM111.371 37.144V40.36C111.011 40.288 110.699 40.264 110.411 40.264C108.779 40.264 107.363 41.056 107.363 43.6V49H104.171V37.192H107.267V38.944C107.987 37.384 109.619 37.096 110.627 37.096C110.891 37.096 111.131 37.12 111.371 37.144ZM121.894 42.208V49H118.702V37.192H121.798V38.656C122.518 37.432 123.934 36.88 125.206 36.88C128.134 36.88 129.478 38.968 129.478 41.56V49H126.286V42.112C126.286 40.792 125.638 39.76 124.102 39.76C122.71 39.76 121.894 40.84 121.894 42.208ZM138.096 46.456C139.656 46.456 141.096 45.328 141.096 43.096C141.096 40.864 139.656 39.736 138.096 39.736C136.536 39.736 135.096 40.864 135.096 43.096C135.096 45.304 136.536 46.456 138.096 46.456ZM138.096 36.832C141.624 36.832 144.288 39.448 144.288 43.096C144.288 46.72 141.624 49.36 138.096 49.36C134.568 49.36 131.904 46.72 131.904 43.096C131.904 39.448 134.568 36.832 138.096 36.832ZM150.815 33.664V37.192H153.191V40.024H150.815V44.968C150.815 46 151.295 46.336 152.207 46.336C152.591 46.336 153.023 46.288 153.191 46.24V48.88C152.903 49 152.327 49.168 151.391 49.168C149.087 49.168 147.647 47.8 147.647 45.52V40.024H145.511V37.192H146.111C147.359 37.192 147.935 36.376 147.935 35.32V33.664H150.815ZM160.66 45.712L163.396 45.112C163.468 46.048 164.164 46.912 165.556 46.912C166.612 46.912 167.116 46.36 167.116 45.736C167.116 45.208 166.756 44.776 165.844 44.584L164.284 44.224C162.004 43.72 160.972 42.352 160.972 40.696C160.972 38.584 162.844 36.832 165.388 36.832C168.748 36.832 169.876 38.968 170.02 40.24L167.356 40.84C167.26 40.144 166.756 39.256 165.412 39.256C164.572 39.256 163.9 39.76 163.9 40.432C163.9 41.008 164.332 41.368 164.98 41.488L166.66 41.848C168.988 42.328 170.164 43.744 170.164 45.472C170.164 47.392 168.676 49.36 165.58 49.36C162.028 49.36 160.804 47.056 160.66 45.712ZM180.477 49C180.429 48.76 180.381 48.208 180.381 47.728C179.733 48.832 178.365 49.312 177.117 49.312C174.261 49.312 172.629 47.224 172.629 44.656V37.192H175.821V44.008C175.821 45.328 176.493 46.384 177.981 46.384C179.397 46.384 180.213 45.424 180.213 44.056V37.192H183.405V46.864C183.405 47.776 183.477 48.592 183.525 49H180.477ZM193.871 37.144V40.36C193.511 40.288 193.199 40.264 192.911 40.264C191.279 40.264 189.863 41.056 189.863 43.6V49H186.671V37.192H189.767V38.944C190.487 37.384 192.119 37.096 193.127 37.096C193.391 37.096 193.631 37.12 193.871 37.144ZM198.331 41.752H203.611C203.563 40.576 202.795 39.424 200.971 39.424C199.315 39.424 198.403 40.672 198.331 41.752ZM203.923 44.824L206.587 45.616C205.987 47.656 204.115 49.36 201.211 49.36C197.971 49.36 195.115 47.032 195.115 43.048C195.115 39.28 197.899 36.832 200.923 36.832C204.571 36.832 206.755 39.16 206.755 42.952C206.755 43.408 206.707 43.888 206.707 43.936H198.259C198.331 45.496 199.651 46.624 201.235 46.624C202.723 46.624 203.539 45.88 203.923 44.824ZM208.808 47.08C208.808 45.928 209.744 45.064 210.992 45.064C212.48 45.064 213.368 46.264 213.368 47.824C213.368 51.352 210.92 52.84 209.144 53.056V51.52C210.224 51.28 211.376 50.248 211.424 48.928C211.328 49 211.064 49.072 210.8 49.072C209.624 49.072 208.808 48.232 208.808 47.08ZM228.268 37.192H231.628L234.172 44.8L236.356 37.192H239.524L235.828 49H232.636L229.876 40.936L227.164 49H223.924L220.156 37.192H223.516L225.7 44.776L228.268 37.192ZM244.754 42.064V49H241.562V31.624H244.754V38.176C245.522 37.264 246.818 36.88 247.946 36.88C250.946 36.88 252.338 38.968 252.338 41.56V49H249.146V42.112C249.146 40.792 248.498 39.76 246.962 39.76C245.618 39.76 244.826 40.768 244.754 42.064ZM254.788 45.784C254.788 43.672 256.348 42.496 258.316 42.208L261.22 41.776C261.892 41.68 262.108 41.344 262.108 40.936C262.108 40.096 261.46 39.4 260.116 39.4C258.724 39.4 257.956 40.288 257.86 41.32L255.028 40.72C255.22 38.872 256.924 36.832 260.092 36.832C263.836 36.832 265.228 38.944 265.228 41.32V47.128C265.228 47.752 265.3 48.592 265.372 49H262.444C262.372 48.688 262.324 48.04 262.324 47.584C261.724 48.52 260.596 49.336 258.844 49.336C256.324 49.336 254.788 47.632 254.788 45.784ZM259.516 46.96C260.86 46.96 262.108 46.312 262.108 44.224V43.696L259.444 44.104C258.628 44.224 257.98 44.68 257.98 45.592C257.98 46.288 258.484 46.96 259.516 46.96ZM272.456 33.664V37.192H274.832V40.024H272.456V44.968C272.456 46 272.936 46.336 273.848 46.336C274.232 46.336 274.664 46.288 274.832 46.24V48.88C274.544 49 273.968 49.168 273.032 49.168C270.728 49.168 269.288 47.8 269.288 45.52V40.024H267.152V37.192H267.752C269 37.192 269.576 36.376 269.576 35.32V33.664H272.456ZM290.293 37.144V40.36C289.933 40.288 289.621 40.264 289.333 40.264C287.701 40.264 286.285 41.056 286.285 43.6V49H283.093V37.192H286.189V38.944C286.909 37.384 288.541 37.096 289.549 37.096C289.813 37.096 290.053 37.12 290.293 37.144ZM297.729 46.456C299.289 46.456 300.729 45.328 300.729 43.096C300.729 40.864 299.289 39.736 297.729 39.736C296.169 39.736 294.729 40.864 294.729 43.096C294.729 45.304 296.169 46.456 297.729 46.456ZM297.729 36.832C301.257 36.832 303.921 39.448 303.921 43.096C303.921 46.72 301.257 49.36 297.729 49.36C294.201 49.36 291.537 46.72 291.537 43.096C291.537 39.448 294.201 36.832 297.729 36.832ZM309.652 49H306.46V31.624H309.652V49ZM315.401 41.752H320.681C320.633 40.576 319.865 39.424 318.041 39.424C316.385 39.424 315.473 40.672 315.401 41.752ZM320.993 44.824L323.657 45.616C323.057 47.656 321.185 49.36 318.281 49.36C315.041 49.36 312.185 47.032 312.185 43.048C312.185 39.28 314.969 36.832 317.993 36.832C321.641 36.832 323.825 39.16 323.825 42.952C323.825 43.408 323.777 43.888 323.777 43.936H315.329C315.401 45.496 316.721 46.624 318.305 46.624C319.793 46.624 320.609 45.88 320.993 44.824ZM338.518 37.192H341.878L344.422 44.8L346.606 37.192H349.774L346.078 49H342.886L340.126 40.936L337.414 49H334.174L330.406 37.192H333.766L335.95 44.776L338.518 37.192ZM357.073 46.456C358.633 46.456 360.073 45.328 360.073 43.096C360.073 40.864 358.633 39.736 357.073 39.736C355.513 39.736 354.073 40.864 354.073 43.096C354.073 45.304 355.513 46.456 357.073 46.456ZM357.073 36.832C360.601 36.832 363.265 39.448 363.265 43.096C363.265 46.72 360.601 49.36 357.073 49.36C353.545 49.36 350.881 46.72 350.881 43.096C350.881 39.448 353.545 36.832 357.073 36.832ZM373.532 49C373.484 48.76 373.436 48.208 373.436 47.728C372.788 48.832 371.42 49.312 370.172 49.312C367.316 49.312 365.684 47.224 365.684 44.656V37.192H368.876V44.008C368.876 45.328 369.548 46.384 371.036 46.384C372.452 46.384 373.268 45.424 373.268 44.056V37.192H376.46V46.864C376.46 47.776 376.532 48.592 376.58 49H373.532ZM382.918 49H379.726V31.624H382.918V49ZM397.595 31.624V46.864C397.595 47.656 397.643 48.52 397.691 49H394.643C394.595 48.76 394.523 48.184 394.523 47.632C393.995 48.568 392.795 49.288 391.211 49.288C387.851 49.288 385.451 46.648 385.451 43.072C385.451 39.616 387.779 36.904 391.115 36.904C393.155 36.904 394.115 37.744 394.451 38.368V31.624H397.595ZM388.667 43.072C388.667 45.184 389.915 46.432 391.595 46.432C393.227 46.432 394.499 45.184 394.499 43.048C394.499 40.936 393.227 39.76 391.595 39.76C389.963 39.76 388.667 40.96 388.667 43.072ZM410.201 53.656H406.817L409.601 47.512L404.585 37.192H408.161L411.305 44.104L414.209 37.192H417.617L410.201 53.656ZM424.502 46.456C426.062 46.456 427.502 45.328 427.502 43.096C427.502 40.864 426.062 39.736 424.502 39.736C422.942 39.736 421.502 40.864 421.502 43.096C421.502 45.304 422.942 46.456 424.502 46.456ZM424.502 36.832C428.03 36.832 430.694 39.448 430.694 43.096C430.694 46.72 428.03 49.36 424.502 49.36C420.974 49.36 418.31 46.72 418.31 43.096C418.31 39.448 420.974 36.832 424.502 36.832ZM440.962 49C440.914 48.76 440.866 48.208 440.866 47.728C440.218 48.832 438.85 49.312 437.602 49.312C434.746 49.312 433.114 47.224 433.114 44.656V37.192H436.306V44.008C436.306 45.328 436.978 46.384 438.466 46.384C439.882 46.384 440.698 45.424 440.698 44.056V37.192H443.89V46.864C443.89 47.776 443.962 48.592 444.01 49H440.962ZM456.043 49H452.851V31.624H456.043V49ZM462.488 49H459.296V37.192H462.488V49ZM458.912 33.328C458.912 32.224 459.8 31.336 460.88 31.336C461.984 31.336 462.848 32.224 462.848 33.328C462.848 34.384 461.984 35.272 460.88 35.272C459.8 35.272 458.912 34.384 458.912 33.328ZM477.189 37.192L472.461 42.16L477.285 49H473.373L470.253 44.488L468.933 45.88V49H465.741V31.624H468.933V41.584L473.013 37.192H477.189ZM480.941 41.752H486.221C486.173 40.576 485.405 39.424 483.581 39.424C481.925 39.424 481.013 40.672 480.941 41.752ZM486.533 44.824L489.197 45.616C488.597 47.656 486.725 49.36 483.821 49.36C480.581 49.36 477.725 47.032 477.725 43.048C477.725 39.28 480.509 36.832 483.533 36.832C487.181 36.832 489.365 39.16 489.365 42.952C489.365 43.408 489.317 43.888 489.317 43.936H480.869C480.941 45.496 482.261 46.624 483.845 46.624C485.333 46.624 486.149 45.88 486.533 44.824ZM500.808 49H497.616V37.192H500.664V38.632C501.312 37.48 502.824 36.856 504.12 36.856C505.728 36.856 507.024 37.552 507.624 38.824C508.56 37.384 509.808 36.856 511.368 36.856C513.552 36.856 515.64 38.176 515.64 41.344V49H512.544V41.992C512.544 40.72 511.92 39.76 510.456 39.76C509.088 39.76 508.272 40.816 508.272 42.088V49H505.104V41.992C505.104 40.72 504.456 39.76 503.016 39.76C501.624 39.76 500.808 40.792 500.808 42.088V49ZM526.508 49C526.46 48.76 526.412 48.208 526.412 47.728C525.764 48.832 524.396 49.312 523.148 49.312C520.292 49.312 518.66 47.224 518.66 44.656V37.192H521.852V44.008C521.852 45.328 522.524 46.384 524.012 46.384C525.428 46.384 526.244 45.424 526.244 44.056V37.192H529.436V46.864C529.436 47.776 529.508 48.592 529.556 49H526.508ZM531.91 45.712L534.646 45.112C534.718 46.048 535.414 46.912 536.806 46.912C537.862 46.912 538.366 46.36 538.366 45.736C538.366 45.208 538.006 44.776 537.094 44.584L535.534 44.224C533.254 43.72 532.222 42.352 532.222 40.696C532.222 38.584 534.094 36.832 536.638 36.832C539.998 36.832 541.126 38.968 541.27 40.24L538.606 40.84C538.51 40.144 538.006 39.256 536.662 39.256C535.822 39.256 535.15 39.76 535.15 40.432C535.15 41.008 535.582 41.368 536.23 41.488L537.91 41.848C540.238 42.328 541.414 43.744 541.414 45.472C541.414 47.392 539.926 49.36 536.83 49.36C533.278 49.36 532.054 47.056 531.91 45.712ZM547.191 49H543.999V37.192H547.191V49ZM543.615 33.328C543.615 32.224 544.503 31.336 545.583 31.336C546.687 31.336 547.551 32.224 547.551 33.328C547.551 34.384 546.687 35.272 545.583 35.272C544.503 35.272 543.615 34.384 543.615 33.328ZM555.917 39.784C554.285 39.784 552.917 40.96 552.917 43.096C552.917 45.232 554.309 46.432 555.941 46.432C557.573 46.432 558.389 45.352 558.653 44.44L561.461 45.376C560.932 47.344 559.085 49.36 555.941 49.36C552.461 49.36 549.725 46.72 549.725 43.096C549.725 39.448 552.413 36.832 555.845 36.832C559.061 36.832 560.885 38.824 561.389 40.816L558.533 41.776C558.245 40.792 557.501 39.784 555.917 39.784ZM573.206 33.664V37.192H575.582V40.024H573.206V44.968C573.206 46 573.686 46.336 574.598 46.336C574.982 46.336 575.414 46.288 575.582 46.24V48.88C575.294 49 574.718 49.168 573.782 49.168C571.478 49.168 570.038 47.8 570.038 45.52V40.024H567.902V37.192H568.502C569.75 37.192 570.326 36.376 570.326 35.32V33.664H573.206ZM583.502 46.456C585.062 46.456 586.502 45.328 586.502 43.096C586.502 40.864 585.062 39.736 583.502 39.736C581.942 39.736 580.502 40.864 580.502 43.096C580.502 45.304 581.942 46.456 583.502 46.456ZM583.502 36.832C587.03 36.832 589.694 39.448 589.694 43.096C589.694 46.72 587.03 49.36 583.502 49.36C579.974 49.36 577.31 46.72 577.31 43.096C577.31 39.448 579.974 36.832 583.502 36.832ZM601.121 53.56H597.929V37.192H601.025V38.632C601.553 37.72 602.873 36.928 604.649 36.928C608.105 36.928 610.097 39.568 610.097 43.072C610.097 46.648 607.865 49.288 604.529 49.288C602.897 49.288 601.697 48.64 601.121 47.848V53.56ZM606.953 43.096C606.953 41.008 605.657 39.784 604.025 39.784C602.393 39.784 601.073 41.008 601.073 43.096C601.073 45.184 602.393 46.432 604.025 46.432C605.657 46.432 606.953 45.208 606.953 43.096ZM615.863 49H612.671V31.624H615.863V49ZM618.42 45.784C618.42 43.672 619.98 42.496 621.948 42.208L624.852 41.776C625.524 41.68 625.74 41.344 625.74 40.936C625.74 40.096 625.092 39.4 623.748 39.4C622.356 39.4 621.588 40.288 621.492 41.32L618.66 40.72C618.852 38.872 620.556 36.832 623.724 36.832C627.468 36.832 628.86 38.944 628.86 41.32V47.128C628.86 47.752 628.932 48.592 629.004 49H626.076C626.004 48.688 625.956 48.04 625.956 47.584C625.356 48.52 624.228 49.336 622.476 49.336C619.956 49.336 618.42 47.632 618.42 45.784ZM623.148 46.96C624.492 46.96 625.74 46.312 625.74 44.224V43.696L623.076 44.104C622.26 44.224 621.612 44.68 621.612 45.592C621.612 46.288 622.116 46.96 623.148 46.96ZM635.881 53.656H632.497L635.281 47.512L630.265 37.192H633.841L636.985 44.104L639.889 37.192H643.297L635.881 53.656ZM653.41 49H650.218V37.192H653.41V49ZM649.834 33.328C649.834 32.224 650.722 31.336 651.802 31.336C652.906 31.336 653.77 32.224 653.77 33.328C653.77 34.384 652.906 35.272 651.802 35.272C650.722 35.272 649.834 34.384 649.834 33.328ZM659.855 42.208V49H656.663V37.192H659.759V38.656C660.479 37.432 661.895 36.88 663.167 36.88C666.095 36.88 667.439 38.968 667.439 41.56V49H664.247V42.112C664.247 40.792 663.599 39.76 662.063 39.76C660.671 39.76 659.855 40.84 659.855 42.208ZM29.904 87.656H26.52L29.304 81.512L24.288 71.192H27.864L31.008 78.104L33.912 71.192H37.32L29.904 87.656ZM44.2056 80.456C45.7656 80.456 47.2056 79.328 47.2056 77.096C47.2056 74.864 45.7656 73.736 44.2056 73.736C42.6456 73.736 41.2056 74.864 41.2056 77.096C41.2056 79.304 42.6456 80.456 44.2056 80.456ZM44.2056 70.832C47.7336 70.832 50.3976 73.448 50.3976 77.096C50.3976 80.72 47.7336 83.36 44.2056 83.36C40.6776 83.36 38.0136 80.72 38.0136 77.096C38.0136 73.448 40.6776 70.832 44.2056 70.832ZM60.6647 83C60.6167 82.76 60.5687 82.208 60.5687 81.728C59.9207 82.832 58.5527 83.312 57.3047 83.312C54.4487 83.312 52.8167 81.224 52.8167 78.656V71.192H56.0087V78.008C56.0087 79.328 56.6807 80.384 58.1687 80.384C59.5847 80.384 60.4007 79.424 60.4007 78.056V71.192H63.5927V80.864C63.5927 81.776 63.6647 82.592 63.7127 83H60.6647ZM74.0586 71.144V74.36C73.6986 74.288 73.3866 74.264 73.0986 74.264C71.4666 74.264 70.0506 75.056 70.0506 77.6V83H66.8586V71.192H69.9546V72.944C70.6746 71.384 72.3066 71.096 73.3146 71.096C73.5786 71.096 73.8186 71.12 74.0586 71.144ZM83.8858 75.752H89.1658C89.1178 74.576 88.3498 73.424 86.5258 73.424C84.8698 73.424 83.9578 74.672 83.8858 75.752ZM89.4778 78.824L92.1418 79.616C91.5418 81.656 89.6698 83.36 86.7658 83.36C83.5258 83.36 80.6698 81.032 80.6698 77.048C80.6698 73.28 83.4538 70.832 86.4778 70.832C90.1258 70.832 92.3098 73.16 92.3098 76.952C92.3098 77.408 92.2618 77.888 92.2618 77.936H83.8138C83.8858 79.496 85.2058 80.624 86.7898 80.624C88.2778 80.624 89.0938 79.88 89.4778 78.824ZM105.724 71.192L101.14 83H97.9479L93.1239 71.192H96.6279L99.5559 79.112L102.364 71.192H105.724ZM109.808 75.752H115.088C115.04 74.576 114.272 73.424 112.448 73.424C110.792 73.424 109.88 74.672 109.808 75.752ZM115.4 78.824L118.064 79.616C117.464 81.656 115.592 83.36 112.688 83.36C109.448 83.36 106.592 81.032 106.592 77.048C106.592 73.28 109.376 70.832 112.4 70.832C116.048 70.832 118.232 73.16 118.232 76.952C118.232 77.408 118.184 77.888 118.184 77.936H109.736C109.808 79.496 111.128 80.624 112.712 80.624C114.2 80.624 115.016 79.88 115.4 78.824ZM123.98 76.208V83H120.788V71.192H123.884V72.656C124.604 71.432 126.02 70.88 127.292 70.88C130.22 70.88 131.564 72.968 131.564 75.56V83H128.372V76.112C128.372 74.792 127.724 73.76 126.188 73.76C124.796 73.76 123.98 74.84 123.98 76.208ZM138.768 67.664V71.192H141.144V74.024H138.768V78.968C138.768 80 139.248 80.336 140.16 80.336C140.544 80.336 140.976 80.288 141.144 80.24V82.88C140.856 83 140.28 83.168 139.344 83.168C137.04 83.168 135.6 81.8 135.6 79.52V74.024H133.464V71.192H134.064C135.312 71.192 135.888 70.376 135.888 69.32V67.664H138.768ZM152.597 83H149.405V71.192H152.597V83ZM149.021 67.328C149.021 66.224 149.909 65.336 150.989 65.336C152.093 65.336 152.957 66.224 152.957 67.328C152.957 68.384 152.093 69.272 150.989 69.272C149.909 69.272 149.021 68.384 149.021 67.328ZM159.043 76.208V83H155.851V71.192H158.947V72.656C159.667 71.432 161.083 70.88 162.355 70.88C165.283 70.88 166.627 72.968 166.627 75.56V83H163.435V76.112C163.435 74.792 162.787 73.76 161.251 73.76C159.859 73.76 159.043 74.84 159.043 76.208ZM180.747 71.192L176.163 83H172.971L168.147 71.192H171.651L174.579 79.112L177.387 71.192H180.747ZM185.972 83H182.78V71.192H185.972V83ZM182.396 67.328C182.396 66.224 183.284 65.336 184.364 65.336C185.468 65.336 186.332 66.224 186.332 67.328C186.332 68.384 185.468 69.272 184.364 69.272C183.284 69.272 182.396 68.384 182.396 67.328ZM193.378 67.664V71.192H195.754V74.024H193.378V78.968C193.378 80 193.858 80.336 194.77 80.336C195.154 80.336 195.586 80.288 195.754 80.24V82.88C195.466 83 194.89 83.168 193.954 83.168C191.65 83.168 190.21 81.8 190.21 79.52V74.024H188.074V71.192H188.674C189.922 71.192 190.498 70.376 190.498 69.32V67.664H193.378ZM197.624 79.784C197.624 77.672 199.184 76.496 201.152 76.208L204.056 75.776C204.728 75.68 204.944 75.344 204.944 74.936C204.944 74.096 204.296 73.4 202.952 73.4C201.56 73.4 200.792 74.288 200.696 75.32L197.864 74.72C198.056 72.872 199.76 70.832 202.928 70.832C206.672 70.832 208.064 72.944 208.064 75.32V81.128C208.064 81.752 208.136 82.592 208.208 83H205.28C205.208 82.688 205.16 82.04 205.16 81.584C204.56 82.52 203.432 83.336 201.68 83.336C199.16 83.336 197.624 81.632 197.624 79.784ZM202.352 80.96C203.696 80.96 204.944 80.312 204.944 78.224V77.696L202.28 78.104C201.464 78.224 200.816 78.68 200.816 79.592C200.816 80.288 201.32 80.96 202.352 80.96ZM215.292 67.664V71.192H217.668V74.024H215.292V78.968C215.292 80 215.772 80.336 216.684 80.336C217.068 80.336 217.5 80.288 217.668 80.24V82.88C217.38 83 216.804 83.168 215.868 83.168C213.564 83.168 212.124 81.8 212.124 79.52V74.024H209.988V71.192H210.588C211.836 71.192 212.412 70.376 212.412 69.32V67.664H215.292ZM223.426 83H220.234V71.192H223.426V83ZM219.85 67.328C219.85 66.224 220.738 65.336 221.818 65.336C222.922 65.336 223.786 66.224 223.786 67.328C223.786 68.384 222.922 69.272 221.818 69.272C220.738 69.272 219.85 68.384 219.85 67.328ZM232.151 80.456C233.711 80.456 235.151 79.328 235.151 77.096C235.151 74.864 233.711 73.736 232.151 73.736C230.591 73.736 229.151 74.864 229.151 77.096C229.151 79.304 230.591 80.456 232.151 80.456ZM232.151 70.832C235.679 70.832 238.343 73.448 238.343 77.096C238.343 80.72 235.679 83.36 232.151 83.36C228.623 83.36 225.959 80.72 225.959 77.096C225.959 73.448 228.623 70.832 232.151 70.832ZM244.074 76.208V83H240.882V71.192H243.978V72.656C244.698 71.432 246.114 70.88 247.386 70.88C250.314 70.88 251.658 72.968 251.658 75.56V83H248.466V76.112C248.466 74.792 247.818 73.76 246.282 73.76C244.89 73.76 244.074 74.84 244.074 76.208ZM254.012 79.712L256.748 79.112C256.82 80.048 257.516 80.912 258.908 80.912C259.964 80.912 260.468 80.36 260.468 79.736C260.468 79.208 260.108 78.776 259.196 78.584L257.636 78.224C255.356 77.72 254.324 76.352 254.324 74.696C254.324 72.584 256.196 70.832 258.74 70.832C262.1 70.832 263.228 72.968 263.372 74.24L260.708 74.84C260.612 74.144 260.108 73.256 258.764 73.256C257.924 73.256 257.252 73.76 257.252 74.432C257.252 75.008 257.684 75.368 258.332 75.488L260.012 75.848C262.34 76.328 263.516 77.744 263.516 79.472C263.516 81.392 262.028 83.36 258.932 83.36C255.38 83.36 254.156 81.056 254.012 79.712ZM271.46 77.816H268.868C268.82 77.504 268.772 77.192 268.772 76.832C268.772 75.56 269.3 74.384 270.668 73.352L271.82 72.488C272.54 71.96 272.852 71.312 272.852 70.592C272.852 69.488 272.06 68.432 270.452 68.432C268.748 68.432 268.004 69.8 268.004 71.144C268.004 71.432 268.028 71.696 268.1 71.912L265.076 71.792C264.979 71.456 264.956 71.072 264.956 70.712C264.956 68.12 266.9 65.624 270.452 65.624C274.172 65.624 276.116 67.976 276.116 70.4C276.116 72.296 275.156 73.64 273.74 74.648L272.756 75.344C271.916 75.944 271.46 76.688 271.46 77.672V77.816ZM268.316 81.296C268.316 80.24 269.156 79.376 270.212 79.376C271.268 79.376 272.132 80.24 272.132 81.296C272.132 82.352 271.268 83.192 270.212 83.192C269.156 83.192 268.316 82.352 268.316 81.296Z" fill="#2E2E2E"/>
<path d="M25.6472 156V144.727H33.03V146.672H28.0066V149.695H32.5925V151.562H28.0066V156H25.6472ZM34.6631 156V147.398H36.9444V148.734H37.085C37.3584 147.805 38.1397 147.258 39.2569 147.258C39.5616 147.258 39.8819 147.305 40.1084 147.367V149.359C39.7647 149.281 39.4131 149.227 39.0616 149.227C37.7647 149.227 36.9444 149.969 36.9444 151.188V156H34.6631ZM44.89 156.18C42.2728 156.18 40.6869 154.469 40.6869 151.711V151.703C40.6869 148.969 42.2884 147.211 44.7962 147.211C47.3041 147.211 48.8666 148.93 48.8666 151.531V152.242H42.9447C42.9681 153.656 43.7259 154.477 44.9369 154.477C45.9369 154.477 46.4916 153.945 46.6478 153.617L46.6712 153.57H48.7962L48.7806 153.648C48.515 154.727 47.4056 156.18 44.89 156.18ZM44.8353 148.922C43.8431 148.922 43.1087 149.594 42.9681 150.812H46.6791C46.5384 149.562 45.8275 148.922 44.8353 148.922ZM56.2184 158.852V154.688H56.0778C55.6559 155.594 54.7184 156.133 53.4841 156.133C51.3356 156.133 50.0075 154.453 50.0075 151.703V151.688C50.0075 148.922 51.32 147.258 53.5231 147.258C54.6872 147.258 55.6403 147.836 56.1169 148.812H56.2184V147.398H58.4997V158.852H56.2184ZM54.2809 154.242C55.4841 154.242 56.2497 153.281 56.2497 151.711V151.695C56.2497 150.117 55.4762 149.148 54.2809 149.148C53.0778 149.148 52.3278 150.117 52.3278 151.688V151.703C52.3278 153.289 53.07 154.242 54.2809 154.242ZM63.2969 156.18C61.3672 156.18 60.375 155.008 60.375 152.961V147.398H62.6562V152.438C62.6562 153.656 63.1172 154.289 64.1953 154.289C65.3203 154.289 65.9297 153.531 65.9297 152.367V147.398H68.2109V156H65.9297V154.672H65.7891C65.3984 155.609 64.5234 156.18 63.2969 156.18ZM73.9613 156.18C71.3441 156.18 69.7581 154.469 69.7581 151.711V151.703C69.7581 148.969 71.3597 147.211 73.8675 147.211C76.3753 147.211 77.9378 148.93 77.9378 151.531V152.242H72.0159C72.0394 153.656 72.7972 154.477 74.0081 154.477C75.0081 154.477 75.5628 153.945 75.7191 153.617L75.7425 153.57H77.8675L77.8519 153.648C77.5863 154.727 76.4769 156.18 73.9613 156.18ZM73.9066 148.922C72.9144 148.922 72.18 149.594 72.0394 150.812H75.7503C75.6097 149.562 74.8988 148.922 73.9066 148.922ZM79.485 156V147.398H81.7663V148.727H81.9069C82.2975 147.797 83.1491 147.211 84.3756 147.211C86.2897 147.211 87.3209 148.383 87.3209 150.438V156H85.0397V150.953C85.0397 149.742 84.5397 149.102 83.4616 149.102C82.4069 149.102 81.7663 149.859 81.7663 151.023V156H79.485ZM93.0009 156.18C90.3134 156.18 88.79 154.547 88.79 151.688V151.672C88.79 148.844 90.3056 147.211 93.0009 147.211C95.2822 147.211 96.6337 148.453 96.8369 150.375V150.398H94.7119L94.7041 150.383C94.5556 149.547 93.9853 149 93.0087 149C91.7822 149 91.1103 149.953 91.1103 151.672V151.688C91.1103 153.43 91.79 154.391 93.0087 154.391C93.9462 154.391 94.5009 153.945 94.7041 153.086L94.7197 153.055H96.8291L96.8212 153.102C96.5869 154.977 95.2431 156.18 93.0009 156.18ZM99.3216 159.031C99.0559 159.031 98.7669 159.023 98.5013 159.008V157.289C98.6575 157.305 98.8841 157.312 99.095 157.312C99.9075 157.312 100.376 157 100.54 156.328L100.618 156L97.595 147.398H100.103L101.908 153.914H102.064L103.868 147.398H106.275L103.345 155.992C102.579 158.266 101.447 159.031 99.3216 159.031Z" fill="#2E2E2E"/>
<path d="M89 337H687" stroke="#2E2E2E"/>
<path d="M163.75 343V337" stroke="#2E2E2E"/>
<path d="M112.187 363.52V354.793H115.383C116.003 354.793 116.515 354.895 116.922 355.1C117.328 355.301 117.632 355.575 117.834 355.922C118.035 356.266 118.136 356.654 118.136 357.085C118.136 357.449 118.069 357.756 117.936 358.006C117.802 358.253 117.623 358.452 117.399 358.602C117.177 358.75 116.933 358.858 116.666 358.926V359.011C116.956 359.026 117.238 359.119 117.514 359.293C117.792 359.463 118.023 359.706 118.204 360.021C118.386 360.337 118.477 360.72 118.477 361.172C118.477 361.618 118.372 362.019 118.162 362.374C117.954 362.726 117.633 363.006 117.199 363.213C116.764 363.418 116.209 363.52 115.532 363.52H112.187ZM113.504 362.391H115.405C116.035 362.391 116.487 362.269 116.76 362.024C117.032 361.78 117.169 361.475 117.169 361.108C117.169 360.833 117.099 360.58 116.96 360.35C116.821 360.119 116.622 359.936 116.363 359.8C116.108 359.663 115.804 359.595 115.452 359.595H113.504V362.391ZM113.504 358.568H115.268C115.564 358.568 115.829 358.511 116.065 358.398C116.304 358.284 116.493 358.125 116.632 357.921C116.774 357.713 116.845 357.469 116.845 357.188C116.845 356.827 116.719 356.524 116.466 356.28C116.213 356.036 115.825 355.913 115.302 355.913H113.504V358.568ZM121.841 363.665C121.427 363.665 121.052 363.588 120.716 363.435C120.381 363.279 120.116 363.053 119.92 362.757C119.726 362.462 119.63 362.1 119.63 361.671C119.63 361.301 119.701 360.997 119.843 360.759C119.985 360.52 120.177 360.331 120.418 360.192C120.66 360.053 120.93 359.948 121.228 359.877C121.526 359.806 121.83 359.752 122.14 359.715C122.532 359.669 122.85 359.632 123.094 359.604C123.339 359.573 123.516 359.523 123.627 359.455C123.738 359.386 123.793 359.276 123.793 359.122V359.092C123.793 358.72 123.688 358.432 123.478 358.227C123.27 358.023 122.961 357.921 122.549 357.921C122.12 357.921 121.782 358.016 121.535 358.206C121.29 358.394 121.121 358.602 121.028 358.833L119.83 358.56C119.972 358.162 120.18 357.841 120.452 357.597C120.728 357.35 121.045 357.171 121.403 357.06C121.76 356.946 122.137 356.889 122.532 356.889C122.793 356.889 123.07 356.921 123.363 356.983C123.658 357.043 123.934 357.154 124.189 357.315C124.448 357.477 124.66 357.709 124.824 358.01C124.989 358.308 125.072 358.696 125.072 359.173V363.52H123.827V362.625H123.776C123.694 362.79 123.57 362.952 123.405 363.111C123.241 363.27 123.029 363.402 122.77 363.507C122.512 363.612 122.202 363.665 121.841 363.665ZM122.118 362.642C122.471 362.642 122.772 362.573 123.022 362.433C123.275 362.294 123.466 362.112 123.597 361.888C123.731 361.661 123.797 361.418 123.797 361.159V360.315C123.752 360.361 123.664 360.404 123.533 360.443C123.405 360.48 123.259 360.513 123.094 360.541C122.93 360.567 122.769 360.591 122.613 360.614C122.456 360.634 122.326 360.651 122.221 360.665C121.974 360.696 121.748 360.749 121.543 360.823C121.341 360.896 121.18 361.003 121.057 361.142C120.938 361.279 120.878 361.46 120.878 361.688C120.878 362.003 120.995 362.242 121.228 362.404C121.461 362.563 121.758 362.642 122.118 362.642ZM129.526 363.652C128.892 363.652 128.347 363.509 127.889 363.222C127.435 362.932 127.085 362.533 126.841 362.024C126.597 361.516 126.475 360.933 126.475 360.277C126.475 359.612 126.6 359.026 126.85 358.517C127.1 358.006 127.452 357.607 127.906 357.32C128.361 357.033 128.896 356.889 129.513 356.889C130.01 356.889 130.453 356.982 130.843 357.166C131.232 357.348 131.546 357.604 131.784 357.933C132.026 358.263 132.169 358.648 132.215 359.088H130.975C130.906 358.781 130.75 358.517 130.506 358.296C130.264 358.074 129.941 357.963 129.534 357.963C129.179 357.963 128.868 358.057 128.601 358.244C128.337 358.429 128.131 358.693 127.983 359.037C127.835 359.378 127.762 359.781 127.762 360.247C127.762 360.725 127.834 361.136 127.979 361.483C128.124 361.83 128.328 362.098 128.593 362.288C128.86 362.479 129.173 362.574 129.534 362.574C129.776 362.574 129.994 362.53 130.191 362.442C130.389 362.351 130.556 362.222 130.689 362.054C130.825 361.886 130.921 361.685 130.975 361.449H132.215C132.169 361.872 132.031 362.25 131.801 362.583C131.571 362.915 131.263 363.176 130.877 363.367C130.493 363.557 130.043 363.652 129.526 363.652ZM134.749 361.3L134.741 359.744H134.962L137.57 356.975H139.096L136.121 360.128H135.921L134.749 361.3ZM133.577 363.52V354.793H134.851V363.52H133.577ZM137.711 363.52L135.367 360.409L136.245 359.519L139.275 363.52H137.711ZM142.732 366.111C142.212 366.111 141.764 366.043 141.389 365.906C141.017 365.77 140.713 365.59 140.477 365.365C140.242 365.141 140.066 364.895 139.949 364.628L141.044 364.176C141.121 364.301 141.223 364.433 141.351 364.573C141.482 364.715 141.658 364.835 141.879 364.935C142.104 365.034 142.392 365.084 142.744 365.084C143.227 365.084 143.627 364.966 143.942 364.73C144.257 364.497 144.415 364.125 144.415 363.614V362.327H144.334C144.257 362.466 144.146 362.621 144.002 362.791C143.86 362.962 143.664 363.11 143.414 363.235C143.164 363.36 142.838 363.422 142.438 363.422C141.921 363.422 141.455 363.301 141.04 363.06C140.628 362.815 140.301 362.456 140.06 361.982C139.821 361.504 139.702 360.918 139.702 360.222C139.702 359.526 139.82 358.929 140.056 358.432C140.294 357.935 140.621 357.554 141.036 357.29C141.45 357.023 141.921 356.889 142.446 356.889C142.852 356.889 143.181 356.958 143.431 357.094C143.681 357.227 143.875 357.384 144.014 357.563C144.156 357.742 144.266 357.899 144.343 358.036H144.436V356.975H145.685V363.665C145.685 364.227 145.554 364.689 145.293 365.05C145.031 365.411 144.678 365.678 144.232 365.851C143.789 366.024 143.289 366.111 142.732 366.111ZM142.719 362.365C143.085 362.365 143.395 362.28 143.648 362.11C143.904 361.936 144.097 361.689 144.227 361.368C144.361 361.044 144.428 360.656 144.428 360.205C144.428 359.764 144.362 359.377 144.232 359.041C144.101 358.706 143.909 358.445 143.656 358.257C143.404 358.067 143.091 357.972 142.719 357.972C142.335 357.972 142.016 358.071 141.76 358.27C141.504 358.466 141.311 358.733 141.181 359.071C141.053 359.409 140.989 359.787 140.989 360.205C140.989 360.634 141.054 361.01 141.185 361.334C141.316 361.658 141.509 361.911 141.764 362.092C142.023 362.274 142.341 362.365 142.719 362.365ZM147.394 363.52V356.975H148.625V358.014H148.693C148.813 357.662 149.023 357.385 149.324 357.183C149.628 356.979 149.972 356.877 150.355 356.877C150.435 356.877 150.529 356.879 150.637 356.885C150.747 356.891 150.834 356.898 150.896 356.906V358.125C150.845 358.111 150.754 358.095 150.624 358.078C150.493 358.058 150.362 358.048 150.232 358.048C149.931 358.048 149.662 358.112 149.426 358.24C149.193 358.365 149.009 358.54 148.872 358.764C148.736 358.986 148.668 359.239 148.668 359.523V363.52H147.394ZM154.522 363.652C153.908 363.652 153.373 363.511 152.915 363.23C152.458 362.949 152.103 362.556 151.85 362.05C151.597 361.544 151.471 360.953 151.471 360.277C151.471 359.598 151.597 359.004 151.85 358.496C152.103 357.987 152.458 357.592 152.915 357.311C153.373 357.03 153.908 356.889 154.522 356.889C155.135 356.889 155.671 357.03 156.128 357.311C156.586 357.592 156.941 357.987 157.194 358.496C157.447 359.004 157.573 359.598 157.573 360.277C157.573 360.953 157.447 361.544 157.194 362.05C156.941 362.556 156.586 362.949 156.128 363.23C155.671 363.511 155.135 363.652 154.522 363.652ZM154.526 362.583C154.924 362.583 155.253 362.477 155.515 362.267C155.776 362.057 155.969 361.777 156.094 361.428C156.222 361.078 156.286 360.693 156.286 360.273C156.286 359.855 156.222 359.472 156.094 359.122C155.969 358.77 155.776 358.487 155.515 358.274C155.253 358.061 154.924 357.955 154.526 357.955C154.126 357.955 153.793 358.061 153.529 358.274C153.268 358.487 153.073 358.77 152.945 359.122C152.82 359.472 152.758 359.855 152.758 360.273C152.758 360.693 152.82 361.078 152.945 361.428C153.073 361.777 153.268 362.057 153.529 362.267C153.793 362.477 154.126 362.583 154.526 362.583ZM163.142 360.806V356.975H164.42V363.52H163.167V362.386H163.099C162.948 362.736 162.707 363.027 162.374 363.26C162.045 363.49 161.634 363.605 161.143 363.605C160.722 363.605 160.35 363.513 160.026 363.328C159.705 363.141 159.453 362.864 159.268 362.497C159.086 362.131 158.995 361.678 158.995 361.138V356.975H160.269V360.985C160.269 361.431 160.393 361.786 160.64 362.05C160.887 362.314 161.208 362.446 161.603 362.446C161.842 362.446 162.079 362.386 162.315 362.267C162.553 362.148 162.751 361.967 162.907 361.726C163.066 361.485 163.144 361.178 163.142 360.806ZM167.406 359.634V363.52H166.132V356.975H167.355V358.04H167.436C167.586 357.693 167.822 357.415 168.143 357.205C168.467 356.994 168.875 356.889 169.366 356.889C169.812 356.889 170.203 356.983 170.538 357.171C170.873 357.355 171.133 357.631 171.318 357.997C171.503 358.364 171.595 358.817 171.595 359.357V363.52H170.321V359.51C170.321 359.036 170.197 358.665 169.95 358.398C169.703 358.128 169.363 357.993 168.932 357.993C168.636 357.993 168.373 358.057 168.143 358.185C167.916 358.313 167.736 358.5 167.602 358.747C167.471 358.992 167.406 359.287 167.406 359.634ZM175.754 363.648C175.226 363.648 174.754 363.513 174.339 363.243C173.927 362.97 173.604 362.583 173.368 362.08C173.135 361.574 173.018 360.967 173.018 360.26C173.018 359.553 173.136 358.948 173.372 358.445C173.611 357.942 173.937 357.557 174.352 357.29C174.767 357.023 175.237 356.889 175.763 356.889C176.169 356.889 176.496 356.958 176.743 357.094C176.993 357.227 177.186 357.384 177.322 357.563C177.461 357.742 177.569 357.899 177.646 358.036H177.723V354.793H178.997V363.52H177.753V362.502H177.646C177.569 362.641 177.459 362.8 177.314 362.979C177.172 363.158 176.976 363.314 176.726 363.448C176.476 363.581 176.152 363.648 175.754 363.648ZM176.035 362.561C176.402 362.561 176.711 362.465 176.964 362.271C177.22 362.075 177.413 361.804 177.544 361.458C177.677 361.111 177.744 360.708 177.744 360.247C177.744 359.793 177.679 359.395 177.548 359.054C177.417 358.713 177.226 358.448 176.973 358.257C176.72 358.067 176.407 357.972 176.035 357.972C175.652 357.972 175.332 358.071 175.077 358.27C174.821 358.469 174.628 358.74 174.497 359.084C174.369 359.428 174.305 359.815 174.305 360.247C174.305 360.685 174.371 361.078 174.501 361.428C174.632 361.777 174.825 362.054 175.081 362.259C175.339 362.46 175.657 362.561 176.035 362.561ZM184.094 354.793H185.692L188.47 361.577H188.572L191.351 354.793H192.949V363.52H191.696V357.205H191.615L189.041 363.507H188.001L185.427 357.2H185.346V363.52H184.094V354.793ZM198.907 360.806V356.975H200.186V363.52H198.933V362.386H198.865C198.714 362.736 198.472 363.027 198.14 363.26C197.811 363.49 197.4 363.605 196.909 363.605C196.488 363.605 196.116 363.513 195.792 363.328C195.471 363.141 195.218 362.864 195.034 362.497C194.852 362.131 194.761 361.678 194.761 361.138V356.975H196.035V360.985C196.035 361.431 196.159 361.786 196.406 362.05C196.653 362.314 196.974 362.446 197.369 362.446C197.607 362.446 197.845 362.386 198.08 362.267C198.319 362.148 198.517 361.967 198.673 361.726C198.832 361.485 198.91 361.178 198.907 360.806ZM206.802 358.573L205.648 358.777C205.599 358.629 205.523 358.489 205.417 358.355C205.315 358.222 205.176 358.112 205 358.027C204.824 357.942 204.604 357.899 204.339 357.899C203.979 357.899 203.677 357.98 203.436 358.142C203.194 358.301 203.074 358.507 203.074 358.76C203.074 358.979 203.155 359.155 203.317 359.288C203.479 359.422 203.74 359.531 204.101 359.617L205.14 359.855C205.743 359.994 206.192 360.209 206.487 360.499C206.782 360.788 206.93 361.165 206.93 361.628C206.93 362.02 206.817 362.369 206.589 362.676C206.365 362.98 206.051 363.219 205.648 363.392C205.247 363.565 204.782 363.652 204.254 363.652C203.521 363.652 202.923 363.496 202.46 363.183C201.997 362.868 201.713 362.421 201.608 361.841L202.839 361.654C202.916 361.975 203.074 362.217 203.312 362.382C203.551 362.544 203.862 362.625 204.246 362.625C204.663 362.625 204.997 362.538 205.247 362.365C205.497 362.189 205.622 361.975 205.622 361.722C205.622 361.517 205.545 361.345 205.392 361.206C205.241 361.067 205.01 360.962 204.697 360.891L203.589 360.648C202.979 360.509 202.527 360.287 202.234 359.983C201.944 359.679 201.8 359.294 201.8 358.828C201.8 358.442 201.907 358.104 202.123 357.814C202.339 357.524 202.638 357.298 203.018 357.136C203.399 356.972 203.835 356.889 204.327 356.889C205.034 356.889 205.591 357.043 205.997 357.35C206.403 357.654 206.672 358.061 206.802 358.573ZM208.331 363.52V356.975H209.605V363.52H208.331ZM208.975 355.965C208.753 355.965 208.563 355.891 208.404 355.743C208.247 355.592 208.169 355.413 208.169 355.206C208.169 354.996 208.247 354.817 208.404 354.669C208.563 354.519 208.753 354.443 208.975 354.443C209.196 354.443 209.385 354.519 209.541 354.669C209.7 354.817 209.78 354.996 209.78 355.206C209.78 355.413 209.7 355.592 209.541 355.743C209.385 355.891 209.196 355.965 208.975 355.965ZM214.077 363.652C213.443 363.652 212.898 363.509 212.44 363.222C211.986 362.932 211.636 362.533 211.392 362.024C211.148 361.516 211.025 360.933 211.025 360.277C211.025 359.612 211.15 359.026 211.4 358.517C211.65 358.006 212.003 357.607 212.457 357.32C212.912 357.033 213.447 356.889 214.064 356.889C214.561 356.889 215.004 356.982 215.393 357.166C215.782 357.348 216.096 357.604 216.335 357.933C216.577 358.263 216.72 358.648 216.765 359.088H215.525C215.457 358.781 215.301 358.517 215.057 358.296C214.815 358.074 214.491 357.963 214.085 357.963C213.73 357.963 213.419 358.057 213.152 358.244C212.888 358.429 212.682 358.693 212.534 359.037C212.386 359.378 212.312 359.781 212.312 360.247C212.312 360.725 212.385 361.136 212.53 361.483C212.675 361.83 212.879 362.098 213.143 362.288C213.41 362.479 213.724 362.574 214.085 362.574C214.327 362.574 214.545 362.53 214.741 362.442C214.94 362.351 215.106 362.222 215.24 362.054C215.376 361.886 215.471 361.685 215.525 361.449H216.765C216.72 361.872 216.582 362.25 216.352 362.583C216.122 362.915 215.814 363.176 215.427 363.367C215.044 363.557 214.594 363.652 214.077 363.652Z" fill="#2E2E2E"/>
<path d="M313.25 343V337" stroke="#2E2E2E"/>
<path d="M254.344 363.52V354.793H257.454C258.131 354.793 258.692 354.909 259.138 355.142C259.586 355.375 259.922 355.698 260.143 356.11C260.365 356.519 260.476 356.992 260.476 357.529C260.476 358.063 260.363 358.533 260.139 358.939C259.917 359.342 259.582 359.656 259.133 359.881C258.687 360.105 258.126 360.217 257.45 360.217H255.094V359.084H257.331C257.757 359.084 258.104 359.023 258.371 358.901C258.64 358.779 258.838 358.601 258.963 358.368C259.088 358.135 259.15 357.855 259.15 357.529C259.15 357.199 259.086 356.913 258.959 356.672C258.834 356.431 258.636 356.246 258.366 356.118C258.099 355.987 257.748 355.922 257.314 355.922H255.66V363.52H254.344ZM258.652 359.583L260.808 363.52H259.308L257.194 359.583H258.652ZM264.715 363.652C264.07 363.652 263.514 363.514 263.048 363.239C262.585 362.96 262.227 362.57 261.975 362.067C261.725 361.561 261.6 360.969 261.6 360.29C261.6 359.619 261.725 359.029 261.975 358.517C262.227 358.006 262.58 357.607 263.031 357.32C263.486 357.033 264.017 356.889 264.625 356.889C264.994 356.889 265.352 356.95 265.699 357.073C266.046 357.195 266.357 357.386 266.632 357.648C266.908 357.909 267.125 358.249 267.284 358.666C267.443 359.081 267.523 359.585 267.523 360.179V360.631H262.32V359.676H266.274C266.274 359.341 266.206 359.044 266.07 358.786C265.933 358.524 265.742 358.318 265.494 358.168C265.25 358.017 264.963 357.942 264.634 357.942C264.276 357.942 263.963 358.03 263.696 358.206C263.432 358.379 263.227 358.607 263.083 358.888C262.941 359.166 262.869 359.469 262.869 359.796V360.541C262.869 360.979 262.946 361.351 263.1 361.658C263.256 361.965 263.473 362.199 263.752 362.361C264.03 362.52 264.355 362.6 264.727 362.6C264.969 362.6 265.189 362.565 265.388 362.497C265.587 362.426 265.759 362.321 265.904 362.182C266.048 362.043 266.159 361.871 266.236 361.666L267.442 361.884C267.345 362.239 267.172 362.55 266.922 362.817C266.675 363.081 266.364 363.287 265.989 363.435C265.617 363.58 265.192 363.652 264.715 363.652ZM272.052 356.975V357.997H268.353V356.975H272.052ZM269.367 363.52V356.216C269.367 355.807 269.456 355.467 269.635 355.198C269.814 354.925 270.052 354.722 270.347 354.588C270.643 354.452 270.964 354.384 271.31 354.384C271.566 354.384 271.785 354.405 271.966 354.448C272.148 354.487 272.283 354.524 272.371 354.558L272.073 355.59C272.013 355.573 271.937 355.553 271.843 355.53C271.749 355.504 271.635 355.492 271.502 355.492C271.192 355.492 270.971 355.568 270.837 355.722C270.706 355.875 270.641 356.097 270.641 356.386V363.52H269.367ZM274.64 354.793V363.52H273.366V354.793H274.64ZM279.176 363.652C278.531 363.652 277.975 363.514 277.509 363.239C277.046 362.96 276.688 362.57 276.436 362.067C276.186 361.561 276.061 360.969 276.061 360.29C276.061 359.619 276.186 359.029 276.436 358.517C276.688 358.006 277.041 357.607 277.492 357.32C277.947 357.033 278.478 356.889 279.086 356.889C279.455 356.889 279.813 356.95 280.16 357.073C280.507 357.195 280.818 357.386 281.093 357.648C281.369 357.909 281.586 358.249 281.745 358.666C281.904 359.081 281.984 359.585 281.984 360.179V360.631H276.781V359.676H280.735C280.735 359.341 280.667 359.044 280.531 358.786C280.394 358.524 280.203 358.318 279.955 358.168C279.711 358.017 279.424 357.942 279.095 357.942C278.737 357.942 278.424 358.03 278.157 358.206C277.893 358.379 277.688 358.607 277.544 358.888C277.401 359.166 277.33 359.469 277.33 359.796V360.541C277.33 360.979 277.407 361.351 277.561 361.658C277.717 361.965 277.934 362.199 278.213 362.361C278.491 362.52 278.816 362.6 279.188 362.6C279.43 362.6 279.65 362.565 279.849 362.497C280.048 362.426 280.22 362.321 280.365 362.182C280.509 362.043 280.62 361.871 280.697 361.666L281.903 361.884C281.806 362.239 281.633 362.55 281.383 362.817C281.136 363.081 280.825 363.287 280.45 363.435C280.078 363.58 279.653 363.652 279.176 363.652ZM286.155 363.652C285.521 363.652 284.976 363.509 284.518 363.222C284.064 362.932 283.714 362.533 283.47 362.024C283.226 361.516 283.104 360.933 283.104 360.277C283.104 359.612 283.229 359.026 283.479 358.517C283.729 358.006 284.081 357.607 284.535 357.32C284.99 357.033 285.525 356.889 286.142 356.889C286.639 356.889 287.082 356.982 287.471 357.166C287.861 357.348 288.175 357.604 288.413 357.933C288.655 358.263 288.798 358.648 288.844 359.088H287.604C287.535 358.781 287.379 358.517 287.135 358.296C286.893 358.074 286.569 357.963 286.163 357.963C285.808 357.963 285.497 358.057 285.23 358.244C284.966 358.429 284.76 358.693 284.612 359.037C284.464 359.378 284.39 359.781 284.39 360.247C284.39 360.725 284.463 361.136 284.608 361.483C284.753 361.83 284.957 362.098 285.221 362.288C285.488 362.479 285.802 362.574 286.163 362.574C286.405 362.574 286.623 362.53 286.819 362.442C287.018 362.351 287.184 362.222 287.318 362.054C287.454 361.886 287.55 361.685 287.604 361.449H288.844C288.798 361.872 288.66 362.25 288.43 362.583C288.2 362.915 287.892 363.176 287.506 363.367C287.122 363.557 286.672 363.652 286.155 363.652ZM293.262 356.975V357.997H289.686V356.975H293.262ZM290.645 355.406H291.919V361.598C291.919 361.845 291.956 362.031 292.03 362.156C292.104 362.279 292.199 362.362 292.316 362.408C292.435 362.45 292.564 362.472 292.703 362.472C292.806 362.472 292.895 362.465 292.972 362.45C293.048 362.436 293.108 362.425 293.151 362.416L293.381 363.469C293.307 363.497 293.202 363.526 293.066 363.554C292.929 363.585 292.759 363.602 292.554 363.605C292.219 363.611 291.906 363.551 291.617 363.426C291.327 363.301 291.093 363.108 290.914 362.847C290.735 362.585 290.645 362.257 290.645 361.862V355.406ZM294.671 363.52V356.975H295.945V363.52H294.671ZM295.314 355.965C295.093 355.965 294.903 355.891 294.743 355.743C294.587 355.592 294.509 355.413 294.509 355.206C294.509 354.996 294.587 354.817 294.743 354.669C294.903 354.519 295.093 354.443 295.314 354.443C295.536 354.443 295.725 354.519 295.881 354.669C296.04 354.817 296.12 354.996 296.12 355.206C296.12 355.413 296.04 355.592 295.881 355.743C295.725 355.891 295.536 355.965 295.314 355.965ZM298.933 359.634V363.52H297.659V356.975H298.882V358.04H298.963C299.114 357.693 299.35 357.415 299.671 357.205C299.994 356.994 300.402 356.889 300.894 356.889C301.34 356.889 301.73 356.983 302.066 357.171C302.401 357.355 302.661 357.631 302.845 357.997C303.03 358.364 303.122 358.817 303.122 359.357V363.52H301.848V359.51C301.848 359.036 301.725 358.665 301.477 358.398C301.23 358.128 300.891 357.993 300.459 357.993C300.164 357.993 299.901 358.057 299.671 358.185C299.443 358.313 299.263 358.5 299.129 358.747C298.999 358.992 298.933 359.287 298.933 359.634ZM307.575 366.111C307.056 366.111 306.608 366.043 306.233 365.906C305.861 365.77 305.557 365.59 305.321 365.365C305.085 365.141 304.909 364.895 304.793 364.628L305.888 364.176C305.965 364.301 306.067 364.433 306.195 364.573C306.325 364.715 306.502 364.835 306.723 364.935C306.948 365.034 307.236 365.084 307.588 365.084C308.071 365.084 308.47 364.966 308.786 364.73C309.101 364.497 309.259 364.125 309.259 363.614V362.327H309.178C309.101 362.466 308.99 362.621 308.845 362.791C308.703 362.962 308.507 363.11 308.257 363.235C308.007 363.36 307.682 363.422 307.281 363.422C306.764 363.422 306.298 363.301 305.884 363.06C305.472 362.815 305.145 362.456 304.904 361.982C304.665 361.504 304.546 360.918 304.546 360.222C304.546 359.526 304.664 358.929 304.899 358.432C305.138 357.935 305.465 357.554 305.879 357.29C306.294 357.023 306.764 356.889 307.29 356.889C307.696 356.889 308.024 356.958 308.274 357.094C308.524 357.227 308.719 357.384 308.858 357.563C309 357.742 309.11 357.899 309.186 358.036H309.28V356.975H310.529V363.665C310.529 364.227 310.398 364.689 310.137 365.05C309.875 365.411 309.521 365.678 309.075 365.851C308.632 366.024 308.132 366.111 307.575 366.111ZM307.563 362.365C307.929 362.365 308.239 362.28 308.492 362.11C308.747 361.936 308.941 361.689 309.071 361.368C309.205 361.044 309.271 360.656 309.271 360.205C309.271 359.764 309.206 359.377 309.075 359.041C308.945 358.706 308.753 358.445 308.5 358.257C308.247 358.067 307.935 357.972 307.563 357.972C307.179 357.972 306.86 358.071 306.604 358.27C306.348 358.466 306.155 358.733 306.024 359.071C305.896 359.409 305.833 359.787 305.833 360.205C305.833 360.634 305.898 361.01 306.029 361.334C306.159 361.658 306.352 361.911 306.608 362.092C306.867 362.274 307.185 362.365 307.563 362.365ZM318.469 356.975V357.997H314.893V356.975H318.469ZM315.852 355.406H317.126V361.598C317.126 361.845 317.163 362.031 317.237 362.156C317.311 362.279 317.406 362.362 317.523 362.408C317.642 362.45 317.771 362.472 317.91 362.472C318.013 362.472 318.102 362.465 318.179 362.45C318.256 362.436 318.315 362.425 318.358 362.416L318.588 363.469C318.514 363.497 318.409 363.526 318.273 363.554C318.136 363.585 317.966 363.602 317.761 363.605C317.426 363.611 317.113 363.551 316.824 363.426C316.534 363.301 316.3 363.108 316.121 362.847C315.942 362.585 315.852 362.257 315.852 361.862V355.406ZM321.293 359.634V363.52H320.019V354.793H321.276V358.04H321.357C321.51 357.688 321.744 357.408 322.06 357.2C322.375 356.993 322.787 356.889 323.296 356.889C323.744 356.889 324.137 356.982 324.472 357.166C324.81 357.351 325.071 357.627 325.256 357.993C325.443 358.357 325.537 358.811 325.537 359.357V363.52H324.263V359.51C324.263 359.03 324.139 358.658 323.892 358.394C323.645 358.127 323.301 357.993 322.861 357.993C322.56 357.993 322.29 358.057 322.051 358.185C321.816 358.313 321.629 358.5 321.493 358.747C321.36 358.992 321.293 359.287 321.293 359.634ZM330.058 363.652C329.414 363.652 328.858 363.514 328.392 363.239C327.929 362.96 327.571 362.57 327.318 362.067C327.068 361.561 326.943 360.969 326.943 360.29C326.943 359.619 327.068 359.029 327.318 358.517C327.571 358.006 327.923 357.607 328.375 357.32C328.83 357.033 329.361 356.889 329.969 356.889C330.338 356.889 330.696 356.95 331.043 357.073C331.389 357.195 331.7 357.386 331.976 357.648C332.252 357.909 332.469 358.249 332.628 358.666C332.787 359.081 332.867 359.585 332.867 360.179V360.631H327.664V359.676H331.618C331.618 359.341 331.55 359.044 331.414 358.786C331.277 358.524 331.085 358.318 330.838 358.168C330.594 358.017 330.307 357.942 329.977 357.942C329.619 357.942 329.307 358.03 329.04 358.206C328.776 358.379 328.571 358.607 328.426 358.888C328.284 359.166 328.213 359.469 328.213 359.796V360.541C328.213 360.979 328.29 361.351 328.443 361.658C328.6 361.965 328.817 362.199 329.095 362.361C329.374 362.52 329.699 362.6 330.071 362.6C330.313 362.6 330.533 362.565 330.732 362.497C330.931 362.426 331.102 362.321 331.247 362.182C331.392 362.043 331.503 361.871 331.58 361.666L332.786 361.884C332.689 362.239 332.516 362.55 332.266 362.817C332.019 363.081 331.708 363.287 331.333 363.435C330.96 363.58 330.536 363.652 330.058 363.652ZM340.512 356.975V357.997H336.936V356.975H340.512ZM337.895 355.406H339.169V361.598C339.169 361.845 339.206 362.031 339.28 362.156C339.354 362.279 339.449 362.362 339.566 362.408C339.685 362.45 339.814 362.472 339.953 362.472C340.056 362.472 340.145 362.465 340.222 362.45C340.298 362.436 340.358 362.425 340.401 362.416L340.631 363.469C340.557 363.497 340.452 363.526 340.316 363.554C340.179 363.585 340.009 363.602 339.804 363.605C339.469 363.611 339.156 363.551 338.867 363.426C338.577 363.301 338.343 363.108 338.164 362.847C337.985 362.585 337.895 362.257 337.895 361.862V355.406ZM343.336 359.634V363.52H342.062V354.793H343.319V358.04H343.4C343.553 357.688 343.787 357.408 344.103 357.2C344.418 356.993 344.83 356.889 345.339 356.889C345.787 356.889 346.18 356.982 346.515 357.166C346.853 357.351 347.114 357.627 347.299 357.993C347.486 358.357 347.58 358.811 347.58 359.357V363.52H346.306V359.51C346.306 359.03 346.182 358.658 345.935 358.394C345.688 358.127 345.344 357.993 344.904 357.993C344.603 357.993 344.333 358.057 344.094 358.185C343.858 358.313 343.672 358.5 343.536 358.747C343.403 358.992 343.336 359.287 343.336 359.634ZM352.101 363.652C351.456 363.652 350.901 363.514 350.435 363.239C349.972 362.96 349.614 362.57 349.361 362.067C349.111 361.561 348.986 360.969 348.986 360.29C348.986 359.619 349.111 359.029 349.361 358.517C349.614 358.006 349.966 357.607 350.418 357.32C350.873 357.033 351.404 356.889 352.012 356.889C352.381 356.889 352.739 356.95 353.086 357.073C353.432 357.195 353.743 357.386 354.019 357.648C354.295 357.909 354.512 358.249 354.671 358.666C354.83 359.081 354.91 359.585 354.91 360.179V360.631H349.706V359.676H353.661C353.661 359.341 353.593 359.044 353.456 358.786C353.32 358.524 353.128 358.318 352.881 358.168C352.637 358.017 352.35 357.942 352.02 357.942C351.662 357.942 351.35 358.03 351.083 358.206C350.819 358.379 350.614 358.607 350.469 358.888C350.327 359.166 350.256 359.469 350.256 359.796V360.541C350.256 360.979 350.333 361.351 350.486 361.658C350.643 361.965 350.86 362.199 351.138 362.361C351.417 362.52 351.742 362.6 352.114 362.6C352.356 362.6 352.576 362.565 352.775 362.497C352.974 362.426 353.145 362.321 353.29 362.182C353.435 362.043 353.546 361.871 353.623 361.666L354.829 361.884C354.732 362.239 354.559 362.55 354.309 362.817C354.062 363.081 353.751 363.287 353.376 363.435C353.003 363.58 352.579 363.652 352.101 363.652ZM356.323 363.52V356.975H357.546V358.04H357.627C357.764 357.679 357.987 357.398 358.296 357.196C358.606 356.992 358.977 356.889 359.409 356.889C359.846 356.889 360.213 356.992 360.508 357.196C360.806 357.401 361.026 357.682 361.169 358.04H361.237C361.393 357.69 361.642 357.412 361.982 357.205C362.323 356.994 362.73 356.889 363.201 356.889C363.795 356.889 364.279 357.075 364.654 357.448C365.032 357.82 365.221 358.381 365.221 359.131V363.52H363.947V359.25C363.947 358.807 363.826 358.486 363.585 358.287C363.343 358.088 363.055 357.989 362.72 357.989C362.305 357.989 361.982 358.117 361.752 358.372C361.522 358.625 361.407 358.95 361.407 359.348V363.52H360.137V359.169C360.137 358.814 360.026 358.529 359.805 358.313C359.583 358.097 359.295 357.989 358.94 357.989C358.698 357.989 358.475 358.053 358.271 358.181C358.069 358.306 357.906 358.48 357.781 358.705C357.659 358.929 357.597 359.189 357.597 359.485V363.52H356.323ZM369.75 363.652C369.105 363.652 368.55 363.514 368.084 363.239C367.621 362.96 367.263 362.57 367.01 362.067C366.76 361.561 366.635 360.969 366.635 360.29C366.635 359.619 366.76 359.029 367.01 358.517C367.263 358.006 367.615 357.607 368.067 357.32C368.521 357.033 369.052 356.889 369.66 356.889C370.03 356.889 370.388 356.95 370.734 357.073C371.081 357.195 371.392 357.386 371.667 357.648C371.943 357.909 372.16 358.249 372.319 358.666C372.479 359.081 372.558 359.585 372.558 360.179V360.631H367.355V359.676H371.309C371.309 359.341 371.241 359.044 371.105 358.786C370.969 358.524 370.777 358.318 370.53 358.168C370.285 358.017 369.998 357.942 369.669 357.942C369.311 357.942 368.998 358.03 368.731 358.206C368.467 358.379 368.263 358.607 368.118 358.888C367.976 359.166 367.905 359.469 367.905 359.796V360.541C367.905 360.979 367.981 361.351 368.135 361.658C368.291 361.965 368.508 362.199 368.787 362.361C369.065 362.52 369.39 362.6 369.763 362.6C370.004 362.6 370.224 362.565 370.423 362.497C370.622 362.426 370.794 362.321 370.939 362.182C371.084 362.043 371.194 361.871 371.271 361.666L372.477 361.884C372.381 362.239 372.207 362.55 371.957 362.817C371.71 363.081 371.399 363.287 371.024 363.435C370.652 363.58 370.227 363.652 369.75 363.652ZM293.069 378.652C292.455 378.652 291.92 378.511 291.462 378.23C291.005 377.949 290.65 377.556 290.397 377.05C290.144 376.544 290.018 375.953 290.018 375.277C290.018 374.598 290.144 374.004 290.397 373.496C290.65 372.987 291.005 372.592 291.462 372.311C291.92 372.03 292.455 371.889 293.069 371.889C293.682 371.889 294.218 372.03 294.675 372.311C295.133 372.592 295.488 372.987 295.741 373.496C295.993 374.004 296.12 374.598 296.12 375.277C296.12 375.953 295.993 376.544 295.741 377.05C295.488 377.556 295.133 377.949 294.675 378.23C294.218 378.511 293.682 378.652 293.069 378.652ZM293.073 377.583C293.471 377.583 293.8 377.477 294.062 377.267C294.323 377.057 294.516 376.777 294.641 376.428C294.769 376.078 294.833 375.693 294.833 375.273C294.833 374.855 294.769 374.472 294.641 374.122C294.516 373.77 294.323 373.487 294.062 373.274C293.8 373.061 293.471 372.955 293.073 372.955C292.672 372.955 292.34 373.061 292.076 373.274C291.814 373.487 291.62 373.77 291.492 374.122C291.367 374.472 291.305 374.855 291.305 375.273C291.305 375.693 291.367 376.078 291.492 376.428C291.62 376.777 291.814 377.057 292.076 377.267C292.34 377.477 292.672 377.583 293.073 377.583ZM297.542 378.52V371.975H298.774V373.014H298.842C298.961 372.662 299.171 372.385 299.472 372.183C299.776 371.979 300.12 371.877 300.504 371.877C300.583 371.877 300.677 371.879 300.785 371.885C300.896 371.891 300.982 371.898 301.045 371.906V373.125C300.994 373.111 300.903 373.095 300.772 373.078C300.642 373.058 300.511 373.048 300.38 373.048C300.079 373.048 299.811 373.112 299.575 373.24C299.342 373.365 299.157 373.54 299.021 373.764C298.884 373.986 298.816 374.239 298.816 374.523V378.52H297.542ZM305.323 378.52V371.975H306.546V373.04H306.627C306.764 372.679 306.987 372.398 307.296 372.196C307.606 371.992 307.977 371.889 308.409 371.889C308.846 371.889 309.213 371.992 309.508 372.196C309.806 372.401 310.026 372.682 310.169 373.04H310.237C310.393 372.69 310.642 372.412 310.982 372.205C311.323 371.994 311.73 371.889 312.201 371.889C312.795 371.889 313.279 372.075 313.654 372.448C314.032 372.82 314.221 373.381 314.221 374.131V378.52H312.947V374.25C312.947 373.807 312.826 373.486 312.585 373.287C312.343 373.088 312.055 372.989 311.72 372.989C311.305 372.989 310.982 373.117 310.752 373.372C310.522 373.625 310.407 373.95 310.407 374.348V378.52H309.137V374.169C309.137 373.814 309.026 373.529 308.805 373.313C308.583 373.097 308.295 372.989 307.94 372.989C307.698 372.989 307.475 373.053 307.271 373.181C307.069 373.306 306.906 373.48 306.781 373.705C306.659 373.929 306.597 374.189 306.597 374.485V378.52H305.323ZM318.686 378.652C318.072 378.652 317.537 378.511 317.079 378.23C316.622 377.949 316.267 377.556 316.014 377.05C315.761 376.544 315.635 375.953 315.635 375.277C315.635 374.598 315.761 374.004 316.014 373.496C316.267 372.987 316.622 372.592 317.079 372.311C317.537 372.03 318.072 371.889 318.686 371.889C319.3 371.889 319.835 372.03 320.292 372.311C320.75 372.592 321.105 372.987 321.358 373.496C321.611 374.004 321.737 374.598 321.737 375.277C321.737 375.953 321.611 376.544 321.358 377.05C321.105 377.556 320.75 377.949 320.292 378.23C319.835 378.511 319.3 378.652 318.686 378.652ZM318.69 377.583C319.088 377.583 319.417 377.477 319.679 377.267C319.94 377.057 320.133 376.777 320.258 376.428C320.386 376.078 320.45 375.693 320.45 375.273C320.45 374.855 320.386 374.472 320.258 374.122C320.133 373.77 319.94 373.487 319.679 373.274C319.417 373.061 319.088 372.955 318.69 372.955C318.29 372.955 317.957 373.061 317.693 373.274C317.432 373.487 317.237 373.77 317.109 374.122C316.984 374.472 316.922 374.855 316.922 375.273C316.922 375.693 316.984 376.078 317.109 376.428C317.237 376.777 317.432 377.057 317.693 377.267C317.957 377.477 318.29 377.583 318.69 377.583ZM325.916 378.652C325.303 378.652 324.767 378.511 324.31 378.23C323.852 377.949 323.497 377.556 323.244 377.05C322.992 376.544 322.865 375.953 322.865 375.277C322.865 374.598 322.992 374.004 323.244 373.496C323.497 372.987 323.852 372.592 324.31 372.311C324.767 372.03 325.303 371.889 325.916 371.889C326.53 371.889 327.066 372.03 327.523 372.311C327.98 372.592 328.335 372.987 328.588 373.496C328.841 374.004 328.968 374.598 328.968 375.277C328.968 375.953 328.841 376.544 328.588 377.05C328.335 377.556 327.98 377.949 327.523 378.23C327.066 378.511 326.53 378.652 325.916 378.652ZM325.921 377.583C326.318 377.583 326.648 377.477 326.909 377.267C327.171 377.057 327.364 376.777 327.489 376.428C327.617 376.078 327.681 375.693 327.681 375.273C327.681 374.855 327.617 374.472 327.489 374.122C327.364 373.77 327.171 373.487 326.909 373.274C326.648 373.061 326.318 372.955 325.921 372.955C325.52 372.955 325.188 373.061 324.923 373.274C324.662 373.487 324.468 373.77 324.34 374.122C324.215 374.472 324.152 374.855 324.152 375.273C324.152 375.693 324.215 376.078 324.34 376.428C324.468 376.777 324.662 377.057 324.923 377.267C325.188 377.477 325.52 377.583 325.921 377.583ZM332.84 378.648C332.312 378.648 331.84 378.513 331.425 378.243C331.013 377.97 330.689 377.583 330.454 377.08C330.221 376.574 330.104 375.967 330.104 375.26C330.104 374.553 330.222 373.948 330.458 373.445C330.697 372.942 331.023 372.557 331.438 372.29C331.853 372.023 332.323 371.889 332.849 371.889C333.255 371.889 333.581 371.958 333.829 372.094C334.079 372.227 334.272 372.384 334.408 372.563C334.547 372.742 334.655 372.899 334.732 373.036H334.809V369.793H336.083V378.52H334.839V377.502H334.732C334.655 377.641 334.545 377.8 334.4 377.979C334.258 378.158 334.062 378.314 333.812 378.448C333.562 378.581 333.238 378.648 332.84 378.648ZM333.121 377.561C333.488 377.561 333.797 377.465 334.05 377.271C334.306 377.075 334.499 376.804 334.63 376.458C334.763 376.111 334.83 375.708 334.83 375.247C334.83 374.793 334.765 374.395 334.634 374.054C334.503 373.713 334.312 373.448 334.059 373.257C333.806 373.067 333.493 372.972 333.121 372.972C332.738 372.972 332.418 373.071 332.162 373.27C331.907 373.469 331.714 373.74 331.583 374.084C331.455 374.428 331.391 374.815 331.391 375.247C331.391 375.685 331.456 376.078 331.587 376.428C331.718 376.777 331.911 377.054 332.167 377.259C332.425 377.46 332.743 377.561 333.121 377.561Z" fill="#2E2E2E"/>
<path d="M462.75 343V337" stroke="#2E2E2E"/>
<path d="M430.633 354.793V363.52H429.316V354.793H430.633ZM433.722 359.634V363.52H432.448V356.975H433.671V358.04H433.752C433.903 357.693 434.139 357.415 434.46 357.205C434.784 356.994 435.191 356.889 435.683 356.889C436.129 356.889 436.519 356.983 436.855 357.171C437.19 357.355 437.45 357.631 437.634 357.997C437.819 358.364 437.911 358.817 437.911 359.357V363.52H436.637V359.51C436.637 359.036 436.514 358.665 436.267 358.398C436.019 358.128 435.68 357.993 435.248 357.993C434.953 357.993 434.69 358.057 434.46 358.185C434.232 358.313 434.052 358.5 433.919 358.747C433.788 358.992 433.722 359.287 433.722 359.634ZM442.676 356.975V357.997H439.1V356.975H442.676ZM440.059 355.406H441.333V361.598C441.333 361.845 441.37 362.031 441.444 362.156C441.518 362.279 441.613 362.362 441.73 362.408C441.849 362.45 441.978 362.472 442.117 362.472C442.22 362.472 442.309 362.465 442.386 362.45C442.463 362.436 442.522 362.425 442.565 362.416L442.795 363.469C442.721 363.497 442.616 363.526 442.48 363.554C442.343 363.585 442.173 363.602 441.968 363.605C441.633 363.611 441.32 363.551 441.031 363.426C440.741 363.301 440.507 363.108 440.328 362.847C440.149 362.585 440.059 362.257 440.059 361.862V355.406ZM444.085 363.52V356.975H445.317V358.014H445.385C445.504 357.662 445.714 357.385 446.015 357.183C446.319 356.979 446.663 356.877 447.047 356.877C447.126 356.877 447.22 356.879 447.328 356.885C447.439 356.891 447.525 356.898 447.588 356.906V358.125C447.537 358.111 447.446 358.095 447.315 358.078C447.184 358.058 447.054 358.048 446.923 358.048C446.622 358.048 446.354 358.112 446.118 358.24C445.885 358.365 445.7 358.54 445.564 358.764C445.427 358.986 445.359 359.239 445.359 359.523V363.52H444.085ZM451.213 363.652C450.6 363.652 450.064 363.511 449.607 363.23C449.149 362.949 448.794 362.556 448.541 362.05C448.289 361.544 448.162 360.953 448.162 360.277C448.162 359.598 448.289 359.004 448.541 358.496C448.794 357.987 449.149 357.592 449.607 357.311C450.064 357.03 450.6 356.889 451.213 356.889C451.827 356.889 452.362 357.03 452.82 357.311C453.277 357.592 453.632 357.987 453.885 358.496C454.138 359.004 454.264 359.598 454.264 360.277C454.264 360.953 454.138 361.544 453.885 362.05C453.632 362.556 453.277 362.949 452.82 363.23C452.362 363.511 451.827 363.652 451.213 363.652ZM451.218 362.583C451.615 362.583 451.945 362.477 452.206 362.267C452.468 362.057 452.661 361.777 452.786 361.428C452.914 361.078 452.977 360.693 452.977 360.273C452.977 359.855 452.914 359.472 452.786 359.122C452.661 358.77 452.468 358.487 452.206 358.274C451.945 358.061 451.615 357.955 451.218 357.955C450.817 357.955 450.485 358.061 450.22 358.274C449.959 358.487 449.764 358.77 449.637 359.122C449.512 359.472 449.449 359.855 449.449 360.273C449.449 360.693 449.512 361.078 449.637 361.428C449.764 361.777 449.959 362.057 450.22 362.267C450.485 362.477 450.817 362.583 451.218 362.583ZM458.137 363.648C457.608 363.648 457.137 363.513 456.722 363.243C456.31 362.97 455.986 362.583 455.751 362.08C455.518 361.574 455.401 360.967 455.401 360.26C455.401 359.553 455.519 358.948 455.755 358.445C455.993 357.942 456.32 357.557 456.735 357.29C457.15 357.023 457.62 356.889 458.145 356.889C458.552 356.889 458.878 356.958 459.126 357.094C459.376 357.227 459.569 357.384 459.705 357.563C459.844 357.742 459.952 357.899 460.029 358.036H460.106V354.793H461.38V363.52H460.135V362.502H460.029C459.952 362.641 459.841 362.8 459.697 362.979C459.555 363.158 459.358 363.314 459.108 363.448C458.858 363.581 458.535 363.648 458.137 363.648ZM458.418 362.561C458.785 362.561 459.094 362.465 459.347 362.271C459.603 362.075 459.796 361.804 459.927 361.458C460.06 361.111 460.127 360.708 460.127 360.247C460.127 359.793 460.062 359.395 459.931 359.054C459.8 358.713 459.608 358.448 459.356 358.257C459.103 358.067 458.79 357.972 458.418 357.972C458.035 357.972 457.715 358.071 457.459 358.27C457.204 358.469 457.01 358.74 456.88 359.084C456.752 359.428 456.688 359.815 456.688 360.247C456.688 360.685 456.753 361.078 456.884 361.428C457.015 361.777 457.208 362.054 457.464 362.259C457.722 362.46 458.04 362.561 458.418 362.561ZM467.345 360.806V356.975H468.623V363.52H467.37V362.386H467.302C467.151 362.736 466.91 363.027 466.578 363.26C466.248 363.49 465.838 363.605 465.346 363.605C464.926 363.605 464.553 363.513 464.23 363.328C463.909 363.141 463.656 362.864 463.471 362.497C463.289 362.131 463.198 361.678 463.198 361.138V356.975H464.472V360.985C464.472 361.431 464.596 361.786 464.843 362.05C465.09 362.314 465.411 362.446 465.806 362.446C466.045 362.446 466.282 362.386 466.518 362.267C466.757 362.148 466.954 361.967 467.11 361.726C467.269 361.485 467.347 361.178 467.345 360.806ZM473.092 363.652C472.459 363.652 471.913 363.509 471.456 363.222C471.001 362.932 470.652 362.533 470.407 362.024C470.163 361.516 470.041 360.933 470.041 360.277C470.041 359.612 470.166 359.026 470.416 358.517C470.666 358.006 471.018 357.607 471.473 357.32C471.927 357.033 472.463 356.889 473.079 356.889C473.577 356.889 474.02 356.982 474.409 357.166C474.798 357.348 475.112 357.604 475.351 357.933C475.592 358.263 475.736 358.648 475.781 359.088H474.541C474.473 358.781 474.317 358.517 474.072 358.296C473.831 358.074 473.507 357.963 473.101 357.963C472.746 357.963 472.434 358.057 472.167 358.244C471.903 358.429 471.697 358.693 471.55 359.037C471.402 359.378 471.328 359.781 471.328 360.247C471.328 360.725 471.4 361.136 471.545 361.483C471.69 361.83 471.895 362.098 472.159 362.288C472.426 362.479 472.74 362.574 473.101 362.574C473.342 362.574 473.561 362.53 473.757 362.442C473.956 362.351 474.122 362.222 474.256 362.054C474.392 361.886 474.487 361.685 474.541 361.449H475.781C475.736 361.872 475.598 362.25 475.368 362.583C475.138 362.915 474.829 363.176 474.443 363.367C474.059 363.557 473.609 363.652 473.092 363.652ZM480.199 356.975V357.997H476.624V356.975H480.199ZM477.583 355.406H478.857V361.598C478.857 361.845 478.894 362.031 478.968 362.156C479.041 362.279 479.137 362.362 479.253 362.408C479.372 362.45 479.502 362.472 479.641 362.472C479.743 362.472 479.833 362.465 479.909 362.45C479.986 362.436 480.046 362.425 480.088 362.416L480.318 363.469C480.244 363.497 480.139 363.526 480.003 363.554C479.867 363.585 479.696 363.602 479.492 363.605C479.156 363.611 478.844 363.551 478.554 363.426C478.264 363.301 478.03 363.108 477.851 362.847C477.672 362.585 477.583 362.257 477.583 361.862V355.406ZM481.608 363.52V356.975H482.883V363.52H481.608ZM482.252 355.965C482.03 355.965 481.84 355.891 481.681 355.743C481.525 355.592 481.447 355.413 481.447 355.206C481.447 354.996 481.525 354.817 481.681 354.669C481.84 354.519 482.03 354.443 482.252 354.443C482.474 354.443 482.662 354.519 482.819 354.669C482.978 354.817 483.057 354.996 483.057 355.206C483.057 355.413 482.978 355.592 482.819 355.743C482.662 355.891 482.474 355.965 482.252 355.965ZM487.354 363.652C486.74 363.652 486.205 363.511 485.747 363.23C485.29 362.949 484.935 362.556 484.682 362.05C484.429 361.544 484.303 360.953 484.303 360.277C484.303 359.598 484.429 359.004 484.682 358.496C484.935 357.987 485.29 357.592 485.747 357.311C486.205 357.03 486.74 356.889 487.354 356.889C487.968 356.889 488.503 357.03 488.96 357.311C489.418 357.592 489.773 357.987 490.026 358.496C490.279 359.004 490.405 359.598 490.405 360.277C490.405 360.953 490.279 361.544 490.026 362.05C489.773 362.556 489.418 362.949 488.96 363.23C488.503 363.511 487.968 363.652 487.354 363.652ZM487.358 362.583C487.756 362.583 488.085 362.477 488.347 362.267C488.608 362.057 488.801 361.777 488.926 361.428C489.054 361.078 489.118 360.693 489.118 360.273C489.118 359.855 489.054 359.472 488.926 359.122C488.801 358.77 488.608 358.487 488.347 358.274C488.085 358.061 487.756 357.955 487.358 357.955C486.958 357.955 486.625 358.061 486.361 358.274C486.1 358.487 485.905 358.77 485.777 359.122C485.652 359.472 485.59 359.855 485.59 360.273C485.59 360.693 485.652 361.078 485.777 361.428C485.905 361.777 486.1 362.057 486.361 362.267C486.625 362.477 486.958 362.583 487.358 362.583ZM493.101 359.634V363.52H491.827V356.975H493.05V358.04H493.131C493.282 357.693 493.518 357.415 493.839 357.205C494.162 356.994 494.57 356.889 495.062 356.889C495.508 356.889 495.898 356.983 496.233 357.171C496.569 357.355 496.829 357.631 497.013 357.997C497.198 358.364 497.29 358.817 497.29 359.357V363.52H496.016V359.51C496.016 359.036 495.893 358.665 495.645 358.398C495.398 358.128 495.059 357.993 494.627 357.993C494.331 357.993 494.069 358.057 493.839 358.185C493.611 358.313 493.431 358.5 493.297 358.747C493.167 358.992 493.101 359.287 493.101 359.634ZM389.401 374.898C389.401 373.83 389.542 372.847 389.823 371.949C390.104 371.051 390.515 370.223 391.055 369.465H392.222C392.012 369.746 391.816 370.091 391.634 370.5C391.452 370.909 391.293 371.358 391.157 371.847C391.02 372.333 390.914 372.837 390.837 373.36C390.76 373.879 390.722 374.392 390.722 374.898C390.722 375.574 390.789 376.259 390.922 376.952C391.056 377.645 391.236 378.288 391.464 378.882C391.691 379.476 391.944 379.96 392.222 380.335H391.055C390.515 379.577 390.104 378.749 389.823 377.851C389.542 376.953 389.401 375.969 389.401 374.898ZM394.84 374.634V378.52H393.566V371.975H394.789V373.04H394.869C395.02 372.693 395.256 372.415 395.577 372.205C395.901 371.994 396.308 371.889 396.8 371.889C397.246 371.889 397.637 371.983 397.972 372.171C398.307 372.355 398.567 372.631 398.752 372.997C398.936 373.364 399.029 373.817 399.029 374.357V378.52H397.754V374.51C397.754 374.036 397.631 373.665 397.384 373.398C397.137 373.128 396.797 372.993 396.365 372.993C396.07 372.993 395.807 373.057 395.577 373.185C395.35 373.313 395.169 373.5 395.036 373.747C394.905 373.992 394.84 374.287 394.84 374.634ZM403.494 378.652C402.881 378.652 402.345 378.511 401.888 378.23C401.431 377.949 401.075 377.556 400.823 377.05C400.57 376.544 400.443 375.953 400.443 375.277C400.443 374.598 400.57 374.004 400.823 373.496C401.075 372.987 401.431 372.592 401.888 372.311C402.345 372.03 402.881 371.889 403.494 371.889C404.108 371.889 404.644 372.03 405.101 372.311C405.558 372.592 405.914 372.987 406.166 373.496C406.419 374.004 406.546 374.598 406.546 375.277C406.546 375.953 406.419 376.544 406.166 377.05C405.914 377.556 405.558 377.949 405.101 378.23C404.644 378.511 404.108 378.652 403.494 378.652ZM403.499 377.583C403.896 377.583 404.226 377.477 404.487 377.267C404.749 377.057 404.942 376.777 405.067 376.428C405.195 376.078 405.259 375.693 405.259 375.273C405.259 374.855 405.195 374.472 405.067 374.122C404.942 373.77 404.749 373.487 404.487 373.274C404.226 373.061 403.896 372.955 403.499 372.955C403.098 372.955 402.766 373.061 402.502 373.274C402.24 373.487 402.046 373.77 401.918 374.122C401.793 374.472 401.73 374.855 401.73 375.273C401.73 375.693 401.793 376.078 401.918 376.428C402.046 376.777 402.24 377.057 402.502 377.267C402.766 377.477 403.098 377.583 403.499 377.583ZM411.023 371.975V372.997H407.448V371.975H411.023ZM408.407 370.406H409.681V376.598C409.681 376.845 409.718 377.031 409.792 377.156C409.866 377.279 409.961 377.362 410.077 377.408C410.197 377.45 410.326 377.472 410.465 377.472C410.567 377.472 410.657 377.465 410.733 377.45C410.81 377.436 410.87 377.425 410.912 377.416L411.143 378.469C411.069 378.497 410.964 378.526 410.827 378.554C410.691 378.585 410.52 378.602 410.316 378.605C409.981 378.611 409.668 378.551 409.378 378.426C409.089 378.301 408.854 378.108 408.675 377.847C408.496 377.585 408.407 377.257 408.407 376.862V370.406ZM417.028 378.52L415.101 371.975H416.418L417.701 376.781H417.765L419.052 371.975H420.368L421.647 376.76H421.711L422.985 371.975H424.302L422.38 378.52H421.08L419.751 373.794H419.653L418.323 378.52H417.028ZM426.785 374.634V378.52H425.511V369.793H426.768V373.04H426.849C427.002 372.688 427.237 372.408 427.552 372.2C427.867 371.993 428.279 371.889 428.788 371.889C429.237 371.889 429.629 371.982 429.964 372.166C430.302 372.351 430.563 372.627 430.748 372.993C430.936 373.357 431.029 373.811 431.029 374.357V378.52H429.755V374.51C429.755 374.03 429.632 373.658 429.384 373.394C429.137 373.127 428.794 372.993 428.353 372.993C428.052 372.993 427.782 373.057 427.544 373.185C427.308 373.313 427.122 373.5 426.985 373.747C426.852 373.992 426.785 374.287 426.785 374.634ZM432.73 378.52V371.975H434.004V378.52H432.73ZM433.373 370.965C433.151 370.965 432.961 370.891 432.802 370.743C432.646 370.592 432.568 370.413 432.568 370.206C432.568 369.996 432.646 369.817 432.802 369.669C432.961 369.519 433.151 369.443 433.373 369.443C433.595 369.443 433.784 369.519 433.94 369.669C434.099 369.817 434.178 369.996 434.178 370.206C434.178 370.413 434.099 370.592 433.94 370.743C433.784 370.891 433.595 370.965 433.373 370.965ZM436.992 369.793V378.52H435.718V369.793H436.992ZM441.527 378.652C440.882 378.652 440.327 378.514 439.861 378.239C439.398 377.96 439.04 377.57 438.787 377.067C438.537 376.561 438.412 375.969 438.412 375.29C438.412 374.619 438.537 374.029 438.787 373.517C439.04 373.006 439.392 372.607 439.844 372.32C440.298 372.033 440.83 371.889 441.438 371.889C441.807 371.889 442.165 371.95 442.512 372.073C442.858 372.195 443.169 372.386 443.445 372.648C443.72 372.909 443.938 373.249 444.097 373.666C444.256 374.081 444.335 374.585 444.335 375.179V375.631H439.132V374.676H443.087C443.087 374.341 443.019 374.044 442.882 373.786C442.746 373.524 442.554 373.318 442.307 373.168C442.063 373.017 441.776 372.942 441.446 372.942C441.088 372.942 440.776 373.03 440.509 373.206C440.244 373.379 440.04 373.607 439.895 373.888C439.753 374.166 439.682 374.469 439.682 374.796V375.541C439.682 375.979 439.759 376.351 439.912 376.658C440.068 376.965 440.286 377.199 440.564 377.361C440.843 377.52 441.168 377.6 441.54 377.6C441.781 377.6 442.002 377.565 442.2 377.497C442.399 377.426 442.571 377.321 442.716 377.182C442.861 377.043 442.972 376.871 443.048 376.666L444.254 376.884C444.158 377.239 443.985 377.55 443.735 377.817C443.487 378.081 443.176 378.287 442.801 378.435C442.429 378.58 442.004 378.652 441.527 378.652ZM454.524 371.975L452.151 378.52H450.787L448.409 371.975H449.777L451.435 377.011H451.503L453.156 371.975H454.524ZM455.722 378.52V371.975H456.996V378.52H455.722ZM456.365 370.965C456.144 370.965 455.953 370.891 455.794 370.743C455.638 370.592 455.56 370.413 455.56 370.206C455.56 369.996 455.638 369.817 455.794 369.669C455.953 369.519 456.144 369.443 456.365 369.443C456.587 369.443 456.776 369.519 456.932 369.669C457.091 369.817 457.171 369.996 457.171 370.206C457.171 370.413 457.091 370.592 456.932 370.743C456.776 370.891 456.587 370.965 456.365 370.965ZM461.531 378.652C460.886 378.652 460.331 378.514 459.865 378.239C459.402 377.96 459.044 377.57 458.791 377.067C458.541 376.561 458.416 375.969 458.416 375.29C458.416 374.619 458.541 374.029 458.791 373.517C459.044 373.006 459.396 372.607 459.848 372.32C460.302 372.033 460.834 371.889 461.442 371.889C461.811 371.889 462.169 371.95 462.515 372.073C462.862 372.195 463.173 372.386 463.449 372.648C463.724 372.909 463.942 373.249 464.101 373.666C464.26 374.081 464.339 374.585 464.339 375.179V375.631H459.136V374.676H463.091C463.091 374.341 463.023 374.044 462.886 373.786C462.75 373.524 462.558 373.318 462.311 373.168C462.067 373.017 461.78 372.942 461.45 372.942C461.092 372.942 460.78 373.03 460.513 373.206C460.248 373.379 460.044 373.607 459.899 373.888C459.757 374.166 459.686 374.469 459.686 374.796V375.541C459.686 375.979 459.763 376.351 459.916 376.658C460.072 376.965 460.29 377.199 460.568 377.361C460.846 377.52 461.172 377.6 461.544 377.6C461.785 377.6 462.006 377.565 462.204 377.497C462.403 377.426 462.575 377.321 462.72 377.182C462.865 377.043 462.976 376.871 463.052 376.666L464.258 376.884C464.162 377.239 463.988 377.55 463.738 377.817C463.491 378.081 463.18 378.287 462.805 378.435C462.433 378.58 462.008 378.652 461.531 378.652ZM467.16 378.52L465.234 371.975H466.551L467.834 376.781H467.898L469.184 371.975H470.501L471.78 376.76H471.844L473.118 371.975H474.434L472.513 378.52H471.213L469.883 373.794H469.785L468.456 378.52H467.16ZM475.644 378.52V371.975H476.918V378.52H475.644ZM476.287 370.965C476.066 370.965 475.875 370.891 475.716 370.743C475.56 370.592 475.482 370.413 475.482 370.206C475.482 369.996 475.56 369.817 475.716 369.669C475.875 369.519 476.066 369.443 476.287 369.443C476.509 369.443 476.698 369.519 476.854 369.669C477.013 369.817 477.093 369.996 477.093 370.206C477.093 370.413 477.013 370.592 476.854 370.743C476.698 370.891 476.509 370.965 476.287 370.965ZM479.906 374.634V378.52H478.632V371.975H479.855V373.04H479.936C480.086 372.693 480.322 372.415 480.643 372.205C480.967 371.994 481.375 371.889 481.866 371.889C482.312 371.889 482.703 371.983 483.038 372.171C483.373 372.355 483.633 372.631 483.818 372.997C484.003 373.364 484.095 373.817 484.095 374.357V378.52H482.821V374.51C482.821 374.036 482.697 373.665 482.45 373.398C482.203 373.128 481.863 372.993 481.432 372.993C481.136 372.993 480.873 373.057 480.643 373.185C480.416 373.313 480.236 373.5 480.102 373.747C479.971 373.992 479.906 374.287 479.906 374.634ZM488.548 381.111C488.028 381.111 487.581 381.043 487.206 380.906C486.834 380.77 486.53 380.59 486.294 380.365C486.058 380.141 485.882 379.895 485.765 379.628L486.861 379.176C486.937 379.301 487.04 379.433 487.167 379.573C487.298 379.715 487.474 379.835 487.696 379.935C487.92 380.034 488.209 380.084 488.561 380.084C489.044 380.084 489.443 379.966 489.758 379.73C490.074 379.497 490.231 379.125 490.231 378.614V377.327H490.15C490.074 377.466 489.963 377.621 489.818 377.791C489.676 377.962 489.48 378.11 489.23 378.235C488.98 378.36 488.655 378.422 488.254 378.422C487.737 378.422 487.271 378.301 486.856 378.06C486.444 377.815 486.118 377.456 485.876 376.982C485.638 376.504 485.518 375.918 485.518 375.222C485.518 374.526 485.636 373.929 485.872 373.432C486.111 372.935 486.437 372.554 486.852 372.29C487.267 372.023 487.737 371.889 488.263 371.889C488.669 371.889 488.997 371.958 489.247 372.094C489.497 372.227 489.692 372.384 489.831 372.563C489.973 372.742 490.082 372.899 490.159 373.036H490.253V371.975H491.501V378.665C491.501 379.227 491.371 379.689 491.109 380.05C490.848 380.411 490.494 380.678 490.048 380.851C489.605 381.024 489.105 381.111 488.548 381.111ZM488.535 377.365C488.902 377.365 489.211 377.28 489.464 377.11C489.72 376.936 489.913 376.689 490.044 376.368C490.177 376.044 490.244 375.656 490.244 375.205C490.244 374.764 490.179 374.377 490.048 374.041C489.917 373.706 489.726 373.445 489.473 373.257C489.22 373.067 488.907 372.972 488.535 372.972C488.152 372.972 487.832 373.071 487.577 373.27C487.321 373.466 487.128 373.733 486.997 374.071C486.869 374.409 486.805 374.787 486.805 375.205C486.805 375.634 486.871 376.01 487.001 376.334C487.132 376.658 487.325 376.911 487.581 377.092C487.839 377.274 488.157 377.365 488.535 377.365ZM498.836 378.648C498.308 378.648 497.836 378.513 497.421 378.243C497.009 377.97 496.686 377.583 496.45 377.08C496.217 376.574 496.1 375.967 496.1 375.26C496.1 374.553 496.218 373.948 496.454 373.445C496.693 372.942 497.019 372.557 497.434 372.29C497.849 372.023 498.319 371.889 498.845 371.889C499.251 371.889 499.578 371.958 499.825 372.094C500.075 372.227 500.268 372.384 500.404 372.563C500.544 372.742 500.651 372.899 500.728 373.036H500.805V369.793H502.079V378.52H500.835V377.502H500.728C500.651 377.641 500.541 377.8 500.396 377.979C500.254 378.158 500.058 378.314 499.808 378.448C499.558 378.581 499.234 378.648 498.836 378.648ZM499.117 377.561C499.484 377.561 499.794 377.465 500.046 377.271C500.302 377.075 500.495 376.804 500.626 376.458C500.759 376.111 500.826 375.708 500.826 375.247C500.826 374.793 500.761 374.395 500.63 374.054C500.499 373.713 500.308 373.448 500.055 373.257C499.802 373.067 499.49 372.972 499.117 372.972C498.734 372.972 498.414 373.071 498.159 373.27C497.903 373.469 497.71 373.74 497.579 374.084C497.451 374.428 497.387 374.815 497.387 375.247C497.387 375.685 497.453 376.078 497.583 376.428C497.714 376.777 497.907 377.054 498.163 377.259C498.421 377.46 498.74 377.561 499.117 377.561ZM506.719 378.652C506.074 378.652 505.518 378.514 505.052 378.239C504.589 377.96 504.231 377.57 503.979 377.067C503.729 376.561 503.604 375.969 503.604 375.29C503.604 374.619 503.729 374.029 503.979 373.517C504.231 373.006 504.584 372.607 505.035 372.32C505.49 372.033 506.021 371.889 506.629 371.889C506.998 371.889 507.356 371.95 507.703 372.073C508.05 372.195 508.361 372.386 508.636 372.648C508.912 372.909 509.129 373.249 509.288 373.666C509.447 374.081 509.527 374.585 509.527 375.179V375.631H504.324V374.676H508.278C508.278 374.341 508.21 374.044 508.074 373.786C507.937 373.524 507.746 373.318 507.498 373.168C507.254 373.017 506.967 372.942 506.638 372.942C506.28 372.942 505.967 373.03 505.7 373.206C505.436 373.379 505.231 373.607 505.086 373.888C504.944 374.166 504.873 374.469 504.873 374.796V375.541C504.873 375.979 504.95 376.351 505.104 376.658C505.26 376.965 505.477 377.199 505.756 377.361C506.034 377.52 506.359 377.6 506.731 377.6C506.973 377.6 507.193 377.565 507.392 377.497C507.591 377.426 507.763 377.321 507.907 377.182C508.052 377.043 508.163 376.871 508.24 376.666L509.446 376.884C509.349 377.239 509.176 377.55 508.926 377.817C508.679 378.081 508.368 378.287 507.993 378.435C507.621 378.58 507.196 378.652 506.719 378.652ZM513.996 371.975V372.997H510.421V371.975H513.996ZM511.379 370.406H512.654V376.598C512.654 376.845 512.691 377.031 512.764 377.156C512.838 377.279 512.933 377.362 513.05 377.408C513.169 377.45 513.298 377.472 513.438 377.472C513.54 377.472 513.629 377.465 513.706 377.45C513.783 377.436 513.843 377.425 513.885 377.416L514.115 378.469C514.041 378.497 513.936 378.526 513.8 378.554C513.664 378.585 513.493 378.602 513.289 378.605C512.953 378.611 512.641 378.551 512.351 378.426C512.061 378.301 511.827 378.108 511.648 377.847C511.469 377.585 511.379 377.257 511.379 376.862V370.406ZM517.31 378.665C516.895 378.665 516.52 378.588 516.185 378.435C515.85 378.279 515.584 378.053 515.388 377.757C515.195 377.462 515.099 377.1 515.099 376.671C515.099 376.301 515.17 375.997 515.312 375.759C515.454 375.52 515.645 375.331 515.887 375.192C516.128 375.053 516.398 374.948 516.697 374.877C516.995 374.806 517.299 374.752 517.608 374.715C518.001 374.669 518.319 374.632 518.563 374.604C518.807 374.573 518.985 374.523 519.096 374.455C519.206 374.386 519.262 374.276 519.262 374.122V374.092C519.262 373.72 519.157 373.432 518.947 373.227C518.739 373.023 518.43 372.921 518.018 372.921C517.589 372.921 517.251 373.016 517.003 373.206C516.759 373.394 516.59 373.602 516.496 373.833L515.299 373.56C515.441 373.162 515.648 372.841 515.921 372.597C516.197 372.35 516.513 372.171 516.871 372.06C517.229 371.946 517.606 371.889 518.001 371.889C518.262 371.889 518.539 371.921 518.831 371.983C519.127 372.043 519.403 372.154 519.658 372.315C519.917 372.477 520.128 372.709 520.293 373.01C520.458 373.308 520.54 373.696 520.54 374.173V378.52H519.296V377.625H519.245C519.162 377.79 519.039 377.952 518.874 378.111C518.709 378.27 518.498 378.402 518.239 378.507C517.981 378.612 517.671 378.665 517.31 378.665ZM517.587 377.642C517.939 377.642 518.241 377.573 518.491 377.433C518.743 377.294 518.935 377.112 519.066 376.888C519.199 376.661 519.266 376.418 519.266 376.159V375.315C519.221 375.361 519.133 375.404 519.002 375.443C518.874 375.48 518.728 375.513 518.563 375.541C518.398 375.567 518.238 375.591 518.081 375.614C517.925 375.634 517.795 375.651 517.689 375.665C517.442 375.696 517.216 375.749 517.012 375.823C516.81 375.896 516.648 376.003 516.526 376.142C516.407 376.279 516.347 376.46 516.347 376.688C516.347 377.003 516.464 377.242 516.697 377.404C516.93 377.563 517.226 377.642 517.587 377.642ZM522.237 378.52V371.975H523.512V378.52H522.237ZM522.881 370.965C522.659 370.965 522.469 370.891 522.31 370.743C522.154 370.592 522.075 370.413 522.075 370.206C522.075 369.996 522.154 369.817 522.31 369.669C522.469 369.519 522.659 369.443 522.881 369.443C523.102 369.443 523.291 369.519 523.448 369.669C523.607 369.817 523.686 369.996 523.686 370.206C523.686 370.413 523.607 370.592 523.448 370.743C523.291 370.891 523.102 370.965 522.881 370.965ZM526.5 369.793V378.52H525.226V369.793H526.5ZM533.119 373.573L531.964 373.777C531.916 373.629 531.839 373.489 531.734 373.355C531.632 373.222 531.492 373.112 531.316 373.027C531.14 372.942 530.92 372.899 530.656 372.899C530.295 372.899 529.994 372.98 529.752 373.142C529.511 373.301 529.39 373.507 529.39 373.76C529.39 373.979 529.471 374.155 529.633 374.288C529.795 374.422 530.056 374.531 530.417 374.617L531.457 374.855C532.059 374.994 532.508 375.209 532.803 375.499C533.099 375.788 533.247 376.165 533.247 376.628C533.247 377.02 533.133 377.369 532.906 377.676C532.681 377.98 532.367 378.219 531.964 378.392C531.563 378.565 531.099 378.652 530.57 378.652C529.838 378.652 529.24 378.496 528.776 378.183C528.313 377.868 528.029 377.421 527.924 376.841L529.156 376.654C529.232 376.975 529.39 377.217 529.629 377.382C529.867 377.544 530.178 377.625 530.562 377.625C530.98 377.625 531.313 377.538 531.563 377.365C531.813 377.189 531.938 376.975 531.938 376.722C531.938 376.517 531.862 376.345 531.708 376.206C531.558 376.067 531.326 375.962 531.014 375.891L529.906 375.648C529.295 375.509 528.843 375.287 528.551 374.983C528.261 374.679 528.116 374.294 528.116 373.828C528.116 373.442 528.224 373.104 528.44 372.814C528.656 372.524 528.954 372.298 529.335 372.136C529.715 371.972 530.151 371.889 530.643 371.889C531.35 371.889 531.907 372.043 532.313 372.35C532.72 372.654 532.988 373.061 533.119 373.573ZM537.098 374.898C537.098 375.969 536.957 376.953 536.676 377.851C536.395 378.749 535.984 379.577 535.444 380.335H534.277C534.487 380.054 534.683 379.709 534.865 379.3C535.047 378.891 535.206 378.443 535.342 377.958C535.479 377.469 535.585 376.963 535.662 376.44C535.738 375.918 535.777 375.404 535.777 374.898C535.777 374.225 535.71 373.541 535.577 372.848C535.443 372.155 535.263 371.511 535.035 370.918C534.808 370.324 534.555 369.84 534.277 369.465H535.444C535.984 370.223 536.395 371.051 536.676 371.949C536.957 372.847 537.098 373.83 537.098 374.898Z" fill="#2E2E2E"/>
<path d="M612.25 343V337" stroke="#2E2E2E"/>
<path d="M604.942 359.156C604.942 360.088 604.772 360.889 604.431 361.56C604.09 362.227 603.623 362.742 603.029 363.102C602.438 363.46 601.766 363.639 601.013 363.639C600.257 363.639 599.583 363.46 598.989 363.102C598.398 362.742 597.932 362.226 597.591 361.556C597.25 360.885 597.08 360.085 597.08 359.156C597.08 358.225 597.25 357.425 597.591 356.757C597.932 356.087 598.398 355.573 598.989 355.215C599.583 354.854 600.257 354.673 601.013 354.673C601.766 354.673 602.438 354.854 603.029 355.215C603.623 355.573 604.09 356.087 604.431 356.757C604.772 357.425 604.942 358.225 604.942 359.156ZM603.638 359.156C603.638 358.446 603.523 357.848 603.293 357.362C603.066 356.874 602.753 356.504 602.355 356.254C601.961 356.002 601.513 355.875 601.013 355.875C600.51 355.875 600.061 356.002 599.667 356.254C599.272 356.504 598.959 356.874 598.729 357.362C598.502 357.848 598.388 358.446 598.388 359.156C598.388 359.867 598.502 360.466 598.729 360.955C598.959 361.44 599.272 361.81 599.667 362.063C600.061 362.313 600.51 362.438 601.013 362.438C601.513 362.438 601.961 362.313 602.355 362.063C602.753 361.81 603.066 361.44 603.293 360.955C603.523 360.466 603.638 359.867 603.638 359.156ZM609.537 356.975V357.997H605.962V356.975H609.537ZM606.92 355.406H608.195V361.598C608.195 361.845 608.232 362.031 608.305 362.156C608.379 362.279 608.474 362.362 608.591 362.408C608.71 362.45 608.839 362.472 608.979 362.472C609.081 362.472 609.17 362.465 609.247 362.45C609.324 362.436 609.384 362.425 609.426 362.416L609.656 363.469C609.582 363.497 609.477 363.526 609.341 363.554C609.205 363.585 609.034 363.602 608.83 363.605C608.494 363.611 608.182 363.551 607.892 363.426C607.602 363.301 607.368 363.108 607.189 362.847C607.01 362.585 606.92 362.257 606.92 361.862V355.406ZM612.361 359.634V363.52H611.087V354.793H612.344V358.04H612.425C612.578 357.688 612.813 357.408 613.128 357.2C613.444 356.993 613.855 356.889 614.364 356.889C614.813 356.889 615.205 356.982 615.54 357.166C615.878 357.351 616.14 357.627 616.324 357.993C616.512 358.357 616.605 358.811 616.605 359.357V363.52H615.331V359.51C615.331 359.03 615.208 358.658 614.961 358.394C614.713 358.127 614.37 357.993 613.929 357.993C613.628 357.993 613.358 358.057 613.12 358.185C612.884 358.313 612.698 358.5 612.561 358.747C612.428 358.992 612.361 359.287 612.361 359.634ZM621.127 363.652C620.482 363.652 619.926 363.514 619.461 363.239C618.998 362.96 618.64 362.57 618.387 362.067C618.137 361.561 618.012 360.969 618.012 360.29C618.012 359.619 618.137 359.029 618.387 358.517C618.64 358.006 618.992 357.607 619.444 357.32C619.898 357.033 620.429 356.889 621.037 356.889C621.407 356.889 621.765 356.95 622.111 357.073C622.458 357.195 622.769 357.386 623.044 357.648C623.32 357.909 623.537 358.249 623.696 358.666C623.855 359.081 623.935 359.585 623.935 360.179V360.631H618.732V359.676H622.686C622.686 359.341 622.618 359.044 622.482 358.786C622.346 358.524 622.154 358.318 621.907 358.168C621.662 358.017 621.375 357.942 621.046 357.942C620.688 357.942 620.375 358.03 620.108 358.206C619.844 358.379 619.64 358.607 619.495 358.888C619.353 359.166 619.282 359.469 619.282 359.796V360.541C619.282 360.979 619.358 361.351 619.512 361.658C619.668 361.965 619.885 362.199 620.164 362.361C620.442 362.52 620.767 362.6 621.14 362.6C621.381 362.6 621.601 362.565 621.8 362.497C621.999 362.426 622.171 362.321 622.316 362.182C622.461 362.043 622.571 361.871 622.648 361.666L623.854 361.884C623.757 362.239 623.584 362.55 623.334 362.817C623.087 363.081 622.776 363.287 622.401 363.435C622.029 363.58 621.604 363.652 621.127 363.652ZM625.349 363.52V356.975H626.58V358.014H626.648C626.768 357.662 626.978 357.385 627.279 357.183C627.583 356.979 627.927 356.877 628.31 356.877C628.39 356.877 628.484 356.879 628.592 356.885C628.702 356.891 628.789 356.898 628.852 356.906V358.125C628.8 358.111 628.71 358.095 628.579 358.078C628.448 358.058 628.317 358.048 628.187 358.048C627.886 358.048 627.617 358.112 627.381 358.24C627.148 358.365 626.964 358.54 626.827 358.764C626.691 358.986 626.623 359.239 626.623 359.523V363.52H625.349Z" fill="#2E2E2E"/>
<path d="M89 177V337" stroke="#2E2E2E"/>
<path d="M83 337H89" stroke="#2E2E2E"/>
<path d="M74.25 341.379C73.608 341.379 73.0611 341.204 72.6094 340.855C72.1577 340.503 71.8125 339.993 71.5739 339.325C71.3352 338.655 71.2159 337.845 71.2159 336.896C71.2159 335.953 71.3352 335.148 71.5739 334.48C71.8153 333.809 72.1619 333.298 72.6136 332.946C73.0682 332.591 73.6136 332.413 74.25 332.413C74.8864 332.413 75.4304 332.591 75.8821 332.946C76.3366 333.298 76.6832 333.809 76.9219 334.48C77.1634 335.148 77.2841 335.953 77.2841 336.896C77.2841 337.845 77.1648 338.655 76.9261 339.325C76.6875 339.993 76.3423 340.503 75.8906 340.855C75.4389 341.204 74.892 341.379 74.25 341.379ZM74.25 340.442C74.8864 340.442 75.3807 340.135 75.733 339.521C76.0852 338.907 76.2614 338.032 76.2614 336.896C76.2614 336.14 76.1804 335.497 76.0185 334.966C75.8594 334.434 75.6293 334.03 75.3281 333.751C75.0298 333.473 74.6705 333.334 74.25 333.334C73.6193 333.334 73.1264 333.645 72.7713 334.267C72.4162 334.886 72.2386 335.763 72.2386 336.896C72.2386 337.652 72.3182 338.294 72.4773 338.822C72.6364 339.351 72.8651 339.753 73.1634 340.028C73.4645 340.304 73.8267 340.442 74.25 340.442Z" fill="#2E2E2E"/>
<path d="M83 297H89" stroke="#2E2E2E"/>
<path d="M74.3299 301.379C73.8299 301.379 73.3796 301.28 72.979 301.081C72.5785 300.882 72.2575 300.609 72.016 300.263C71.7745 299.916 71.6424 299.521 71.6197 299.078H72.6424C72.6822 299.473 72.8612 299.8 73.1793 300.058C73.5004 300.314 73.8839 300.442 74.3299 300.442C74.6879 300.442 75.006 300.358 75.2844 300.19C75.5657 300.023 75.7859 299.792 75.945 299.5C76.1069 299.204 76.1879 298.871 76.1879 298.498C76.1879 298.118 76.104 297.778 75.9364 297.48C75.7717 297.179 75.5444 296.942 75.2546 296.768C74.9648 296.595 74.6339 296.507 74.2617 296.504C73.9947 296.501 73.7205 296.542 73.4393 296.628C73.158 296.71 72.9265 296.817 72.7447 296.947L71.756 296.828L72.2844 292.532H76.8185V293.47H73.1708L72.864 296.044H72.9151C73.0941 295.902 73.3185 295.784 73.5884 295.69C73.8583 295.596 74.1396 295.55 74.4322 295.55C74.9663 295.55 75.4421 295.677 75.8597 295.933C76.2802 296.186 76.6097 296.532 76.8484 296.973C77.0898 297.413 77.2106 297.916 77.2106 298.481C77.2106 299.038 77.0856 299.535 76.8356 299.973C76.5884 300.407 76.2475 300.751 75.8129 301.004C75.3782 301.254 74.8839 301.379 74.3299 301.379Z" fill="#2E2E2E"/>
<path d="M83 257H89" stroke="#2E2E2E"/>
<path d="M68.8935 252.532V261.26H67.8366V253.64H67.7855L65.6548 255.055V253.981L67.8366 252.532H68.8935ZM74.25 261.379C73.608 261.379 73.0611 261.204 72.6094 260.855C72.1577 260.503 71.8125 259.993 71.5739 259.325C71.3352 258.655 71.2159 257.845 71.2159 256.896C71.2159 255.953 71.3352 255.148 71.5739 254.48C71.8153 253.809 72.1619 253.298 72.6136 252.946C73.0682 252.591 73.6136 252.413 74.25 252.413C74.8864 252.413 75.4304 252.591 75.8821 252.946C76.3366 253.298 76.6832 253.809 76.9219 254.48C77.1634 255.148 77.2841 255.953 77.2841 256.896C77.2841 257.845 77.1648 258.655 76.9261 259.325C76.6875 259.993 76.3423 260.503 75.8906 260.855C75.4389 261.204 74.892 261.379 74.25 261.379ZM74.25 260.442C74.8864 260.442 75.3807 260.135 75.733 259.521C76.0852 258.907 76.2614 258.032 76.2614 256.896C76.2614 256.14 76.1804 255.497 76.0185 254.966C75.8594 254.434 75.6293 254.03 75.3281 253.751C75.0298 253.473 74.6705 253.334 74.25 253.334C73.6193 253.334 73.1264 253.645 72.7713 254.267C72.4162 254.886 72.2386 255.763 72.2386 256.896C72.2386 257.652 72.3182 258.294 72.4773 258.822C72.6364 259.351 72.8651 259.753 73.1634 260.028C73.4645 260.304 73.8267 260.442 74.25 260.442Z" fill="#2E2E2E"/>
<path d="M83 217H89" stroke="#2E2E2E"/>
<path d="M69.0927 212.532V221.26H68.0359V213.64H67.9847L65.854 215.055V213.981L68.0359 212.532H69.0927ZM74.3299 221.379C73.8299 221.379 73.3796 221.28 72.979 221.081C72.5785 220.882 72.2575 220.609 72.016 220.263C71.7745 219.916 71.6424 219.521 71.6197 219.078H72.6424C72.6822 219.473 72.8612 219.8 73.1793 220.058C73.5004 220.314 73.8839 220.442 74.3299 220.442C74.6879 220.442 75.006 220.358 75.2844 220.19C75.5657 220.023 75.7859 219.792 75.945 219.5C76.1069 219.204 76.1879 218.871 76.1879 218.498C76.1879 218.118 76.104 217.778 75.9364 217.48C75.7717 217.179 75.5444 216.942 75.2546 216.768C74.9648 216.595 74.6339 216.507 74.2617 216.504C73.9947 216.501 73.7205 216.542 73.4393 216.628C73.158 216.71 72.9265 216.817 72.7447 216.947L71.756 216.828L72.2844 212.532H76.8185V213.47H73.1708L72.864 216.044H72.9151C73.0941 215.902 73.3185 215.784 73.5884 215.69C73.8583 215.596 74.1396 215.55 74.4322 215.55C74.9663 215.55 75.4421 215.677 75.8597 215.933C76.2802 216.186 76.6097 216.532 76.8484 216.973C77.0898 217.413 77.2106 217.916 77.2106 218.481C77.2106 219.038 77.0856 219.535 76.8356 219.973C76.5884 220.407 76.2475 220.751 75.8129 221.004C75.3782 221.254 74.8839 221.379 74.3299 221.379Z" fill="#2E2E2E"/>
<path d="M83 177H89" stroke="#2E2E2E"/>
<path d="M64.1378 185.459V184.692L67.0185 181.539C67.3565 181.169 67.6349 180.848 67.8537 180.575C68.0724 180.3 68.2344 180.041 68.3395 179.8C68.4474 179.556 68.5014 179.3 68.5014 179.033C68.5014 178.726 68.4276 178.46 68.2798 178.236C68.1349 178.012 67.9361 177.838 67.6832 177.716C67.4304 177.594 67.1463 177.533 66.831 177.533C66.4957 177.533 66.2031 177.602 65.9531 177.742C65.706 177.878 65.5142 178.07 65.3778 178.317C65.2443 178.564 65.1776 178.854 65.1776 179.186H64.1719C64.1719 178.675 64.2898 178.226 64.5256 177.84C64.7614 177.453 65.0824 177.152 65.4886 176.936C65.8977 176.72 66.3565 176.612 66.8651 176.612C67.3764 176.612 67.8295 176.72 68.2244 176.936C68.6193 177.152 68.929 177.443 69.1534 177.81C69.3778 178.176 69.4901 178.584 69.4901 179.033C69.4901 179.354 69.4318 179.668 69.3153 179.975C69.2017 180.279 69.0028 180.618 68.7188 180.993C68.4375 181.365 68.0469 181.82 67.5469 182.357L65.5866 184.453V184.521H69.6435V185.459H64.1378ZM74.25 185.578C73.608 185.578 73.0611 185.404 72.6094 185.054C72.1577 184.702 71.8125 184.192 71.5739 183.524C71.3352 182.854 71.2159 182.044 71.2159 181.095C71.2159 180.152 71.3352 179.347 71.5739 178.679C71.8153 178.009 72.1619 177.497 72.6136 177.145C73.0682 176.79 73.6136 176.612 74.25 176.612C74.8864 176.612 75.4304 176.79 75.8821 177.145C76.3366 177.497 76.6832 178.009 76.9219 178.679C77.1634 179.347 77.2841 180.152 77.2841 181.095C77.2841 182.044 77.1648 182.854 76.9261 183.524C76.6875 184.192 76.3423 184.702 75.8906 185.054C75.4389 185.404 74.892 185.578 74.25 185.578ZM74.25 184.641C74.8864 184.641 75.3807 184.334 75.733 183.72C76.0852 183.107 76.2614 182.232 76.2614 181.095C76.2614 180.34 76.1804 179.696 76.0185 179.165C75.8594 178.634 75.6293 178.229 75.3281 177.95C75.0298 177.672 74.6705 177.533 74.25 177.533C73.6193 177.533 73.1264 177.844 72.7713 178.466C72.4162 179.085 72.2386 179.962 72.2386 181.095C72.2386 181.851 72.3182 182.493 72.4773 183.021C72.6364 183.55 72.8651 183.952 73.1634 184.227C73.4645 184.503 73.8267 184.641 74.25 184.641Z" fill="#2E2E2E"/>
<path d="M89 337H687" stroke="#CCCCCC"/>
<path d="M89 297H687" stroke="#CCCCCC"/>
<path d="M89 257H687" stroke="#CCCCCC"/>
<path d="M89 217H687" stroke="#CCCCCC"/>
<path d="M89 177H687" stroke="#CCCCCC"/>
<path d="M163.75 177V337" stroke="#CCCCCC"/>
<path d="M313.25 177V337" stroke="#CCCCCC"/>
<path d="M462.75 177V337" stroke="#CCCCCC"/>
<path d="M612.25 177V337" stroke="#CCCCCC"/>
<path d="M89 177V337" stroke="#CCCCCC"/>
<path d="M687 177V337" stroke="#CCCCCC"/>
<path d="M103.95 241H222.95V337H103.95V241Z" fill="#A7C2D1"/>
<path d="M253.45 177H372.45V337H253.45V177Z" fill="#A7C2D1"/>
<path d="M402.95 264H521.95V337H402.95V264Z" fill="#A7C2D1"/>
<path d="M552.45 322H671.45V337H552.45V322Z" fill="#A7C2D1"/>
<path d="M658.367 400V388.727H663.062C665.625 388.727 667.094 390.094 667.094 392.312V392.328C667.094 393.773 666.344 395.016 665.055 395.523L667.43 400H664.758L662.656 395.875H660.727V400H658.367ZM660.727 394.156H662.805C663.984 394.156 664.68 393.484 664.68 392.375V392.359C664.68 391.273 663.953 390.57 662.773 390.57H660.727V394.156ZM672.469 400.18C669.821 400.18 668.227 398.5 668.227 395.703V395.688C668.227 392.914 669.844 391.211 672.469 391.211C675.094 391.211 676.711 392.906 676.711 395.688V395.703C676.711 398.508 675.118 400.18 672.469 400.18ZM672.469 398.391C673.68 398.391 674.375 397.398 674.375 395.703V395.688C674.375 394.008 673.672 393 672.469 393C671.258 393 670.563 394.008 670.563 395.688V395.703C670.563 397.398 671.25 398.391 672.469 398.391ZM678.329 400V388.109H680.61V400H678.329ZM686.431 400.18C683.813 400.18 682.228 398.469 682.228 395.711V395.703C682.228 392.969 683.829 391.211 686.337 391.211C688.845 391.211 690.407 392.93 690.407 395.531V396.242H684.485C684.509 397.656 685.267 398.477 686.478 398.477C687.478 398.477 688.032 397.945 688.188 397.617L688.212 397.57H690.337L690.321 397.648C690.056 398.727 688.946 400.18 686.431 400.18ZM686.376 392.922C685.384 392.922 684.649 393.594 684.509 394.812H688.22C688.079 393.562 687.368 392.922 686.376 392.922Z" fill="#2E2E2E"/>
</svg>
