<svg width="571" height="376" viewBox="0 0 571 376" fill="none" xmlns="http://www.w3.org/2000/svg">
<path d="M42.072 43.744L45.144 31.984H48.528L43.824 49H40.416L36.528 36.88L32.64 49H29.184L24.456 31.984H27.96L31.08 43.696L34.848 31.984H38.28L42.072 43.744ZM54.9399 46.456C56.4999 46.456 57.9399 45.328 57.9399 43.096C57.9399 40.864 56.4999 39.736 54.9399 39.736C53.3799 39.736 51.9399 40.864 51.9399 43.096C51.9399 45.304 53.3799 46.456 54.9399 46.456ZM54.9399 36.832C58.4679 36.832 61.1319 39.448 61.1319 43.096C61.1319 46.72 58.4679 49.36 54.9399 49.36C51.4119 49.36 48.7479 46.72 48.7479 43.096C48.7479 39.448 51.4119 36.832 54.9399 36.832ZM71.3991 49C71.3511 48.76 71.3031 48.208 71.3031 47.728C70.6551 48.832 69.2871 49.312 68.0391 49.312C65.1831 49.312 63.5511 47.224 63.5511 44.656V37.192H66.7431V44.008C66.7431 45.328 67.4151 46.384 68.9031 46.384C70.3191 46.384 71.1351 45.424 71.1351 44.056V37.192H74.3271V46.864C74.3271 47.776 74.3991 48.592 74.4471 49H71.3991ZM80.7849 49H77.5929V31.624H80.7849V49ZM95.4623 31.624V46.864C95.4623 47.656 95.5103 48.52 95.5583 49H92.5103C92.4623 48.76 92.3903 48.184 92.3903 47.632C91.8623 48.568 90.6623 49.288 89.0783 49.288C85.7183 49.288 83.3183 46.648 83.3183 43.072C83.3183 39.616 85.6463 36.904 88.9823 36.904C91.0223 36.904 91.9823 37.744 92.3183 38.368V31.624H95.4623ZM86.5343 43.072C86.5343 45.184 87.7823 46.432 89.4622 46.432C91.0943 46.432 92.3663 45.184 92.3663 43.048C92.3663 40.936 91.0943 39.76 89.4622 39.76C87.8303 39.76 86.5343 40.96 86.5343 43.072ZM108.068 53.656H104.684L107.468 47.512L102.452 37.192H106.028L109.172 44.104L112.076 37.192H115.484L108.068 53.656ZM122.37 46.456C123.93 46.456 125.37 45.328 125.37 43.096C125.37 40.864 123.93 39.736 122.37 39.736C120.81 39.736 119.37 40.864 119.37 43.096C119.37 45.304 120.81 46.456 122.37 46.456ZM122.37 36.832C125.898 36.832 128.562 39.448 128.562 43.096C128.562 46.72 125.898 49.36 122.37 49.36C118.842 49.36 116.178 46.72 116.178 43.096C116.178 39.448 118.842 36.832 122.37 36.832ZM138.829 49C138.781 48.76 138.733 48.208 138.733 47.728C138.085 48.832 136.717 49.312 135.469 49.312C132.613 49.312 130.981 47.224 130.981 44.656V37.192H134.173V44.008C134.173 45.328 134.845 46.384 136.333 46.384C137.749 46.384 138.565 45.424 138.565 44.056V37.192H141.757V46.864C141.757 47.776 141.829 48.592 141.877 49H138.829ZM153.814 49H150.718V31.624H153.862V38.488C154.39 37.648 155.686 36.88 157.438 36.88C160.894 36.88 162.886 39.544 162.886 43.048C162.886 46.624 160.678 49.288 157.318 49.288C155.686 49.288 154.438 48.568 153.814 47.56V49ZM159.694 43.072C159.694 40.912 158.398 39.736 156.766 39.736C155.158 39.736 153.814 40.912 153.814 43.072C153.814 45.208 155.158 46.432 156.766 46.432C158.398 46.432 159.694 45.232 159.694 43.072ZM167.956 41.752H173.236C173.188 40.576 172.42 39.424 170.596 39.424C168.94 39.424 168.028 40.672 167.956 41.752ZM173.548 44.824L176.212 45.616C175.612 47.656 173.74 49.36 170.836 49.36C167.596 49.36 164.74 47.032 164.74 43.048C164.74 39.28 167.524 36.832 170.548 36.832C174.196 36.832 176.38 39.16 176.38 42.952C176.38 43.408 176.332 43.888 176.332 43.936H167.884C167.956 45.496 169.276 46.624 170.86 46.624C172.348 46.624 173.164 45.88 173.548 44.824ZM187.824 49H184.632V37.192H187.824V49ZM184.248 33.328C184.248 32.224 185.136 31.336 186.216 31.336C187.32 31.336 188.184 32.224 188.184 33.328C188.184 34.384 187.32 35.272 186.216 35.272C185.136 35.272 184.248 34.384 184.248 33.328ZM194.269 42.208V49H191.077V37.192H194.173V38.656C194.893 37.432 196.309 36.88 197.581 36.88C200.509 36.88 201.853 38.968 201.853 41.56V49H198.661V42.112C198.661 40.792 198.013 39.76 196.477 39.76C195.085 39.76 194.269 40.84 194.269 42.208ZM209.057 33.664V37.192H211.433V40.024H209.057V44.968C209.057 46 209.537 46.336 210.449 46.336C210.833 46.336 211.265 46.288 211.433 46.24V48.88C211.145 49 210.569 49.168 209.633 49.168C207.329 49.168 205.889 47.8 205.889 45.52V40.024H203.753V37.192H204.353C205.601 37.192 206.177 36.376 206.177 35.32V33.664H209.057ZM216.378 41.752H221.658C221.61 40.576 220.842 39.424 219.018 39.424C217.362 39.424 216.45 40.672 216.378 41.752ZM221.97 44.824L224.634 45.616C224.034 47.656 222.162 49.36 219.258 49.36C216.018 49.36 213.162 47.032 213.162 43.048C213.162 39.28 215.946 36.832 218.97 36.832C222.618 36.832 224.802 39.16 224.802 42.952C224.802 43.408 224.754 43.888 224.754 43.936H216.306C216.378 45.496 217.698 46.624 219.282 46.624C220.77 46.624 221.586 45.88 221.97 44.824ZM234.559 37.144V40.36C234.199 40.288 233.887 40.264 233.599 40.264C231.967 40.264 230.551 41.056 230.551 43.6V49H227.359V37.192H230.455V38.944C231.175 37.384 232.807 37.096 233.815 37.096C234.079 37.096 234.319 37.12 234.559 37.144ZM239.019 41.752H244.299C244.251 40.576 243.483 39.424 241.659 39.424C240.003 39.424 239.091 40.672 239.019 41.752ZM244.611 44.824L247.275 45.616C246.675 47.656 244.803 49.36 241.899 49.36C238.659 49.36 235.803 47.032 235.803 43.048C235.803 39.28 238.587 36.832 241.611 36.832C245.259 36.832 247.443 39.16 247.443 42.952C247.443 43.408 247.395 43.888 247.395 43.936H238.947C239.019 45.496 240.339 46.624 241.923 46.624C243.411 46.624 244.227 45.88 244.611 44.824ZM249.207 45.712L251.943 45.112C252.015 46.048 252.711 46.912 254.103 46.912C255.159 46.912 255.663 46.36 255.663 45.736C255.663 45.208 255.303 44.776 254.391 44.584L252.831 44.224C250.551 43.72 249.519 42.352 249.519 40.696C249.519 38.584 251.391 36.832 253.935 36.832C257.295 36.832 258.423 38.968 258.567 40.24L255.903 40.84C255.807 40.144 255.303 39.256 253.959 39.256C253.119 39.256 252.447 39.76 252.447 40.432C252.447 41.008 252.879 41.368 253.527 41.488L255.207 41.848C257.535 42.328 258.711 43.744 258.711 45.472C258.711 47.392 257.223 49.36 254.127 49.36C250.575 49.36 249.351 47.056 249.207 45.712ZM265.448 33.664V37.192H267.824V40.024H265.448V44.968C265.448 46 265.928 46.336 266.84 46.336C267.224 46.336 267.656 46.288 267.824 46.24V48.88C267.536 49 266.96 49.168 266.024 49.168C263.72 49.168 262.28 47.8 262.28 45.52V40.024H260.144V37.192H260.744C261.992 37.192 262.568 36.376 262.568 35.32V33.664H265.448ZM272.769 41.752H278.049C278.001 40.576 277.233 39.424 275.409 39.424C273.753 39.424 272.841 40.672 272.769 41.752ZM278.361 44.824L281.025 45.616C280.425 47.656 278.553 49.36 275.649 49.36C272.409 49.36 269.553 47.032 269.553 43.048C269.553 39.28 272.337 36.832 275.361 36.832C279.009 36.832 281.193 39.16 281.193 42.952C281.193 43.408 281.145 43.888 281.145 43.936H272.697C272.769 45.496 274.089 46.624 275.673 46.624C277.161 46.624 277.977 45.88 278.361 44.824ZM295.173 31.624V46.864C295.173 47.656 295.221 48.52 295.269 49H292.221C292.173 48.76 292.101 48.184 292.101 47.632C291.573 48.568 290.373 49.288 288.789 49.288C285.429 49.288 283.029 46.648 283.029 43.072C283.029 39.616 285.357 36.904 288.693 36.904C290.733 36.904 291.693 37.744 292.029 38.368V31.624H295.173ZM286.245 43.072C286.245 45.184 287.493 46.432 289.173 46.432C290.805 46.432 292.077 45.184 292.077 43.048C292.077 40.936 290.805 39.76 289.173 39.76C287.541 39.76 286.245 40.96 286.245 43.072ZM307.332 49H304.14V37.192H307.332V49ZM303.756 33.328C303.756 32.224 304.644 31.336 305.724 31.336C306.828 31.336 307.692 32.224 307.692 33.328C307.692 34.384 306.828 35.272 305.724 35.272C304.644 35.272 303.756 34.384 303.756 33.328ZM313.777 42.208V49H310.585V37.192H313.681V38.656C314.401 37.432 315.817 36.88 317.089 36.88C320.017 36.88 321.361 38.968 321.361 41.56V49H318.169V42.112C318.169 40.792 317.521 39.76 315.985 39.76C314.593 39.76 313.777 40.84 313.777 42.208ZM337.93 49C337.882 48.76 337.834 48.208 337.834 47.728C337.186 48.832 335.818 49.312 334.57 49.312C331.714 49.312 330.082 47.224 330.082 44.656V37.192H333.274V44.008C333.274 45.328 333.946 46.384 335.434 46.384C336.85 46.384 337.666 45.424 337.666 44.056V37.192H340.858V46.864C340.858 47.776 340.93 48.592 340.978 49H337.93ZM343.332 45.712L346.068 45.112C346.14 46.048 346.836 46.912 348.228 46.912C349.284 46.912 349.788 46.36 349.788 45.736C349.788 45.208 349.428 44.776 348.516 44.584L346.956 44.224C344.676 43.72 343.644 42.352 343.644 40.696C343.644 38.584 345.516 36.832 348.06 36.832C351.42 36.832 352.548 38.968 352.692 40.24L350.028 40.84C349.932 40.144 349.428 39.256 348.084 39.256C347.244 39.256 346.572 39.76 346.572 40.432C346.572 41.008 347.004 41.368 347.652 41.488L349.332 41.848C351.66 42.328 352.836 43.744 352.836 45.472C352.836 47.392 351.348 49.36 348.252 49.36C344.7 49.36 343.476 47.056 343.332 45.712ZM358.613 49H355.421V37.192H358.613V49ZM355.037 33.328C355.037 32.224 355.925 31.336 357.005 31.336C358.109 31.336 358.973 32.224 358.973 33.328C358.973 34.384 358.109 35.272 357.005 35.272C355.925 35.272 355.037 34.384 355.037 33.328ZM365.058 42.208V49H361.866V37.192H364.962V38.656C365.682 37.432 367.098 36.88 368.37 36.88C371.298 36.88 372.642 38.968 372.642 41.56V49H369.45V42.112C369.45 40.792 368.802 39.76 367.266 39.76C365.874 39.76 365.058 40.84 365.058 42.208ZM375.092 49.648L377.972 48.88C378.188 50.176 379.22 51.112 380.732 51.112C382.748 51.112 383.876 50.104 383.876 47.824V46.96C383.396 47.728 382.292 48.472 380.588 48.472C377.444 48.472 375.092 46.048 375.092 42.736C375.092 39.616 377.348 36.976 380.588 36.976C382.46 36.976 383.54 37.792 383.948 38.584V37.192H387.02V47.728C387.02 50.968 385.268 53.92 380.828 53.92C377.588 53.92 375.428 51.904 375.092 49.648ZM381.14 45.736C382.772 45.736 383.924 44.56 383.924 42.736C383.924 40.912 382.676 39.76 381.14 39.76C379.556 39.76 378.308 40.912 378.308 42.736C378.308 44.584 379.484 45.736 381.14 45.736ZM399.16 49H395.968V37.192H399.016V38.632C399.664 37.48 401.176 36.856 402.472 36.856C404.08 36.856 405.376 37.552 405.976 38.824C406.912 37.384 408.16 36.856 409.72 36.856C411.904 36.856 413.992 38.176 413.992 41.344V49H410.896V41.992C410.896 40.72 410.272 39.76 408.808 39.76C407.44 39.76 406.624 40.816 406.624 42.088V49H403.456V41.992C403.456 40.72 402.808 39.76 401.368 39.76C399.976 39.76 399.16 40.792 399.16 42.088V49ZM424.86 49C424.812 48.76 424.764 48.208 424.764 47.728C424.116 48.832 422.748 49.312 421.5 49.312C418.644 49.312 417.012 47.224 417.012 44.656V37.192H420.204V44.008C420.204 45.328 420.876 46.384 422.364 46.384C423.78 46.384 424.596 45.424 424.596 44.056V37.192H427.788V46.864C427.788 47.776 427.86 48.592 427.908 49H424.86ZM430.262 45.712L432.998 45.112C433.07 46.048 433.766 46.912 435.158 46.912C436.214 46.912 436.718 46.36 436.718 45.736C436.718 45.208 436.358 44.776 435.446 44.584L433.886 44.224C431.606 43.72 430.574 42.352 430.574 40.696C430.574 38.584 432.446 36.832 434.99 36.832C438.35 36.832 439.478 38.968 439.622 40.24L436.958 40.84C436.862 40.144 436.358 39.256 435.014 39.256C434.174 39.256 433.502 39.76 433.502 40.432C433.502 41.008 433.934 41.368 434.582 41.488L436.262 41.848C438.59 42.328 439.766 43.744 439.766 45.472C439.766 47.392 438.278 49.36 435.182 49.36C431.63 49.36 430.406 47.056 430.262 45.712ZM445.543 49H442.351V37.192H445.543V49ZM441.967 33.328C441.967 32.224 442.855 31.336 443.935 31.336C445.039 31.336 445.903 32.224 445.903 33.328C445.903 34.384 445.039 35.272 443.935 35.272C442.855 35.272 441.967 34.384 441.967 33.328ZM454.268 39.784C452.636 39.784 451.268 40.96 451.268 43.096C451.268 45.232 452.66 46.432 454.292 46.432C455.924 46.432 456.74 45.352 457.004 44.44L459.812 45.376C459.284 47.344 457.436 49.36 454.292 49.36C450.812 49.36 448.076 46.72 448.076 43.096C448.076 39.448 450.764 36.832 454.196 36.832C457.412 36.832 459.236 38.824 459.74 40.816L456.884 41.776C456.596 40.792 455.852 39.784 454.268 39.784ZM467.131 45.784C467.131 43.672 468.691 42.496 470.659 42.208L473.563 41.776C474.235 41.68 474.451 41.344 474.451 40.936C474.451 40.096 473.803 39.4 472.459 39.4C471.067 39.4 470.299 40.288 470.203 41.32L467.371 40.72C467.563 38.872 469.267 36.832 472.435 36.832C476.179 36.832 477.571 38.944 477.571 41.32V47.128C477.571 47.752 477.643 48.592 477.715 49H474.787C474.715 48.688 474.667 48.04 474.667 47.584C474.067 48.52 472.939 49.336 471.187 49.336C468.667 49.336 467.131 47.632 467.131 45.784ZM471.859 46.96C473.203 46.96 474.451 46.312 474.451 44.224V43.696L471.787 44.104C470.971 44.224 470.323 44.68 470.323 45.592C470.323 46.288 470.827 46.96 471.859 46.96ZM479.949 45.712L482.685 45.112C482.757 46.048 483.453 46.912 484.845 46.912C485.901 46.912 486.405 46.36 486.405 45.736C486.405 45.208 486.045 44.776 485.133 44.584L483.573 44.224C481.293 43.72 480.261 42.352 480.261 40.696C480.261 38.584 482.133 36.832 484.677 36.832C488.037 36.832 489.165 38.968 489.309 40.24L486.645 40.84C486.549 40.144 486.045 39.256 484.701 39.256C483.861 39.256 483.189 39.76 483.189 40.432C483.189 41.008 483.621 41.368 484.269 41.488L485.949 41.848C488.277 42.328 489.453 43.744 489.453 45.472C489.453 47.392 487.965 49.36 484.869 49.36C481.317 49.36 480.093 47.056 479.949 45.712ZM500.926 53.56H497.734V37.192H500.83V38.632C501.358 37.72 502.678 36.928 504.454 36.928C507.91 36.928 509.902 39.568 509.902 43.072C509.902 46.648 507.67 49.288 504.334 49.288C502.702 49.288 501.502 48.64 500.926 47.848V53.56ZM506.758 43.096C506.758 41.008 505.462 39.784 503.83 39.784C502.198 39.784 500.878 41.008 500.878 43.096C500.878 45.184 502.198 46.432 503.83 46.432C505.462 46.432 506.758 45.208 506.758 43.096ZM511.78 45.784C511.78 43.672 513.34 42.496 515.308 42.208L518.212 41.776C518.884 41.68 519.1 41.344 519.1 40.936C519.1 40.096 518.452 39.4 517.108 39.4C515.716 39.4 514.948 40.288 514.852 41.32L512.02 40.72C512.212 38.872 513.916 36.832 517.084 36.832C520.828 36.832 522.22 38.944 522.22 41.32V47.128C522.22 47.752 522.292 48.592 522.364 49H519.436C519.364 48.688 519.316 48.04 519.316 47.584C518.716 48.52 517.588 49.336 515.836 49.336C513.316 49.336 511.78 47.632 511.78 45.784ZM516.508 46.96C517.852 46.96 519.1 46.312 519.1 44.224V43.696L516.436 44.104C515.62 44.224 514.972 44.68 514.972 45.592C514.972 46.288 515.476 46.96 516.508 46.96ZM532.59 37.144V40.36C532.23 40.288 531.918 40.264 531.63 40.264C529.998 40.264 528.582 41.056 528.582 43.6V49H525.39V37.192H528.486V38.944C529.206 37.384 530.838 37.096 531.846 37.096C532.11 37.096 532.35 37.12 532.59 37.144ZM538.847 33.664V37.192H541.223V40.024H538.847V44.968C538.847 46 539.327 46.336 540.239 46.336C540.623 46.336 541.055 46.288 541.223 46.24V48.88C540.935 49 540.359 49.168 539.423 49.168C537.119 49.168 535.679 47.8 535.679 45.52V40.024H533.543V37.192H534.143C535.391 37.192 535.967 36.376 535.967 35.32V33.664H538.847ZM31.104 80.456C32.664 80.456 34.104 79.328 34.104 77.096C34.104 74.864 32.664 73.736 31.104 73.736C29.544 73.736 28.104 74.864 28.104 77.096C28.104 79.304 29.544 80.456 31.104 80.456ZM31.104 70.832C34.632 70.832 37.296 73.448 37.296 77.096C37.296 80.72 34.632 83.36 31.104 83.36C27.576 83.36 24.912 80.72 24.912 77.096C24.912 73.448 27.576 70.832 31.104 70.832ZM45.5288 68.264C44.8088 68.264 43.8728 68.576 43.8728 69.896V71.192H46.5368V73.928H43.8728V83H40.6568V73.928H38.6888V71.192H40.6568V69.848C40.6568 67.184 42.3368 65.456 44.9528 65.456C45.6248 65.456 46.2728 65.576 46.5368 65.696V68.384C46.3688 68.336 46.0568 68.264 45.5288 68.264ZM57.4899 87.656H54.1059L56.8899 81.512L51.8739 71.192H55.4499L58.5939 78.104L61.4979 71.192H64.9059L57.4899 87.656ZM71.7915 80.456C73.3515 80.456 74.7915 79.328 74.7915 77.096C74.7915 74.864 73.3515 73.736 71.7915 73.736C70.2315 73.736 68.7915 74.864 68.7915 77.096C68.7915 79.304 70.2315 80.456 71.7915 80.456ZM71.7915 70.832C75.3195 70.832 77.9835 73.448 77.9835 77.096C77.9835 80.72 75.3195 83.36 71.7915 83.36C68.2635 83.36 65.5995 80.72 65.5995 77.096C65.5995 73.448 68.2635 70.832 71.7915 70.832ZM88.2506 83C88.2026 82.76 88.1546 82.208 88.1546 81.728C87.5066 82.832 86.1386 83.312 84.8906 83.312C82.0346 83.312 80.4026 81.224 80.4026 78.656V71.192H83.5946V78.008C83.5946 79.328 84.2666 80.384 85.7546 80.384C87.1706 80.384 87.9866 79.424 87.9866 78.056V71.192H91.1786V80.864C91.1786 81.776 91.2506 82.592 91.2986 83H88.2506ZM101.645 71.144V74.36C101.285 74.288 100.973 74.264 100.685 74.264C99.0525 74.264 97.6365 75.056 97.6365 77.6V83H94.4445V71.192H97.5405V72.944C98.2605 71.384 99.8925 71.096 100.901 71.096C101.165 71.096 101.405 71.12 101.645 71.144ZM111.472 75.752H116.752C116.704 74.576 115.936 73.424 114.112 73.424C112.456 73.424 111.544 74.672 111.472 75.752ZM117.064 78.824L119.728 79.616C119.128 81.656 117.256 83.36 114.352 83.36C111.112 83.36 108.256 81.032 108.256 77.048C108.256 73.28 111.04 70.832 114.064 70.832C117.712 70.832 119.896 73.16 119.896 76.952C119.896 77.408 119.848 77.888 119.848 77.936H111.4C111.472 79.496 112.792 80.624 114.376 80.624C115.864 80.624 116.68 79.88 117.064 78.824ZM133.31 71.192L128.726 83H125.534L120.71 71.192H124.214L127.142 79.112L129.95 71.192H133.31ZM137.394 75.752H142.674C142.626 74.576 141.858 73.424 140.034 73.424C138.378 73.424 137.466 74.672 137.394 75.752ZM142.986 78.824L145.65 79.616C145.05 81.656 143.178 83.36 140.274 83.36C137.034 83.36 134.178 81.032 134.178 77.048C134.178 73.28 136.962 70.832 139.986 70.832C143.634 70.832 145.818 73.16 145.818 76.952C145.818 77.408 145.77 77.888 145.77 77.936H137.322C137.394 79.496 138.714 80.624 140.298 80.624C141.786 80.624 142.602 79.88 142.986 78.824ZM151.566 76.208V83H148.374V71.192H151.47V72.656C152.19 71.432 153.606 70.88 154.878 70.88C157.806 70.88 159.15 72.968 159.15 75.56V83H155.958V76.112C155.958 74.792 155.31 73.76 153.774 73.76C152.382 73.76 151.566 74.84 151.566 76.208ZM166.354 67.664V71.192H168.73V74.024H166.354V78.968C166.354 80 166.834 80.336 167.746 80.336C168.13 80.336 168.562 80.288 168.73 80.24V82.88C168.442 83 167.866 83.168 166.93 83.168C164.626 83.168 163.186 81.8 163.186 79.52V74.024H161.05V71.192H161.65C162.898 71.192 163.474 70.376 163.474 69.32V67.664H166.354ZM180.183 83H176.991V71.192H180.183V83ZM176.607 67.328C176.607 66.224 177.495 65.336 178.575 65.336C179.679 65.336 180.543 66.224 180.543 67.328C180.543 68.384 179.679 69.272 178.575 69.272C177.495 69.272 176.607 68.384 176.607 67.328ZM186.629 76.208V83H183.437V71.192H186.533V72.656C187.253 71.432 188.669 70.88 189.941 70.88C192.869 70.88 194.213 72.968 194.213 75.56V83H191.021V76.112C191.021 74.792 190.373 73.76 188.837 73.76C187.445 73.76 186.629 74.84 186.629 76.208ZM208.333 71.192L203.749 83H200.557L195.733 71.192H199.237L202.165 79.112L204.973 71.192H208.333ZM213.558 83H210.366V71.192H213.558V83ZM209.982 67.328C209.982 66.224 210.87 65.336 211.95 65.336C213.054 65.336 213.918 66.224 213.918 67.328C213.918 68.384 213.054 69.272 211.95 69.272C210.87 69.272 209.982 68.384 209.982 67.328ZM220.964 67.664V71.192H223.34V74.024H220.964V78.968C220.964 80 221.444 80.336 222.356 80.336C222.74 80.336 223.172 80.288 223.34 80.24V82.88C223.052 83 222.476 83.168 221.54 83.168C219.236 83.168 217.796 81.8 217.796 79.52V74.024H215.66V71.192H216.26C217.508 71.192 218.084 70.376 218.084 69.32V67.664H220.964ZM225.209 79.784C225.209 77.672 226.769 76.496 228.737 76.208L231.641 75.776C232.313 75.68 232.529 75.344 232.529 74.936C232.529 74.096 231.881 73.4 230.537 73.4C229.145 73.4 228.377 74.288 228.281 75.32L225.449 74.72C225.641 72.872 227.345 70.832 230.513 70.832C234.257 70.832 235.649 72.944 235.649 75.32V81.128C235.649 81.752 235.721 82.592 235.793 83H232.865C232.793 82.688 232.745 82.04 232.745 81.584C232.145 82.52 231.017 83.336 229.265 83.336C226.745 83.336 225.209 81.632 225.209 79.784ZM229.937 80.96C231.281 80.96 232.529 80.312 232.529 78.224V77.696L229.865 78.104C229.049 78.224 228.401 78.68 228.401 79.592C228.401 80.288 228.905 80.96 229.937 80.96ZM242.878 67.664V71.192H245.254V74.024H242.878V78.968C242.878 80 243.358 80.336 244.27 80.336C244.654 80.336 245.086 80.288 245.254 80.24V82.88C244.966 83 244.39 83.168 243.454 83.168C241.15 83.168 239.71 81.8 239.71 79.52V74.024H237.574V71.192H238.174C239.422 71.192 239.998 70.376 239.998 69.32V67.664H242.878ZM251.012 83H247.82V71.192H251.012V83ZM247.436 67.328C247.436 66.224 248.324 65.336 249.404 65.336C250.508 65.336 251.372 66.224 251.372 67.328C251.372 68.384 250.508 69.272 249.404 69.272C248.324 69.272 247.436 68.384 247.436 67.328ZM259.737 80.456C261.297 80.456 262.737 79.328 262.737 77.096C262.737 74.864 261.297 73.736 259.737 73.736C258.177 73.736 256.737 74.864 256.737 77.096C256.737 79.304 258.177 80.456 259.737 80.456ZM259.737 70.832C263.265 70.832 265.929 73.448 265.929 77.096C265.929 80.72 263.265 83.36 259.737 83.36C256.209 83.36 253.545 80.72 253.545 77.096C253.545 73.448 256.209 70.832 259.737 70.832ZM271.66 76.208V83H268.468V71.192H271.564V72.656C272.284 71.432 273.7 70.88 274.972 70.88C277.9 70.88 279.244 72.968 279.244 75.56V83H276.052V76.112C276.052 74.792 275.404 73.76 273.868 73.76C272.476 73.76 271.66 74.84 271.66 76.208ZM281.598 79.712L284.334 79.112C284.406 80.048 285.102 80.912 286.494 80.912C287.55 80.912 288.054 80.36 288.054 79.736C288.054 79.208 287.694 78.776 286.782 78.584L285.222 78.224C282.942 77.72 281.91 76.352 281.91 74.696C281.91 72.584 283.782 70.832 286.326 70.832C289.686 70.832 290.814 72.968 290.958 74.24L288.294 74.84C288.198 74.144 287.694 73.256 286.35 73.256C285.51 73.256 284.838 73.76 284.838 74.432C284.838 75.008 285.27 75.368 285.918 75.488L287.598 75.848C289.926 76.328 291.102 77.744 291.102 79.472C291.102 81.392 289.614 83.36 286.518 83.36C282.966 83.36 281.742 81.056 281.598 79.712ZM299.045 77.816H296.453C296.405 77.504 296.357 77.192 296.357 76.832C296.357 75.56 296.885 74.384 298.253 73.352L299.405 72.488C300.125 71.96 300.437 71.312 300.437 70.592C300.437 69.488 299.645 68.432 298.037 68.432C296.333 68.432 295.589 69.8 295.589 71.144C295.589 71.432 295.613 71.696 295.685 71.912L292.661 71.792C292.565 71.456 292.541 71.072 292.541 70.712C292.541 68.12 294.485 65.624 298.037 65.624C301.757 65.624 303.701 67.976 303.701 70.4C303.701 72.296 302.741 73.64 301.325 74.648L300.341 75.344C299.501 75.944 299.045 76.688 299.045 77.672V77.816ZM295.901 81.296C295.901 80.24 296.741 79.376 297.797 79.376C298.853 79.376 299.717 80.24 299.717 81.296C299.717 82.352 298.853 83.192 297.797 83.192C296.741 83.192 295.901 82.352 295.901 81.296Z" fill="#2E2E2E"/>
<path d="M451.384 226.455L395.443 226.455L451.384 226.455Z" fill="#A7C2D1"/>
<path d="M451.384 226.455L395.443 226.455" stroke="#A7C2D1"/>
<path d="M482.722 229.029V224.818L478.8 217.756H481.355L483.839 222.498H483.98L486.456 217.756H489.011L485.081 224.818V229.029H482.722ZM492.636 229.209C490.019 229.209 488.433 227.498 488.433 224.74V224.732C488.433 221.998 490.035 220.24 492.543 220.24C495.05 220.24 496.613 221.959 496.613 224.561V225.271H490.691C490.714 226.686 491.472 227.506 492.683 227.506C493.683 227.506 494.238 226.975 494.394 226.646L494.418 226.6H496.543L496.527 226.678C496.261 227.756 495.152 229.209 492.636 229.209ZM492.582 221.951C491.589 221.951 490.855 222.623 490.714 223.842H494.425C494.285 222.592 493.574 221.951 492.582 221.951ZM501.582 229.209C499.246 229.209 497.918 228.162 497.754 226.686L497.746 226.654H499.988L500.004 226.686C500.184 227.217 500.707 227.6 501.605 227.6C502.48 227.6 503.074 227.225 503.074 226.654V226.639C503.074 226.178 502.73 225.889 501.855 225.693L500.418 225.389C498.777 225.037 497.965 224.232 497.965 222.943V222.936C497.965 221.318 499.402 220.24 501.551 220.24C503.809 220.24 505.059 221.365 505.152 222.748V222.779H503.035L503.027 222.74C502.902 222.279 502.394 221.85 501.543 221.85C500.754 221.85 500.191 222.217 500.191 222.795V222.803C500.191 223.264 500.512 223.529 501.402 223.725L502.832 224.029C504.551 224.396 505.355 225.115 505.355 226.389V226.396C505.355 228.1 503.785 229.209 501.582 229.209ZM515.934 229.029V226.959H510.411V225.107C511.84 222.568 513.372 220.068 514.872 217.756H518.184V225.068H519.653V226.959H518.184V229.029H515.934ZM512.536 225.131H515.981V219.545H515.856C514.762 221.225 513.551 223.186 512.536 225.006V225.131ZM521.388 229.029V227.443L525.02 223.857C526.606 222.318 527.036 221.748 527.036 220.959V220.936C527.036 219.975 526.38 219.303 525.302 219.303C524.2 219.303 523.442 220.037 523.442 221.107V221.146H521.263L521.255 221.115C521.255 218.951 522.942 217.467 525.411 217.467C527.731 217.467 529.356 218.795 529.356 220.74V220.764C529.356 222.045 528.692 223.107 526.638 225.006L524.552 226.951V227.131H529.52V229.029H521.388ZM533.888 223.936C532.239 223.936 531.224 222.717 531.224 220.764V220.756C531.224 218.803 532.239 217.592 533.888 217.592C535.544 217.592 536.552 218.803 536.552 220.756V220.764C536.552 222.717 535.544 223.936 533.888 223.936ZM535.622 229.029H533.818L541.404 217.756H543.208L535.622 229.029ZM533.888 222.686C534.575 222.686 534.958 221.99 534.958 220.764V220.756C534.958 219.521 534.575 218.842 533.888 218.842C533.208 218.842 532.825 219.521 532.825 220.756V220.764C532.825 221.99 533.208 222.686 533.888 222.686ZM543.13 229.193C541.482 229.193 540.466 227.975 540.466 226.021V226.014C540.466 224.061 541.482 222.85 543.13 222.85C544.786 222.85 545.794 224.061 545.794 226.014V226.021C545.794 227.975 544.786 229.193 543.13 229.193ZM543.13 227.943C543.818 227.943 544.2 227.248 544.2 226.021V226.014C544.2 224.779 543.818 224.1 543.13 224.1C542.45 224.1 542.068 224.779 542.068 226.014V226.021C542.068 227.248 542.45 227.943 543.13 227.943Z" fill="#2E2E2E"/>
<path d="M38.6726 323.009V311.735H40.6413L45.8445 318.915H45.9695V311.735H48.2273V323.009H46.2742L41.0554 315.798H40.9304V323.009H38.6726ZM54.2432 323.188C51.5948 323.188 50.001 321.509 50.001 318.712V318.696C50.001 315.923 51.6182 314.22 54.2432 314.22C56.8682 314.22 58.4854 315.915 58.4854 318.696V318.712C58.4854 321.517 56.8917 323.188 54.2432 323.188ZM54.2432 321.399C55.4542 321.399 56.1495 320.407 56.1495 318.712V318.696C56.1495 317.017 55.4463 316.009 54.2432 316.009C53.0323 316.009 52.337 317.017 52.337 318.696V318.712C52.337 320.407 53.0245 321.399 54.2432 321.399ZM63.5951 323.04C61.5013 323.04 60.6576 322.36 60.6576 320.688V316.126H59.3295V314.407H60.6576V312.353H62.9623V314.407H64.7357V316.126H62.9623V320.165C62.9623 320.938 63.2904 321.282 64.0638 321.282C64.3607 321.282 64.517 321.267 64.7357 321.243V322.938C64.4545 322.993 64.0326 323.04 63.5951 323.04ZM74.377 323.298C71.6817 323.298 69.9785 322.009 69.8457 320.009L69.8379 319.884H72.1113L72.1192 319.962C72.2051 320.806 73.1192 321.376 74.4395 321.376C75.6973 321.376 76.5645 320.774 76.5645 319.907V319.899C76.5645 319.157 76.0098 318.743 74.6113 318.454L73.4238 318.212C71.0801 317.735 70.0723 316.642 70.0723 314.931V314.923C70.0723 312.829 71.8692 311.446 74.3692 311.446C77.002 311.446 78.5488 312.837 78.6973 314.72L78.7051 314.821H76.4863L76.4707 314.728C76.3379 313.923 75.5567 313.36 74.3692 313.36C73.2051 313.368 72.4317 313.899 72.4317 314.743V314.751C72.4317 315.485 72.9785 315.923 74.3067 316.196L75.502 316.438C77.8848 316.931 78.9238 317.884 78.9238 319.642V319.649C78.9238 321.884 77.1895 323.298 74.377 323.298ZM83.4554 323.188C81.5257 323.188 80.5335 322.017 80.5335 319.97V314.407H82.8148V319.446C82.8148 320.665 83.2757 321.298 84.3538 321.298C85.4788 321.298 86.0882 320.54 86.0882 319.376V314.407H88.3695V323.009H86.0882V321.681H85.9476C85.557 322.618 84.682 323.188 83.4554 323.188ZM90.3385 323.009V314.407H92.6198V315.743H92.7604C93.0338 314.813 93.8151 314.267 94.9323 314.267C95.237 314.267 95.5573 314.313 95.7838 314.376V316.368C95.4401 316.29 95.0885 316.235 94.737 316.235C93.4401 316.235 92.6198 316.978 92.6198 318.196V323.009H90.3385ZM100.565 323.188C97.9482 323.188 96.3623 321.478 96.3623 318.72V318.712C96.3623 315.978 97.9638 314.22 100.472 314.22C102.979 314.22 104.542 315.938 104.542 318.54V319.251H98.6201C98.6435 320.665 99.4013 321.485 100.612 321.485C101.612 321.485 102.167 320.954 102.323 320.626L102.347 320.579H104.472L104.456 320.657C104.19 321.735 103.081 323.188 100.565 323.188ZM100.511 315.931C99.5185 315.931 98.7841 316.603 98.6435 317.821H102.354C102.214 316.571 101.503 315.931 100.511 315.931ZM114.105 323.259C111.558 323.259 109.879 321.892 109.722 319.876L109.714 319.774H111.972L111.98 319.86C112.082 320.735 112.886 321.36 114.105 321.36C115.308 321.36 116.097 320.688 116.097 319.735V319.72C116.097 318.642 115.293 318.048 113.925 318.048H112.636V316.368H113.894C115.082 316.368 115.847 315.743 115.847 314.829V314.813C115.847 313.876 115.199 313.298 114.089 313.298C112.98 313.298 112.238 313.899 112.144 314.837L112.136 314.907H109.964L109.972 314.813C110.136 312.798 111.722 311.485 114.089 311.485C116.511 311.485 118.074 312.704 118.074 314.501V314.517C118.074 315.923 117.043 316.837 115.722 317.11V317.157C117.402 317.313 118.496 318.282 118.496 319.813V319.829C118.496 321.876 116.738 323.259 114.105 323.259ZM124.535 323.298C121.754 323.298 120.059 321.017 120.059 317.376V317.36C120.059 313.712 121.754 311.446 124.535 311.446C127.324 311.446 129.012 313.712 129.012 317.36V317.376C129.012 321.017 127.324 323.298 124.535 323.298ZM124.535 321.431C125.871 321.431 126.629 319.923 126.629 317.376V317.36C126.629 314.806 125.871 313.313 124.535 313.313C123.207 313.313 122.449 314.806 122.449 317.36V317.376C122.449 319.923 123.207 321.431 124.535 321.431ZM133.356 317.915C131.707 317.915 130.692 316.696 130.692 314.743V314.735C130.692 312.782 131.707 311.571 133.356 311.571C135.012 311.571 136.02 312.782 136.02 314.735V314.743C136.02 316.696 135.012 317.915 133.356 317.915ZM135.09 323.009H133.285L140.871 311.735H142.676L135.09 323.009ZM133.356 316.665C134.043 316.665 134.426 315.97 134.426 314.743V314.735C134.426 313.501 134.043 312.821 133.356 312.821C132.676 312.821 132.293 313.501 132.293 314.735V314.743C132.293 315.97 132.676 316.665 133.356 316.665ZM142.598 323.173C140.949 323.173 139.934 321.954 139.934 320.001V319.993C139.934 318.04 140.949 316.829 142.598 316.829C144.254 316.829 145.262 318.04 145.262 319.993V320.001C145.262 321.954 144.254 323.173 142.598 323.173ZM142.598 321.923C143.285 321.923 143.668 321.228 143.668 320.001V319.993C143.668 318.759 143.285 318.079 142.598 318.079C141.918 318.079 141.535 318.759 141.535 319.993V320.001C141.535 321.228 141.918 321.923 142.598 321.923Z" fill="#2E2E2E"/>
<path d="M211.959 320.435H156.019H211.959Z" fill="#F6C874"/>
<path d="M211.959 320.435H156.019" stroke="#F6C874"/>
<path d="M63.3315 156.666V145.393H65.3003L70.5034 152.572H70.6284V145.393H72.8862V156.666H70.9331L65.7143 149.455H65.5893V156.666H63.3315ZM78.9022 156.846C76.2537 156.846 74.66 155.166 74.66 152.369V152.354C74.66 149.58 76.2772 147.877 78.9022 147.877C81.5272 147.877 83.1443 149.572 83.1443 152.354V152.369C83.1443 155.174 81.5506 156.846 78.9022 156.846ZM78.9022 155.057C80.1131 155.057 80.8084 154.064 80.8084 152.369V152.354C80.8084 150.674 80.1053 149.666 78.9022 149.666C77.6912 149.666 76.9959 150.674 76.9959 152.354V152.369C76.9959 154.064 77.6834 155.057 78.9022 155.057ZM88.4887 156.666V155.08L92.1215 151.494C93.7075 149.955 94.1372 149.385 94.1372 148.596V148.572C94.1372 147.611 93.4809 146.939 92.4028 146.939C91.3012 146.939 90.5434 147.674 90.5434 148.744V148.783H88.3637L88.3559 148.752C88.3559 146.588 90.0434 145.104 92.5122 145.104C94.8325 145.104 96.4575 146.432 96.4575 148.377V148.4C96.4575 149.682 95.7934 150.744 93.7387 152.643L91.6528 154.588V154.768H96.6215V156.666H88.4887ZM102.88 156.916C100.169 156.916 98.3015 155.564 98.3015 153.611V153.596C98.3015 152.127 99.3953 151.041 100.934 150.736V150.689C99.614 150.369 98.7156 149.416 98.7156 148.189V148.174C98.7156 146.424 100.427 145.143 102.88 145.143C105.325 145.143 107.044 146.424 107.044 148.174V148.189C107.044 149.416 106.137 150.361 104.825 150.689V150.736C106.356 151.033 107.458 152.127 107.458 153.596V153.611C107.458 155.564 105.591 156.916 102.88 156.916ZM102.88 149.979C103.958 149.979 104.708 149.338 104.708 148.416V148.4C104.708 147.479 103.95 146.846 102.88 146.846C101.802 146.846 101.044 147.479 101.044 148.4V148.416C101.044 149.338 101.794 149.979 102.88 149.979ZM102.88 155.197C104.114 155.197 104.989 154.471 104.989 153.455V153.439C104.989 152.424 104.13 151.689 102.88 151.689C101.63 151.689 100.762 152.424 100.762 153.439V153.455C100.762 154.471 101.637 155.197 102.88 155.197ZM111.778 151.572C110.13 151.572 109.114 150.354 109.114 148.4V148.393C109.114 146.439 110.13 145.229 111.778 145.229C113.435 145.229 114.442 146.439 114.442 148.393V148.4C114.442 150.354 113.435 151.572 111.778 151.572ZM113.513 156.666H111.708L119.294 145.393H121.099L113.513 156.666ZM111.778 150.322C112.466 150.322 112.849 149.627 112.849 148.4V148.393C112.849 147.158 112.466 146.479 111.778 146.479C111.099 146.479 110.716 147.158 110.716 148.393V148.4C110.716 149.627 111.099 150.322 111.778 150.322ZM121.021 156.83C119.372 156.83 118.357 155.611 118.357 153.658V153.65C118.357 151.697 119.372 150.486 121.021 150.486C122.677 150.486 123.685 151.697 123.685 153.65V153.658C123.685 155.611 122.677 156.83 121.021 156.83ZM121.021 155.58C121.708 155.58 122.091 154.885 122.091 153.658V153.65C122.091 152.416 121.708 151.736 121.021 151.736C120.341 151.736 119.958 152.416 119.958 153.65V153.658C119.958 154.885 120.341 155.58 121.021 155.58Z" fill="#2E2E2E"/>
<path d="M218.672 154.091H134.762H218.672Z" fill="#E57BA1"/>
<path d="M218.672 154.091H134.762" stroke="#E57BA1"/>
<path d="M287.838 128.359C312.543 128.439 336.52 136.734 355.992 151.939C375.464 167.144 389.324 188.394 395.391 212.343C401.458 236.292 399.386 261.578 389.501 284.22C379.616 306.862 362.481 325.572 340.793 337.404L287.479 239.68L287.838 128.359Z" fill="#A7C2D1"/>
<path d="M340.793 337.404C319.105 349.236 294.098 353.517 269.71 349.573C245.321 345.63 222.937 333.686 206.084 315.622C189.23 297.558 178.864 274.401 176.618 249.798C174.373 225.195 180.375 200.544 193.68 179.728L287.479 239.68L340.793 337.404Z" fill="#F6C874"/>
<path d="M178.063 260.186C175.044 244.08 175.618 227.506 179.745 211.648C183.871 195.789 191.448 181.037 201.934 168.445C212.42 155.852 225.556 145.73 240.406 138.801C255.255 131.872 271.451 128.306 287.838 128.359L287.479 239.68L178.063 260.186Z" fill="#E57BA1"/>
</svg>
